<svg id="Capa_1" data-name="Capa 1" xmlns="http://www.w3.org/2000/svg" width="16.38mm" height="18.24mm" viewBox="0 0 46.44 51.69">
  <defs>
    <style>
      .cls-1 {
        fill: #f2f2f2;
      }
    </style>
  </defs>
  <path class="cls-1" d="M365.67,466.51l-4.8-1.6-1.72-3.44a11,11,0,0,0,3-5.85l.22-1.29h1.84a3,3,0,0,0,3-3v-6.36a15.14,15.14,0,1,0-30.28,0v6.36a3,3,0,0,0,2,2.85v1.19a3,3,0,0,0,3,3h.89a11,11,0,0,0,1.69,2.62l.45.48-1.72,3.44-4.8,1.6c-5.58,1.86-9.63,7.74-9.63,14a1,1,0,0,0,1,1h44.42a1,1,0,0,0,1-1C375.3,474.25,371.25,468.37,365.67,466.51Zm-.46-15.21a1,1,0,0,1-1,1h-1.55c.26-2,.43-4.11.5-6.19,0-.06,0-.12,0-.17h2Zm-25.25,1a1,1,0,0,1-1-1V446H341c0,.1,0,.21,0,.31v0h0c.07,2,.23,4.08.49,6Zm2,4a1,1,0,0,1-1-1v-1h.83l.22,1.29c0,.24.09.48.15.73Zm-1-12.42h-2a13.13,13.13,0,0,1,26.18,0h-2a10.22,10.22,0,0,0-10.2-10.1h-1.8A10.22,10.22,0,0,0,341,443.93Zm10.2-8.08H353a8.21,8.21,0,0,1,8.19,8.22c0,.32,0,.59,0,.85h0l-1.26-.18a16.29,16.29,0,0,1-9.13-4.56,1,1,0,0,0-.71-.3,9.11,9.11,0,0,0-7,3.32A8.21,8.21,0,0,1,351.18,435.85Zm-6.92,20.5a57.49,57.49,0,0,1-1.21-9.8l1.36-1.81a7.08,7.08,0,0,1,5.25-2.82,18.26,18.26,0,0,0,9.95,4.82l1.49.22c-.1,2.11-.31,4.22-.6,6.17h0c-.09.63-.16,1-.35,2.15a8.57,8.57,0,0,1-6.09,6.9,8.29,8.29,0,0,1-4,0,8.15,8.15,0,0,1-5-3.81h2.06a3,3,0,0,0,2.85,2h2a3,3,0,1,0,0-6.06h-2a3,3,0,0,0-2.86,2Zm5.72,7.87a9.85,9.85,0,0,0,2.1.22,10.19,10.19,0,0,0,1.65-.13L352,466.2Zm.58,3.44-3.2,3.39a37.29,37.29,0,0,1-2.26-5.24l1.2-2.41Zm7.13-4.6,1.37,2.75a38,38,0,0,1-2.26,5.24l-3.42-3.43Zm-8.64-5.7a1,1,0,0,1,1-1h2a1,1,0,1,1,0,2h-2A1,1,0,0,1,349.05,457.36Zm-18.13,22.11a12.76,12.76,0,0,1,8.21-11l4.25-1.42a39.47,39.47,0,0,0,2.87,6.23h0a37.76,37.76,0,0,0,2.76,4.22l1.24,2Zm21.16-.9-1.37-2.2,0-.07a36.55,36.55,0,0,1-2.27-3.4l3.6-3.81,3.79,3.8a38.92,38.92,0,0,1-2.28,3.41C353.45,476.36,353.52,476.26,352.08,478.57Zm1.82.9,1.24-2a39.78,39.78,0,0,0,2.78-4.25l0,0h0a39.71,39.71,0,0,0,2.84-6.18l4.25,1.42a12.76,12.76,0,0,1,8.21,11Z" transform="translate(-328.86 -429.79)"/>
</svg>
