<svg id="Capa_1" data-name="Capa 1" xmlns="http://www.w3.org/2000/svg" width="9.95mm" height="11.18mm" viewBox="0 0 28.19 31.68">
  <defs>
    <style>
      .cls-1 {
        fill: #fff;
      }
    </style>
  </defs>
  <path class="cls-1" d="M86.5,410.47a1,1,0,0,0-.22-.35l-8-8.44a.9.9,0,0,0-.32-.23,1.09,1.09,0,0,0-.39-.08H64.43a2.06,2.06,0,0,0-2,2.11V413a1,1,0,1,0,2,0v-9.5H76.51v6.34a2.07,2.07,0,0,0,2,2.11h6v16.9H72.48a1.06,1.06,0,0,0,0,2.11H84.57a2.07,2.07,0,0,0,2-2.11v-18A1.06,1.06,0,0,0,86.5,410.47Zm-8-.65V405l4.61,4.85Z" transform="translate(-58.39 -401.37)"/>
  <path class="cls-1" d="M68.43,431.74l-1.54-6.49a5.42,5.42,0,0,0,1.57-3.82,5,5,0,1,0-10.07,0A5.42,5.42,0,0,0,60,425.25l-1.54,6.49a1.07,1.07,0,0,0,.35,1.08,1,1,0,0,0,1.08.12l3.57-1.88L67,432.94a1,1,0,0,0,.45.11,1,1,0,0,0,.63-.23A1.09,1.09,0,0,0,68.43,431.74Zm-4.56-2.8a1,1,0,0,0-.9,0L60.9,430l.86-3.63a4.67,4.67,0,0,0,1.66.32,4.58,4.58,0,0,0,1.66-.32l.86,3.63Zm-.45-4.34a3.17,3.17,0,1,1,3-3.17A3.1,3.1,0,0,1,63.42,424.6Z" transform="translate(-58.39 -401.37)"/>
  <path class="cls-1" d="M73.49,407.7h-6a1.06,1.06,0,0,0,0,2.12h6a1.06,1.06,0,0,0,0-2.12Z" transform="translate(-58.39 -401.37)"/>
  <path class="cls-1" d="M81.55,414H69.46a1.06,1.06,0,0,0,0,2.11H81.55a1.06,1.06,0,0,0,0-2.11Z" transform="translate(-58.39 -401.37)"/>
  <path class="cls-1" d="M81.55,420.38H71.48a1.06,1.06,0,0,0,0,2.11H81.55a1.06,1.06,0,0,0,0-2.11Z" transform="translate(-58.39 -401.37)"/>
</svg>
