<svg id="Capa_1" data-name="Capa 1" xmlns="http://www.w3.org/2000/svg" width="11.07mm" height="11.19mm" viewBox="0 0 31.39 31.72">
  <defs>
    <style>
      .cls-1 {
        fill: #fff;
      }
    </style>
  </defs>
  <g>
    <path class="cls-1" d="M30.72,407.57l3.68,1.32v5.24a.92.92,0,0,0,.92.93H47.58a.92.92,0,0,0,.92-.93v-5.24L51,408v3.64a.92.92,0,1,0,1.84,0V406.7a.93.93,0,0,0-.61-.88l-10.43-3.71a.81.81,0,0,0-.61,0l-10.42,3.71a.93.93,0,0,0,0,1.75Zm15.94,5.63H36.24v-3.66l4.9,1.75a.84.84,0,0,0,.31,0,.76.76,0,0,0,.3,0l4.91-1.75ZM41.45,404l7.66,2.73-7.66,2.73-7.66-2.73Z" transform="translate(-23.24 -402.05)"/>
    <path class="cls-1" d="M52.72,419.06a2.76,2.76,0,0,0-3.13,1l-3.42,4.52v-.07a3.09,3.09,0,0,0-3.07-3.1H37a6.2,6.2,0,0,0-6.91-.8v-.13a.93.93,0,0,0-.92-.93h-5a.93.93,0,0,0-.92.93v12.39a.93.93,0,0,0,.92.93h5a.93.93,0,0,0,.92-.93v-.93H45.18a6.41,6.41,0,0,0,5.42-3l3.58-5.64a2.84,2.84,0,0,0-1.46-4.22ZM28.27,431.91H25.08V421.38h3.19Zm24.37-9.63-3.59,5.64a4.56,4.56,0,0,1-3.87,2.13H30.11v-7.26l.3-.22A4.37,4.37,0,0,1,36,423a.9.9,0,0,0,.64.26H43.1a1.24,1.24,0,0,1,0,2.48H36.54a.93.93,0,0,0,0,1.86h7.38a4.63,4.63,0,0,0,3.66-1.83l3.47-4.59a.94.94,0,0,1,1.08-.34,1,1,0,0,1,.66.93,1,1,0,0,1-.15.53Z" transform="translate(-23.24 -402.05)"/>
  </g>
</svg>
