<svg id="Capa_1" data-name="Capa 1" xmlns="http://www.w3.org/2000/svg" width="11.65mm" height="8.84mm" viewBox="0 0 33.02 25.05">
  <defs>
    <style>
      .cls-1 {
        fill: #fff;
      }
    </style>
  </defs>
  <g>
    <path class="cls-1" d="M52.3,426.27l-.61,2.78a1.19,1.19,0,0,1-1.15,1H27a1.19,1.19,0,0,1-1.15-1l-.61-2.78Z" transform="translate(-22.24 -404.97)"/>
    <path class="cls-1" d="M55.23,412.77l-2.39,11H24.66l-2.39-11a1.31,1.31,0,0,1,.45-1.29A1.13,1.13,0,0,1,24,411.4l7.29,4.43,6.47-10.3a1.2,1.2,0,0,1,.94-.56,1.15,1.15,0,0,1,1,.49l7.58,10.35,6.17-4.36a1.11,1.11,0,0,1,1.32,0,1.28,1.28,0,0,1,.48,1.31Z" transform="translate(-22.24 -404.97)"/>
  </g>
</svg>
