<svg id="Capa_1" data-name="Capa 1" xmlns="http://www.w3.org/2000/svg" width="11.7mm" height="9.71mm" viewBox="0 0 33.18 27.54">
  <defs>
    <style>
      .cls-1 {
        fill: #fff;
      }
    </style>
  </defs>
  <g>
    <path class="cls-1" d="M71.71,410.64H46.31a3.84,3.84,0,0,0-3.89,3.76v15a3.83,3.83,0,0,0,3.89,3.75H57.72v2.51H53.83a1.25,1.25,0,1,0,0,2.5H64.2a1.25,1.25,0,1,0,0-2.5H60.31v-2.51h11.4a3.82,3.82,0,0,0,3.89-3.75v-15A3.83,3.83,0,0,0,71.71,410.64ZM73,429.42a1.27,1.27,0,0,1-1.3,1.25H46.31A1.27,1.27,0,0,1,45,429.42v-15a1.27,1.27,0,0,1,1.29-1.25h25.4A1.27,1.27,0,0,1,73,414.4Z" transform="translate(-42.42 -410.64)"/>
    <path class="cls-1" d="M54.74,418.52a1.32,1.32,0,0,0-1.83,0L50.32,421a1.22,1.22,0,0,0,0,1.77l2.59,2.51a1.32,1.32,0,0,0,1.83,0,1.22,1.22,0,0,0,0-1.77l-1.67-1.62,1.67-1.62A1.22,1.22,0,0,0,54.74,418.52Z" transform="translate(-42.42 -410.64)"/>
    <path class="cls-1" d="M65.11,418.52a1.32,1.32,0,0,0-1.83,0,1.22,1.22,0,0,0,0,1.77L65,421.91l-1.67,1.62a1.22,1.22,0,0,0,0,1.77,1.32,1.32,0,0,0,1.83,0l2.59-2.51a1.22,1.22,0,0,0,0-1.77Z" transform="translate(-42.42 -410.64)"/>
    <path class="cls-1" d="M60.62,415.69a1.3,1.3,0,0,0-1.57.91l-2.59,10a1.26,1.26,0,0,0,.94,1.52,1.29,1.29,0,0,0,1.57-.91l2.6-10a1.26,1.26,0,0,0-1-1.52Z" transform="translate(-42.42 -410.64)"/>
  </g>
</svg>
