<svg id="Capa_1" data-name="Capa 1" xmlns="http://www.w3.org/2000/svg" width="5.66mm" height="5.5mm" viewBox="0 0 16.03 15.59">
  <defs>
    <style>
      .cls-1 {
        fill: #fff;
      }
    </style>
  </defs>
  <g>
    <path class="cls-1" d="M80.6,419.26a1.35,1.35,0,0,0-.89-.65,1.38,1.38,0,0,0-1.06.21l-1.05.59a16.35,16.35,0,0,0-1.74,1.1.79.79,0,0,0,.06-.6c-.09-.28-.39-.64-1.31-.7-1.9-.13-2.25-.48-2.29-.52a2.63,2.63,0,0,0-.64-.54c-2.64-1.47-5.17.74-5.28.84h0l-1.48.75a.43.43,0,0,0-.19.23.37.37,0,0,0,0,.29l2,3.74a.38.38,0,0,0,.24.19l.1,0a.36.36,0,0,0,.2-.06l1.49-.93h0a.41.41,0,0,1,.4,0,8,8,0,0,0,3.55,1.17l.37,0a11.91,11.91,0,0,0,7-3.41l.28-.28a1.16,1.16,0,0,0,.19-1.4Zm-13.36,4-1.62-3.05.85-.43,1.61,2.95Zm12.62-3.16-.26.26a11.35,11.35,0,0,1-6.52,3.2H73c-.32.06-1.3.08-3.44-1.06a1.25,1.25,0,0,0-.56-.14l-.24,0-1.64-3c.63-.45,2.41-1.54,4.16-.55a1.63,1.63,0,0,1,.45.37c.36.42,1.28.68,2.81.78a1.15,1.15,0,0,1,.63.16s0,.14-.26.31a3.66,3.66,0,0,1-3.31.38.38.38,0,0,0-.37.65l.19.1a3.45,3.45,0,0,0,.77.18,6.86,6.86,0,0,0,4-.59L78,420.07l1.06-.6,0,0a.56.56,0,0,1,.47-.09.58.58,0,0,1,.38.27A.42.42,0,0,1,79.86,420.13Z" transform="translate(-64.72 -408.79)"/>
    <path class="cls-1" d="M74.51,414.64a1.6,1.6,0,0,0,0-3.19,1.6,1.6,0,1,0,0,3.19Zm0-2.43a.84.84,0,0,1,.83.84.83.83,0,0,1-1.66,0A.84.84,0,0,1,74.51,412.21Z" transform="translate(-64.72 -408.79)"/>
    <path class="cls-1" d="M70.82,414l.28.07a3.66,3.66,0,0,0,.15.43l-.16.22a.77.77,0,0,0,0,.93l.28.33a.76.76,0,0,0,.91.19l.25-.13a3.63,3.63,0,0,0,.94.43l.06.27a.75.75,0,0,0,.73.58h.43a.74.74,0,0,0,.73-.57l.07-.28a3.64,3.64,0,0,0,.88-.39l.24.12a.75.75,0,0,0,.92-.16l.28-.31a.75.75,0,0,0,.06-.93l-.16-.24a4.09,4.09,0,0,0,.18-.49l.28-.07a.75.75,0,0,0,.57-.73v-.42a.76.76,0,0,0-.57-.74l-.28-.06a2.23,2.23,0,0,0-.16-.43l.17-.23a.75.75,0,0,0,0-.93l-.27-.32a.74.74,0,0,0-.91-.19l-.26.13a3.6,3.6,0,0,0-.93-.44l-.07-.27a.74.74,0,0,0-.73-.57h-.43a.76.76,0,0,0-.73.57l-.06.28a3.64,3.64,0,0,0-.88.39l-.25-.13a.73.73,0,0,0-.91.16l-.28.32a.75.75,0,0,0-.06.93l.16.23a4.24,4.24,0,0,0-.18.5l-.27.06a.75.75,0,0,0-.58.73v.42a.76.76,0,0,0,.57.74Zm.68-1.27a.37.37,0,0,0,.28-.28,2.76,2.76,0,0,1,.28-.74.4.4,0,0,0,0-.41l-.29-.4.27-.32.45.24a.38.38,0,0,0,.4,0,2.81,2.81,0,0,1,1-.46.37.37,0,0,0,.28-.28l.12-.49h.41l.12.5a.39.39,0,0,0,.29.28,2.82,2.82,0,0,1,1.07.49.39.39,0,0,0,.4,0l.45-.23.27.31-.3.42a.38.38,0,0,0,0,.4,2.71,2.71,0,0,1,.25.69.37.37,0,0,0,.28.28l.49.12v.41l-.5.12a.39.39,0,0,0-.28.29,2.76,2.76,0,0,1-.28.74.38.38,0,0,0,0,.4l.29.41-.27.31-.45-.23a.38.38,0,0,0-.4,0,2.61,2.61,0,0,1-1,.47.37.37,0,0,0-.28.28l-.12.49H74.3l-.11-.49a.39.39,0,0,0-.29-.28,2.84,2.84,0,0,1-1.07-.5.39.39,0,0,0-.23-.07.33.33,0,0,0-.17,0l-.45.22-.27-.31.29-.41a.36.36,0,0,0,0-.4,2.85,2.85,0,0,1-.25-.69.39.39,0,0,0-.28-.29l-.49-.11v-.42Z" transform="translate(-64.72 -408.79)"/>
  </g>
</svg>
