<svg id="Capa_1" data-name="Capa 1" xmlns="http://www.w3.org/2000/svg" width="8.69mm" height="11.46mm" viewBox="0 0 24.64 32.49">
  <defs>
    <style>
      .cls-1 {
        fill: #fff;
      }
    </style>
  </defs>
  <g id="Layer_2" data-name="Layer 2">
    <path class="cls-1" d="M47.9,418.36A9.31,9.31,0,0,0,49.48,406,7.83,7.83,0,0,0,38,404.25a9.33,9.33,0,0,0-1.58,12.41,8.83,8.83,0,0,0,1.58,1.7,13.38,13.38,0,0,0-7.35,12.15,4.27,4.27,0,0,0,4.1,4.43H51.15a4.28,4.28,0,0,0,4.11-4.43,13.39,13.39,0,0,0-7.36-12.15Zm-10.44-7a5.71,5.71,0,0,1,5.48-5.91,5.92,5.92,0,0,1,0,11.81A5.7,5.7,0,0,1,37.46,411.33ZM51.15,432H34.72a1.43,1.43,0,0,1-1.37-1.48c0-5.7,4.29-10.33,9.59-10.33s9.58,4.63,9.58,10.33A1.42,1.42,0,0,1,51.15,432Z" transform="translate(-30.62 -402.45)"/>
  </g>
</svg>
