<svg id="Capa_1" data-name="Capa 1" xmlns="http://www.w3.org/2000/svg" width="12.56mm" height="11.34mm" viewBox="0 0 35.61 32.13">
  <defs>
    <style>
      .cls-1 {
        fill: #fff;
      }
    </style>
  </defs>
  <path class="cls-1" d="M54.75,433.23h9.71a1.58,1.58,0,0,0,1.15-.52,1.89,1.89,0,0,0,.47-1.26,1.86,1.86,0,0,0-.47-1.25,1.54,1.54,0,0,0-1.15-.52h-8a12.79,12.79,0,0,1,3.8-7.62,10.75,10.75,0,0,1,7.41-3,7.7,7.7,0,0,0,5.23-2,9.09,9.09,0,0,0,2.85-5.22,9.65,9.65,0,0,0-.85-6,8.42,8.42,0,0,0-4.15-4,7.5,7.5,0,0,0-5.55-.19,8.32,8.32,0,0,0-4.37,3.75,9.72,9.72,0,0,0-1.18,5.95,9.27,9.27,0,0,0,2.55,5.4,15,15,0,0,0-6.6,5.89,17.16,17.16,0,0,0-2.5,8.92,1.85,1.85,0,0,0,.48,1.26,1.54,1.54,0,0,0,1.14.52Zm13-28.42a4.6,4.6,0,0,1,2.7.89,5.28,5.28,0,0,1,1.79,2.4,5.86,5.86,0,0,1,.27,3.08,5.41,5.41,0,0,1-1.33,2.72,4.67,4.67,0,0,1-2.48,1.46,4.47,4.47,0,0,1-2.81-.3,5,5,0,0,1-2.18-2,5.76,5.76,0,0,1-.82-3,5.61,5.61,0,0,1,1.43-3.77A4.63,4.63,0,0,1,67.7,404.81Zm16.52,7.62a1.52,1.52,0,0,0-2.29,0L71.82,423.54a1.75,1.75,0,0,0-.39.69l-2,6.66a1.94,1.94,0,0,0-.06.83,1.89,1.89,0,0,0,.29.77,1.48,1.48,0,0,0,.57.54,1.49,1.49,0,0,0,.74.2,1.52,1.52,0,0,0,.51-.09l6.07-2.22a1.69,1.69,0,0,0,.63-.43l10.12-11.1a1.92,1.92,0,0,0,0-2.52Zm-8.09,15.25-2.64,1,.88-2.89,8.71-9.55,1.75,1.93Z" transform="translate(-53.13 -401.1)"/>
</svg>
