<svg id="Capa_1" data-name="Capa 1" xmlns="http://www.w3.org/2000/svg" width="184.05mm" height="11.63mm" viewBox="0 0 521.72 32.96">
  <defs>
    <style>
      .cls-1 {
        font-size: 5.7px;
      }

      .cls-1, .cls-2, .cls-3, .cls-4 {
        fill: #fff;
      }

      .cls-1, .cls-2, .cls-7 {
        font-family: Rubik-Medium, Rubik;
        font-weight: 500;
      }

      .cls-2 {
        font-size: 16.01px;
      }

      .cls-4 {
        fill-rule: evenodd;
      }

      .cls-5 {
        fill: none;
      }

      .cls-6 {
        fill: #1f1f1f;
      }

      .cls-7 {
        font-size: 3.71px;
        fill: #131313;
      }
    </style>
  </defs>
  <g>
    <g>
      <text class="cls-1" transform="translate(30.97 25.35)">AUTHORIZED TRAINING CENTER</text>
      <text class="cls-2" transform="translate(32.07 16.27)">AUTODESK</text>
      <path class="cls-3" d="M-39.67,334.58l16.92-10.48H-14a.51.51,0,0,1,.51.51.44.44,0,0,1-.24.43L-22,330a1.69,1.69,0,0,0-.73,1.45v3.13H-12.2V316.41a.65.65,0,0,0-.67-.64H-22.94L-39.82,326.2v8.38Z" transform="translate(39.82 -309.02)"/>
      <rect class="cls-3" x="0.16" y="29.19" width="119.12" height="1.05" rx="0.53"/>
    </g>
    <g>
      <path class="cls-4" d="M417.18,309.42h64.63v21.06H412V314.56A5.16,5.16,0,0,1,417.18,309.42Z" transform="translate(39.82 -309.02)"/>
      <path class="cls-5" d="M417.26,309h64.63v21.06H412.12V314.16A5.15,5.15,0,0,1,417.26,309Z" transform="translate(39.82 -309.02)"/>
      <path class="cls-4" d="M412.18,332.15h69.34v4.92a4.91,4.91,0,0,1-4.88,4.91H412.18Z" transform="translate(39.82 -309.02)"/>
      <path class="cls-5" d="M412.13,332.15H481.9v4.92A4.93,4.93,0,0,1,477,342H412.13Z" transform="translate(39.82 -309.02)"/>
      <path class="cls-6" d="M445.23,322.21l-.21-5.15c0-.15.12-.09.12-.09a1.3,1.3,0,0,0,.72,0s.13-.05.11.1l-.22,5.14Z" transform="translate(39.82 -309.02)"/>
      <path class="cls-6" d="M446,314.48a.52.52,0,0,1-.52.53.53.53,0,0,1-.53-.53.52.52,0,0,1,.5-.52h.05a.52.52,0,0,1,.5.52" transform="translate(39.82 -309.02)"/>
      <path class="cls-6" d="M445.68,315.59l2.6-1.3c.3-.17.45-.2.51-.11s0,.25-.25.41l-2.81,1.8a.55.55,0,0,1-.29.09.64.64,0,0,1-.28-.09l-2.37-1.63c-.24-.18-.43-.28-.3-.43s.24,0,.57.14l2.23,1.11a.43.43,0,0,0,.39,0" transform="translate(39.82 -309.02)"/>
      <path class="cls-6" d="M436.25,321a2.82,2.82,0,0,0,1.05.61s.09,0,.09.08a.09.09,0,0,1-.09.09,2.55,2.55,0,0,1-2-.63,11.32,11.32,0,0,1-1.29-1.43.29.29,0,0,1-.07-.17.22.22,0,0,1,.16-.23h.05c.44-.1,1-.41,1-.77s-.41-.64-1.09-.64h-.53v3.75h-.93v-4.35h1.58c1.23,0,2,.4,2,1.17,0,.5-.53.95-1.09,1.17a7.13,7.13,0,0,0,1.24,1.36" transform="translate(39.82 -309.02)"/>
      <path class="cls-6" d="M422.42,321.72c-1.71,0-2.59-.81-2.59-2.15s.85-2.32,2.81-2.32a5.93,5.93,0,0,1,1.19.12l-.09.68a4.93,4.93,0,0,0-1.19-.16,1.55,1.55,0,0,0-1.73,1.61c0,1,.64,1.55,1.79,1.55a3.66,3.66,0,0,0,1.19-.21l.08.67a5.09,5.09,0,0,1-1.46.21" transform="translate(39.82 -309.02)"/>
      <polygon class="cls-6" points="466.45 12.64 466.45 8.29 469.45 8.29 469.45 8.88 467.38 8.83 467.38 10.17 469.35 10.11 469.35 10.69 467.38 10.64 467.38 12.08 469.45 12.03 469.45 12.64 466.45 12.64"/>
      <polygon class="cls-6" points="480.69 8.92 480.75 12.64 479.82 12.64 479.87 8.92 478.28 8.92 478.28 8.29 482.29 8.29 482.29 8.92 480.69 8.92"/>
      <path class="cls-6" d="M457.42,321.73c-1.72,0-2.53-.92-2.53-2.21a2.42,2.42,0,0,1,2.7-2.28c1.56,0,2.56.76,2.56,2.2s-1.23,2.29-2.73,2.29m.09-3.9a1.58,1.58,0,0,0-1.63,1.63,1.51,1.51,0,0,0,1.6,1.68,1.56,1.56,0,0,0,1.67-1.63A1.53,1.53,0,0,0,457.51,317.83Z" transform="translate(39.82 -309.02)"/>
      <path class="cls-6" d="M451,319.77c-.14,0-.18-.17-.18-.21a.21.21,0,0,1,.16-.23h.05c.43-.1,1-.41,1-.77s-.41-.64-1.08-.64h-.54v3.75h-.93v-4.35h1.58c1.24,0,2,.4,2,1.17a1.1,1.1,0,0,1-.47.8s-.05,0-.07.06a2.29,2.29,0,0,1-.55.31,2.11,2.11,0,0,1-.9.12Z" transform="translate(39.82 -309.02)"/>
      <path class="cls-6" d="M466.05,321a2.82,2.82,0,0,0,1.05.61s.09,0,.09.08a.09.09,0,0,1-.09.09,2.59,2.59,0,0,1-2.05-.63,11.72,11.72,0,0,1-1.28-1.43.29.29,0,0,1-.07-.17.22.22,0,0,1,.16-.23h.05c.44-.1,1-.41,1-.77s-.41-.64-1.09-.64h-.54v3.75h-.92v-4.35H464c1.23,0,1.95.4,1.95,1.17,0,.5-.54.95-1.1,1.17a7.49,7.49,0,0,0,1.25,1.36" transform="translate(39.82 -309.02)"/>
      <polygon class="cls-6" points="510.57 8.92 510.64 12.64 509.71 12.64 509.76 8.92 508.18 8.92 508.18 8.29 512.18 8.29 512.18 8.92 510.57 8.92"/>
      <rect class="cls-6" x="459.67" y="14.78" width="51.82" height="0.07"/>
      <path class="cls-6" d="M433.05,325.7h.23l.46,1.21h-.22l-.12-.32h-.48l-.12.32h-.21Zm-.07.73h.37l-.19-.52h0Z" transform="translate(39.82 -309.02)"/>
      <path class="cls-6" d="M434.78,325.7h.53c.35,0,.42.22.42.37s-.07.38-.42.37H435v.47h-.21Zm.21.57h.31a.19.19,0,0,0,.21-.2c0-.16-.09-.2-.21-.2H435Z" transform="translate(39.82 -309.02)"/>
      <polygon class="cls-6" points="476 16.68 476.87 16.68 476.87 16.86 476.21 16.86 476.21 17.18 476.82 17.18 476.82 17.35 476.21 17.35 476.21 17.71 476.88 17.71 476.88 17.89 476 17.89 476 16.68"/>
      <path class="cls-6" d="M437.8,325.7H438l.47,1.21h-.23l-.11-.32h-.49l-.11.32h-.22Zm-.07.73h.37l-.18-.52h0Z" transform="translate(39.82 -309.02)"/>
      <path class="cls-6" d="M438.87,325.7h.58c.26,0,.4.12.4.32a.29.29,0,0,1-.2.31h0c.07,0,.18.07.18.26a.62.62,0,0,0,.06.32h-.22a.28.28,0,0,1,0-.18c0-.22,0-.32-.24-.32h-.31v.5h-.21Zm.21.55h.35a.19.19,0,0,0,.21-.2c0-.15-.1-.18-.21-.18h-.35Z" transform="translate(39.82 -309.02)"/>
      <path class="cls-6" d="M440.45,326.48c0,.18.14.26.31.26s.26-.1.26-.19a.15.15,0,0,0-.1-.15l-.36-.1a.3.3,0,0,1-.27-.3c0-.25.22-.36.44-.36s.47.13.47.39H441c0-.16-.11-.22-.26-.22s-.22,0-.22.16.06.13.14.16l.35.09a.32.32,0,0,1,.24.31c0,.27-.24.38-.48.38s-.5-.13-.51-.43Z" transform="translate(39.82 -309.02)"/>
      <path class="cls-6" d="M442.77,326.27a.58.58,0,1,1-1.16,0,.58.58,0,0,1,.58-.63.59.59,0,0,1,.58.63m-.95,0c0,.24.11.47.37.47s.37-.23.37-.47-.11-.46-.37-.46S441.82,326,441.82,326.27Z" transform="translate(39.82 -309.02)"/>
      <polygon class="cls-6" points="482.99 16.68 483.21 16.68 483.77 17.57 483.77 17.57 483.77 16.68 483.97 16.68 483.97 17.89 483.75 17.89 483.19 17 483.19 17 483.19 17.89 482.99 17.89 482.99 16.68"/>
      <polygon class="cls-6" points="485.04 16.68 485.26 16.68 485.57 17.64 485.57 17.64 485.88 16.68 486.1 16.68 485.68 17.89 485.45 17.89 485.04 16.68"/>
      <path class="cls-6" d="M446.64,325.67h.21v.7c0,.17,0,.36.29.36s.28-.19.28-.36v-.7h.22v.77a.5.5,0,0,1-1,0Z" transform="translate(39.82 -309.02)"/>
      <polygon class="cls-6" points="487.95 16.68 488.82 16.68 488.82 16.86 488.16 16.86 488.16 17.18 488.77 17.18 488.77 17.35 488.16 17.35 488.16 17.71 488.83 17.71 488.83 17.89 487.95 17.89 487.95 16.68"/>
      <path class="cls-6" d="M450.15,325.7h.59c.22,0,.36.1.36.3a.27.27,0,0,1-.17.26h0a.29.29,0,0,1,.22.31c0,.19-.13.34-.44.34h-.56Zm.21.5h.35c.1,0,.18-.05.18-.16s-.07-.17-.18-.17h-.35Zm0,.54h.38a.18.18,0,0,0,.2-.2c0-.11-.07-.18-.2-.18h-.38Z" transform="translate(39.82 -309.02)"/>
      <path class="cls-6" d="M451.57,325.67h.21v.7c0,.17,0,.36.29.36s.28-.19.28-.36v-.7h.21v.77a.44.44,0,0,1-.49.47.44.44,0,0,1-.5-.47Z" transform="translate(39.82 -309.02)"/>
      <path class="cls-6" d="M453.19,326.48c0,.18.14.26.31.26s.26-.1.26-.19a.16.16,0,0,0-.1-.15l-.37-.1a.3.3,0,0,1-.26-.3c0-.25.22-.36.44-.36s.46.13.46.39h-.21c0-.16-.11-.22-.26-.22s-.22,0-.22.16.06.13.14.16l.35.09a.32.32,0,0,1,.24.31c0,.27-.24.38-.48.38s-.5-.13-.51-.43Z" transform="translate(39.82 -309.02)"/>
      <rect class="cls-6" x="494.2" y="16.68" width="0.21" height="1.21"/>
      <polygon class="cls-6" points="494.94 16.68 495.16 16.68 495.71 17.57 495.72 17.57 495.72 16.68 495.92 16.68 495.92 17.89 495.7 17.89 495.14 17 495.14 17 495.14 17.89 494.94 17.89 494.94 16.68"/>
      <polygon class="cls-6" points="496.4 16.68 497.27 16.68 497.27 16.86 496.61 16.86 496.61 17.18 497.23 17.18 497.23 17.35 496.61 17.35 496.61 17.71 497.29 17.71 497.29 17.89 496.4 17.89 496.4 16.68"/>
      <path class="cls-6" d="M458.05,326.48c0,.18.14.26.31.26s.26-.1.26-.19a.16.16,0,0,0-.11-.15l-.36-.1a.31.31,0,0,1-.27-.3c0-.25.23-.36.45-.36s.46.13.46.39h-.21c0-.16-.11-.22-.26-.22s-.22,0-.22.16,0,.13.14.16l.35.09a.32.32,0,0,1,.24.31c0,.27-.24.38-.49.38s-.5-.13-.5-.43Z" transform="translate(39.82 -309.02)"/>
      <path class="cls-6" d="M459.39,326.48c0,.18.14.26.31.26s.25-.1.25-.19a.15.15,0,0,0-.1-.15l-.36-.1a.31.31,0,0,1-.27-.3c0-.25.23-.36.45-.36s.46.13.46.39h-.21c0-.16-.12-.22-.26-.22s-.22,0-.22.16.05.13.14.16l.35.09a.32.32,0,0,1,.24.31c0,.27-.24.38-.49.38s-.5-.13-.5-.43Z" transform="translate(39.82 -309.02)"/>
      <path class="cls-6" d="M474.34,317.81v-.05a.51.51,0,0,0-.15-.33.51.51,0,0,0-.7,0,.52.52,0,0,0-.14.35.48.48,0,0,0,.14.35.48.48,0,0,0,.7,0,.5.5,0,0,0,.15-.32" transform="translate(39.82 -309.02)"/>
      <path class="cls-6" d="M473.84,317.39a.41.41,0,0,0-.28.11.38.38,0,0,0-.12.28.36.36,0,0,0,.12.28.39.39,0,0,0,.56,0,.36.36,0,0,0,.12-.28.38.38,0,0,0-.12-.28.41.41,0,0,0-.28-.11" transform="translate(39.82 -309.02)"/>
      <path class="cls-6" d="M473.72,317.75h.11c.07,0,.1,0,.1-.07s0-.08-.11-.08h-.1Zm.35.3h-.13l0-.09a.26.26,0,0,0-.07-.1.12.12,0,0,0-.09,0h0v.22h-.1v-.53h.26a.21.21,0,0,1,.12,0,.15.15,0,0,1,0,.11.17.17,0,0,1,0,.1.19.19,0,0,1-.11.05h0l.05,0a.35.35,0,0,1,.06.09Z" transform="translate(39.82 -309.02)"/>
      <text class="cls-7" transform="translate(457.41 29.72)">A</text>
      <text class="cls-7" transform="translate(460.11 29.72)">U</text>
      <text class="cls-7" transform="translate(462.72 29.72)">T</text>
      <text class="cls-7" transform="translate(465.06 29.72)">H</text>
      <text class="cls-7" transform="translate(467.76 29.72)">O</text>
      <text class="cls-7" transform="translate(470.45 29.72)">R</text>
      <text class="cls-7" transform="translate(473.15 29.72)">I</text>
      <text class="cls-7" transform="translate(474.45 29.72)">Z</text>
      <text class="cls-7" transform="translate(476.79 29.72)">E</text>
      <text class="cls-7" transform="translate(479.13 29.72)">D </text>
      <text class="cls-7" transform="translate(483.04 29.72)">T</text>
      <text class="cls-7" transform="translate(485.38 29.72)">E</text>
      <text class="cls-7" transform="translate(487.72 29.72)">S</text>
      <text class="cls-7" transform="translate(490.25 29.72)">T</text>
      <text class="cls-7" transform="translate(492.59 29.72)">I</text>
      <text class="cls-7" transform="translate(493.88 29.72)">N</text>
      <text class="cls-7" transform="translate(496.66 29.72)">G </text>
      <text class="cls-7" transform="translate(500.48 29.72)">C</text>
      <text class="cls-7" transform="translate(503.09 29.72)">E</text>
      <text class="cls-7" transform="translate(505.43 29.72)">N</text>
      <text class="cls-7" transform="translate(508.22 29.72)">T</text>
      <text class="cls-7" transform="translate(510.56 29.72)">E</text>
      <text class="cls-7" transform="translate(512.9 29.72)">R</text>
    </g>
    <g>
      <text class="cls-1" transform="translate(177.64 25.95)">AUTHORIZED CERTIFICATION CENTER</text>
      <text class="cls-2" transform="translate(177.95 16.86)">AUTODESK</text>
      <path class="cls-3" d="M106.21,335.17l16.91-10.48h8.78a.51.51,0,0,1,.51.52.46.46,0,0,1-.24.43l-8.31,5a1.69,1.69,0,0,0-.73,1.45v3.12h10.56V317a.65.65,0,0,0-.68-.65H122.94L106.06,326.8v8.38h.15Z" transform="translate(39.82 -309.02)"/>
      <rect class="cls-3" x="146.04" y="29.79" width="132.16" height="1.05" rx="0.53"/>
    </g>
    <g>
      <text class="cls-1" transform="translate(334.66 25.95)">AUTHORIZED ACADEMIC PARTNER </text>
      <text class="cls-2" transform="translate(334.97 16.86)">AUTODESK</text>
      <path class="cls-3" d="M263.23,335.17l16.92-10.47h8.77a.51.51,0,0,1,.51.51.45.45,0,0,1-.24.43l-8.31,5a1.69,1.69,0,0,0-.73,1.45v3.12H290.7V317a.65.65,0,0,0-.67-.65H280L263.08,326.8v8.38h.15Z" transform="translate(39.82 -309.02)"/>
      <rect class="cls-3" x="303.06" y="29.79" width="126.07" height="1.05" rx="0.53"/>
    </g>
  </g>
</svg>
