<svg id="Capa_1" data-name="Capa 1" xmlns="http://www.w3.org/2000/svg" width="34.82mm" height="6.33mm" viewBox="0 0 98.69 17.96">
  <defs>
    <style>
      .cls-1, .cls-2 {
        fill: #fff;
      }

      .cls-2 {
        font-size: 16.52px;
        font-family: Rubik-ExtraBold, Rubik ExtraBold;
        font-weight: 800;
      }

      .cls-3 {
        letter-spacing: -0.03em;
      }

      .cls-4 {
        letter-spacing: -0.03em;
      }

      .cls-5 {
        letter-spacing: 0em;
      }
    </style>
  </defs>
  <g>
    <path class="cls-1" d="M284.85,528.33a.42.42,0,0,1-.16-.39c0-1.55,0-3.1,0-4.65a2.33,2.33,0,0,1,.12-.49c2.87-1.78,5.8-3.49,8.59-5.4a7.6,7.6,0,0,1,5.18-1.42,31.8,31.8,0,0,0,3.52,0c.55,0,.75.21.75.76q0,5.6,0,11.17c0,.42-.1.55-.53.54-2,0-4,0-5.95,0-.42,0-.54-.09-.53-.53,0-2.61-.27-2,2-3.4l3.73-2.23c.19-.11.47-.2.39-.5s-.38-.27-.63-.27c-1.6,0-3.2,0-4.8,0a2.15,2.15,0,0,0-1.25.37q-5,3.12-10,6.22C285.12,528.2,285,528.26,284.85,528.33Z" transform="translate(-284.69 -514.34)"/>
    <text class="cls-2" transform="translate(22.81 13.83)"><tspan class="cls-3">A</tspan><tspan x="9.65" y="0">U</tspan><tspan class="cls-4" x="20.34" y="0">T</tspan><tspan class="cls-5" x="28.1" y="0">ODESK</tspan></text>
  </g>
</svg>
