<svg id="Capa_1" data-name="Capa 1" xmlns="http://www.w3.org/2000/svg" width="7.9mm" height="10.96mm" viewBox="0 0 22.4 31.08">
  <defs>
    <style>
      .cls-1 {
        fill: #cac9c9;
      }
    </style>
  </defs>
  <path class="cls-1" d="M269.47,565.7c-1.39-7-1.33-6.66-1.33-6.69a3,3,0,0,0-1.52-2.06,3.5,3.5,0,0,0-.81-.32l-3.4-1.18-1.13-.77v-.89a6,6,0,0,0,2.9-4.51,1.73,1.73,0,0,0,1.77-2.42v-3.71c0-2.69-1.46-3.62-1.9-3.84a7.81,7.81,0,0,0-9.35-1.69h0a7.76,7.76,0,0,0-1.48,1,.46.46,0,0,0,0,.65.45.45,0,0,0,.64,0,6.94,6.94,0,0,1,9.59.67.38.38,0,0,0,.19.14c.06,0,1.44.61,1.44,3V546a1.87,1.87,0,0,0-.82-.15v-1.49a.74.74,0,0,0-.66-.73,1.77,1.77,0,0,1-1.42-1,.93.93,0,0,0-1.4-.25,7.31,7.31,0,0,1-6,1.59,2.24,2.24,0,0,0-2.53,1.86,1.89,1.89,0,0,0-.85.15c0-1.57-.18-3.27,1.1-5.23a.45.45,0,1,0-.76-.49c-1.75,2.67-1.12,5.06-1.25,6.56a1.73,1.73,0,0,0,1.77,2.42,5.92,5.92,0,0,0,1.59,3.46h0a6.15,6.15,0,0,0,1.48,1.15v.78l-1.13.78c-4.44,1.54-4,1.36-4.35,1.58a3,3,0,0,0-1.35,1.85c0,.15,0-.14-1.36,6.82a2.57,2.57,0,0,0,0,.64,1.66,1.66,0,0,0,1.86,1.51h12.51a.47.47,0,0,0,.46-.46.46.46,0,0,0-.46-.45h-9.31v-4.18a.45.45,0,0,0-.45-.45.46.46,0,0,0-.46.45v4.18H249c-.71,0-1.05-.31-.94-1.08,1.24-6.09,1.25-6.58,1.45-7.08a2.05,2.05,0,0,1,1.19-1.16c.1,0,0,0,.38-.11l1.56-.54,1.09,2a.45.45,0,0,0,.8-.43l-1-1.89.69-.24,3.64,6.71a.56.56,0,0,0,.94.07c0-.06-.2.37,3.67-6.78l.7.24-3.69,6.82a1.28,1.28,0,0,1-2.26,0l-1.66-3.07a.46.46,0,1,0-.8.44l1.66,3.06a2.19,2.19,0,0,0,3.86,0L264,557c1.63.57,1.53.54,1.56.54l.38.12a2.66,2.66,0,0,1,.55.32,2.06,2.06,0,0,1,.73,1.11c0,.08,1.37,6.78,1.38,7,0,.57-.23.89-1,.89h-2.29v-4.18a.46.46,0,0,0-.46-.45.45.45,0,0,0-.45.45v4.18h-.82a.45.45,0,0,0-.46.45.46.46,0,0,0,.46.46h4a1.66,1.66,0,0,0,1.86-1.51A2.59,2.59,0,0,0,269.47,565.7Zm-5.25-18.92a.81.81,0,1,1,0,1.59v-1.59Zm-12,1.59a.89.89,0,0,1-1-.8.88.88,0,0,1,1-.79Zm2.43-3.46a8.22,8.22,0,0,0,6.69-1.8h0a2.7,2.7,0,0,0,2,1.42v1.61l-.52.31a1.19,1.19,0,0,0-1-.52h-2.09a1.2,1.2,0,0,0-1.09.73h-.85a1.2,1.2,0,0,0-1.09-.73h-2.09a1.18,1.18,0,0,0-1,.52l-.52-.31A1.34,1.34,0,0,1,254.64,544.91Zm7.45,2.22v.9a.72.72,0,0,1-.72.72h-1.19a.72.72,0,0,1-.72-.72v-.9h0a.27.27,0,0,1,.27-.27h2.09A.28.28,0,0,1,262.09,547.13Zm-5.12,0v.9a.72.72,0,0,1-.72.72h-1.19a.72.72,0,0,1-.72-.72v-.9a.28.28,0,0,1,.27-.27h2.09A.28.28,0,0,1,257,547.13ZM254.35,552c-1.47-1.72-1.19-3.39-1.23-4.74l.31.18V548a1.63,1.63,0,0,0,1.63,1.63h1.19a1.63,1.63,0,0,0,1.63-1.63v-.45h.67V548a1.63,1.63,0,0,0,1.63,1.63h1.19A1.63,1.63,0,0,0,263,548v-.64l.31-.18v1.42a5.09,5.09,0,0,1-5.1,5.09h-.06a5.31,5.31,0,0,1-1.33-.19A5.16,5.16,0,0,1,254.35,552Zm4,5.09-2.07-2.3v-.44a6.13,6.13,0,0,0,2.86.27c.25,0,.53-.1.69-.14s.26-.07.59-.2v.51Zm.51,1.62-.2.42H258l-.2-.42.51-.38Zm-1.71,1.25-.29-.53.23-.17.17.35Zm-.72-1.34L255,556l.72-.49,1.92,2.13Zm1.92,3.56-.6-1.11.33-1h.54l.33,1Zm1.2-2.22-.11-.35.17-.35.23.17Zm.72-1.34c-.11-.09-1.1-.82-1.25-.92l1.92-2.13.72.49Z" transform="translate(-247.1 -536.77)"/>
</svg>
