<svg id="Capa_1" data-name="Capa 1" xmlns="http://www.w3.org/2000/svg" width="9.49mm" height="7.76mm" viewBox="0 0 26.89 22">
  <defs>
    <style>
      .cls-1 {
        fill: #cac9c9;
      }
    </style>
  </defs>
  <g>
    <path class="cls-1" d="M235.71,570.1H214.93a1.79,1.79,0,0,0-1.83,1.83V578a.61.61,0,1,0,1.22,0v-6.11a.58.58,0,0,1,.61-.61h20.78a.58.58,0,0,1,.61.61V586.6a.57.57,0,0,1-.61.61H221a.61.61,0,0,0,0,1.22h1.23v1.84a.58.58,0,0,1-.61.61H221a.61.61,0,1,0,0,1.22h8.56a.61.61,0,0,0,0-1.22H229a.58.58,0,0,1-.61-.61v-1.84h7.33a1.79,1.79,0,0,0,1.83-1.83V571.93A1.79,1.79,0,0,0,235.71,570.1Zm-12.34,20.78a1.89,1.89,0,0,0,.12-.61v-1.84h3.67v1.84a1.89,1.89,0,0,0,.12.61Z" transform="translate(-210.66 -570.1)"/>
    <path class="cls-1" d="M234.49,583.54H221a.62.62,0,0,0,0,1.23h13.45a.62.62,0,0,0,0-1.23Z" transform="translate(-210.66 -570.1)"/>
    <path class="cls-1" d="M217.38,579.88h-4.89a1.79,1.79,0,0,0-1.83,1.83v8.56a1.79,1.79,0,0,0,1.83,1.83h4.89a1.79,1.79,0,0,0,1.83-1.83v-8.56A1.79,1.79,0,0,0,217.38,579.88Zm.61,10.39a.58.58,0,0,1-.61.61h-4.89a.58.58,0,0,1-.61-.61v-8.56a.57.57,0,0,1,.61-.61h4.89a.58.58,0,0,1,.61.61Z" transform="translate(-210.66 -570.1)"/>
  </g>
</svg>
