<svg id="Capa_1" data-name="Capa 1" xmlns="http://www.w3.org/2000/svg" width="9.29mm" height="9.12mm" viewBox="0 0 26.33 25.84">
  <defs>
    <style>
      .cls-1 {
        fill: #cac9c9;
      }
    </style>
  </defs>
  <path class="cls-1" d="M250.52,547.55H225.06a.44.44,0,0,0-.44.44v17.56a.44.44,0,0,0,.44.44H233a3.18,3.18,0,0,0,.06.43l-2.41,2.87a.44.44,0,0,0,.05.62.61.61,0,0,0,.18.09l2.65.63,1.09,2.5a.42.42,0,0,0,.57.23.41.41,0,0,0,.17-.12l2.4-2.86h.08l2.4,2.86a.44.44,0,0,0,.62.06.52.52,0,0,0,.12-.17l1.08-2.5,2.65-.63a.44.44,0,0,0,.33-.53.51.51,0,0,0-.09-.18l-2.41-2.87a3.18,3.18,0,0,0,.06-.43h7.93a.44.44,0,0,0,.43-.44V548A.44.44,0,0,0,250.52,547.55Zm-15.39,24.58-.89-2a.44.44,0,0,0-.3-.25l-2.17-.52,1.57-1.88,0,.06c.06.13.12.26.19.38l.09.15c.06.1.12.2.19.3a2.43,2.43,0,0,0,.14.2l.19.22.21.22.17.16.13.13.15.11.06,0,.12.08.19.13a3.84,3.84,0,0,0,.39.22l.15.08.35.15.1,0,.51.14h0Zm3.48-2.72a4.07,4.07,0,0,1-.61.08h-.43a4.25,4.25,0,0,1-.61-.08h0l-.23-.06-.1,0-.16-.06-.16,0-.1-.05-.21-.1,0,0a3.84,3.84,0,0,1-.52-.33,2.75,2.75,0,0,1-.26-.22l-.28-.27-.11-.12a3.17,3.17,0,0,1-.33-.46l-.05-.07a4.3,4.3,0,0,1-.24-.48l0-.05a4.06,4.06,0,0,1-.19-.59s0,0,0,0a4.28,4.28,0,0,1-.09-.87,4,4,0,0,1,7.9,0,3.71,3.71,0,0,1-.1.88v0a4.14,4.14,0,0,1-.18.6l0,0a3.62,3.62,0,0,1-.25.48s0,.05,0,.08a3.79,3.79,0,0,1-.34.45l-.1.12-.29.28-.25.21-.26.18h0l-.24.14-.05,0-.2.1-.11.05-.15,0-.17.06-.09,0-.23.06Zm5.2-.1-2.17.52a.42.42,0,0,0-.3.25l-.89,2-1.58-1.88h0a2.73,2.73,0,0,0,.51-.14l.1,0,.36-.15.15-.07a4,4,0,0,0,.39-.23l.18-.12.13-.09.06-.06a.71.71,0,0,0,.14-.1l.14-.13.17-.16.21-.22.18-.22.15-.2.19-.29.09-.16c.07-.12.13-.25.19-.38a.14.14,0,0,1,0-.06Zm6.27-4.2h-7.49a4.82,4.82,0,0,0-9.61,0H225.5V548.43h24.58Z" transform="translate(-224.62 -547.55)"/>
  <path class="cls-1" d="M226.82,549.31a.44.44,0,0,0-.44.44v1.75h.87v-1.31h1.32v-.88Z" transform="translate(-224.62 -547.55)"/>
  <path class="cls-1" d="M248.76,549.31H247v.88h1.32v1.31h.88v-1.75A.44.44,0,0,0,248.76,549.31Z" transform="translate(-224.62 -547.55)"/>
  <path class="cls-1" d="M248.32,562v1.31H247v.88h1.76a.44.44,0,0,0,.44-.44V562Z" transform="translate(-224.62 -547.55)"/>
  <path class="cls-1" d="M227.25,563.35V562h-.87v1.75a.43.43,0,0,0,.44.44h1.75v-.88Z" transform="translate(-224.62 -547.55)"/>
  <rect class="cls-1" x="7.9" y="4.83" width="10.53" height="0.88"/>
  <rect class="cls-1" x="5.27" y="7.46" width="15.8" height="0.88"/>
  <path class="cls-1" d="M237.79,562.48a3.07,3.07,0,1,0,3.07,3.07A3.06,3.06,0,0,0,237.79,562.48Zm0,5.26a2.2,2.2,0,1,1,2.19-2.19A2.2,2.2,0,0,1,237.79,567.74Z" transform="translate(-224.62 -547.55)"/>
</svg>
