<svg id="Capa_1" data-name="Capa 1" xmlns="http://www.w3.org/2000/svg" width="11.43mm" height="9.8mm" viewBox="0 0 32.39 27.78">
  <defs>
    <style>
      .cls-1 {
        fill: #fdcc75;
      }
    </style>
  </defs>
  <g>
    <path class="cls-1" d="M305.82,434.77H292c-.33,0-.44-.09-.49-.45-.31-2.39-.65-4.77-1-7.16-.31-2.17-.61-4.35-.91-6.52a1.26,1.26,0,0,1,.47-1.34,1,1,0,0,1,1.29.12l5.83,4.86c1,.83,1.8.68,2.5-.48,1.61-2.7,3.25-5.38,4.83-8.1a1.37,1.37,0,0,1,2.49,0c1.58,2.73,3.23,5.43,4.85,8.13.68,1.13,1.51,1.29,2.48.47l5.86-4.89a1,1,0,0,1,1.26-.11,1.24,1.24,0,0,1,.49,1.26c0,.34-.09.67-.13,1l-1.2,8.68c-.2,1.4-.41,2.79-.58,4.19,0,.31-.16.36-.39.35-.45,0-.9,0-1.35,0Z" transform="translate(-289.63 -414.9)"/>
    <path class="cls-1" d="M305.81,437.41h13.84c.33,0,.41.1.41.46,0,1,0,2,0,3,0,1.17-.62,1.85-1.66,1.85H293.25a1.61,1.61,0,0,1-1.66-1.84c0-1,0-2,0-3,0-.32.09-.39.36-.39Z" transform="translate(-289.63 -414.9)"/>
  </g>
</svg>
