<svg id="Capa_1" data-name="Capa 1" xmlns="http://www.w3.org/2000/svg" width="113.56mm" height="19.55mm" viewBox="0 0 321.89 55.41">
  <defs>
    <style>
      .cls-1, .cls-3 {
        fill: #fff;
      }

      .cls-2 {
        fill: none;
      }

      .cls-3 {
        fill-rule: evenodd;
      }

      .cls-4 {
        fill: #cac9c9;
      }
    </style>
  </defs>
  <g>
    <g>
      <path class="cls-1" d="M-81.28,514.33a26.89,26.89,0,0,1-26.85-26.85,26.88,26.88,0,0,1,26.85-26.84,26.87,26.87,0,0,1,26.84,26.84A26.88,26.88,0,0,1-81.28,514.33Zm0-52.94a26.12,26.12,0,0,0-26.1,26.09,26.13,26.13,0,0,0,26.1,26.1,26.12,26.12,0,0,0,26.09-26.1A26.11,26.11,0,0,0-81.28,461.39Z" transform="translate(108.13 -458.91)"/>
      <path class="cls-1" d="M-100.5,479.71l-2.2-2.07a23,23,0,0,0-1.81,5.78l3-.28A20.58,20.58,0,0,1-100.5,479.71Z" transform="translate(108.13 -458.91)"/>
      <path class="cls-1" d="M-101.78,490.56l-3-.66a23.12,23.12,0,0,0,1.39,5.89l2.4-1.74A21.88,21.88,0,0,1-101.78,490.56Z" transform="translate(108.13 -458.91)"/>
      <path class="cls-1" d="M-94.2,471.27l-.9-2.89a23.83,23.83,0,0,0-4.1,3.8l2.68,1.26A19.86,19.86,0,0,1-94.2,471.27Z" transform="translate(108.13 -458.91)"/>
      <path class="cls-1" d="M-62,495.14l2.22,2.05A22.89,22.89,0,0,0-58,491.26l-2.94.31A20.35,20.35,0,0,1-62,495.14Z" transform="translate(108.13 -458.91)"/>
      <path class="cls-1" d="M-65.27,474.32l2.87-.95a24.5,24.5,0,0,0-4.09-4.24l-1.19,2.71A20.91,20.91,0,0,1-65.27,474.32Z" transform="translate(108.13 -458.91)"/>
      <path class="cls-1" d="M-84.55,467l.64-3a23.21,23.21,0,0,0-5.47,1.29l1.71,2.41A20.81,20.81,0,0,1-84.55,467Z" transform="translate(108.13 -458.91)"/>
      <path class="cls-1" d="M-60.81,484.18l3,.63A23.26,23.26,0,0,0-59.27,479l-2.39,1.75A21.25,21.25,0,0,1-60.81,484.18Z" transform="translate(108.13 -458.91)"/>
      <path class="cls-1" d="M-68.36,503.69l.91,2.88a23.68,23.68,0,0,0,4.2-3.92l-2.68-1.24A21,21,0,0,1-68.36,503.69Z" transform="translate(108.13 -458.91)"/>
      <path class="cls-1" d="M-78.08,508l-.64,2.95a23,23,0,0,0,5.57-1.31l-1.73-2.41A20.71,20.71,0,0,1-78.08,508Z" transform="translate(108.13 -458.91)"/>
      <path class="cls-1" d="M-88.67,506.85l-2,2.26a23.61,23.61,0,0,0,5.5,1.63l-.31-3A19.92,19.92,0,0,1-88.67,506.85Z" transform="translate(108.13 -458.91)"/>
      <path class="cls-1" d="M-74,468.06l2-2.26a23,23,0,0,0-5.41-1.59l.3,3A19.91,19.91,0,0,1-74,468.06Z" transform="translate(108.13 -458.91)"/>
      <path class="cls-1" d="M-97.37,500.55l-2.87.94a24.1,24.1,0,0,0,4,4.23L-95,503A21.11,21.11,0,0,1-97.37,500.55Z" transform="translate(108.13 -458.91)"/>
      <g>
        <rect class="cls-2" x="23.18" y="35.06" width="0.96" height="0.4"/>
        <polygon class="cls-2" points="20.07 32.61 23.18 27.16 23.18 22.87 21.61 25.6 16.19 35.06 23.18 35.06 23.18 32.61 20.07 32.61"/>
        <polygon class="cls-2" points="24.14 35.06 26.15 35.06 26.15 17.67 24.14 21.19 24.14 35.06"/>
        <polygon class="cls-2" points="32.45 25.6 27.11 16.29 27.11 35.06 29.04 35.06 29.04 32.94 36.66 32.94 32.45 25.6"/>
        <path class="cls-1" d="M-74.82,484-81.1,473.3l-12.54,21.42h25.09Zm-11.7.51,1.57-2.74v4.29l-3.1,5.46h3.1V494h-7ZM-82,494h-2V480.1l2-3.51Zm2.88,0H-81V475.2l5.34,9.32,4.2,7.33h-7.62Z" transform="translate(108.13 -458.91)"/>
      </g>
      <polygon class="cls-3" points="28.97 24.07 32.89 30.5 28.97 30.5 28.97 24.07"/>
      <g>
        <path class="cls-1" d="M-93.15,497.1a1.29,1.29,0,0,0-.41-.33,1,1,0,0,0-.39-.07h0a1,1,0,0,0-.37.11l.21.46a.73.73,0,0,1,.34-.08h0a.54.54,0,0,1,.4.2.57.57,0,0,1,.15.46,1.07,1.07,0,0,1-.38.54,1,1,0,0,1-.59.29.57.57,0,0,1-.43-.2.6.6,0,0,1-.13-.23.61.61,0,0,1,0-.27l0-.12-.4-.28a1,1,0,0,0-.11.53,1.23,1.23,0,0,0,.34.63,1.2,1.2,0,0,0,.81.45h0a1.21,1.21,0,0,0,.83-.38,1.32,1.32,0,0,0,.42-.6,1,1,0,0,0,0-.57A1.5,1.5,0,0,0-93.15,497.1Z" transform="translate(108.13 -458.91)"/>
        <path class="cls-1" d="M-94.6,496a1,1,0,0,0,.14-.55,1.5,1.5,0,0,0-.21-.64,1.31,1.31,0,0,0-.45-.5,1,1,0,0,0-.57-.15h0a1.38,1.38,0,0,0-.62.21,1.19,1.19,0,0,0-.62.7,1.24,1.24,0,0,0,.17.94,1.18,1.18,0,0,0,.71.62.75.75,0,0,0,.26,0h.08a1.56,1.56,0,0,0,.59-.19A1.47,1.47,0,0,0-94.6,496Zm-1.08.09a.75.75,0,0,1-.24,0H-96a.53.53,0,0,1-.4-.3.58.58,0,0,1,0-.51.84.84,0,0,1,.43-.43,1.31,1.31,0,0,1,.3-.14.91.91,0,0,1,.26-.05h.09A.58.58,0,0,1-95,495a.64.64,0,0,1,0,.52,1,1,0,0,1-.46.44A1.07,1.07,0,0,1-95.68,496.07Z" transform="translate(108.13 -458.91)"/>
        <polygon class="cls-1" points="12.03 32.53 11.63 32.66 11.99 33.83 10.16 34.38 10.32 34.94 12.55 34.25 12.03 32.53"/>
        <polygon class="cls-1" points="11.58 30.09 11.21 30.15 11.43 31.48 10.73 31.59 10.54 30.39 10.23 30.44 10.42 31.65 9.82 31.74 9.61 30.44 9.28 30.49 9.58 32.36 11.88 32 11.58 30.09"/>
        <path class="cls-1" d="M-98.44,488.24a1.31,1.31,0,0,0,.67.17h0a1.48,1.48,0,0,0,.61-.13,1,1,0,0,0,.43-.39,1.68,1.68,0,0,0,.15-.69,2.15,2.15,0,0,0-.07-.6c0-.17-.15-.37-.22-.55l-1,0,0,1h.32v-.52h.1l.33.06a1.88,1.88,0,0,1,.14.29,1.36,1.36,0,0,1,0,.29.64.64,0,0,1-.22.5,1,1,0,0,1-.66.17h0a1,1,0,0,1-.63-.19.62.62,0,0,1-.21-.49.68.68,0,0,1,.1-.34.58.58,0,0,1,.19-.16l-.08-.56a1,1,0,0,0-.26.14.63.63,0,0,0-.21.3,1.88,1.88,0,0,0-.09.6,1.49,1.49,0,0,0,.11.65A1,1,0,0,0-98.44,488.24Z" transform="translate(108.13 -458.91)"/>
        <rect class="cls-1" x="-97.84" y="483.7" width="0.58" height="2.33" transform="translate(-449.97 -154.35) rotate(-80)"/>
        <path class="cls-1" d="M-97.38,483.75a1.53,1.53,0,0,0,.36.07h.09a1,1,0,0,0,.25,0,1.07,1.07,0,0,0,.5-.28,1.68,1.68,0,0,0,.31-.6,1.22,1.22,0,0,0,.05-.67,1,1,0,0,0-.27-.49,1.41,1.41,0,0,0-.61-.33,1.66,1.66,0,0,0-.45-.08,1,1,0,0,0-.48.12,1.26,1.26,0,0,0-.56.77,1.23,1.23,0,0,0,0,.95A1.19,1.19,0,0,0-97.38,483.75Zm-.44-1.39a.59.59,0,0,1,.33-.39.51.51,0,0,1,.25-.06l.23,0,.13,0a1,1,0,0,1,.58.34.57.57,0,0,1,.06.51.59.59,0,0,1-.33.39.66.66,0,0,1-.25,0l-.23,0-.16,0a.93.93,0,0,1-.55-.34A.55.55,0,0,1-97.82,482.36Z" transform="translate(108.13 -458.91)"/>
        <path class="cls-1" d="M-94.19,479.21a1.87,1.87,0,0,0,.19-.4.86.86,0,0,0,0-.36,1,1,0,0,0-.16-.38,1.52,1.52,0,0,0-.45-.39,1.6,1.6,0,0,0-.42-.2.69.69,0,0,0-.24-.05h-.17a.87.87,0,0,0-.37.13,1.25,1.25,0,0,0-.35.39l-.58.88,2,1.27Zm-1.74-.91a.61.61,0,0,1,.43-.33h.06a.68.68,0,0,1,.23.05,1.68,1.68,0,0,1,.32.17,1.6,1.6,0,0,1,.37.31.47.47,0,0,1,.08.31.86.86,0,0,1-.16.37l-.16.25-1.34-.87Z" transform="translate(108.13 -458.91)"/>
        <polygon class="cls-1" points="15.04 18.22 14.53 17.73 15.38 16.85 15.16 16.63 14.31 17.51 13.87 17.09 14.78 16.14 14.54 15.91 13.23 17.27 14.9 18.89 16.24 17.5 15.98 17.25 15.04 18.22"/>
        <rect class="cls-1" x="-91.15" y="472.91" width="0.58" height="2.33" transform="translate(-172.46 -428.69) rotate(-33.99)"/>
        <polygon class="cls-1" points="19.27 12.68 20.01 14.14 19.71 13.98 18.32 13.16 17.76 13.45 18.82 15.52 19.29 15.28 18.55 13.83 18.85 13.99 20.23 14.8 20.8 14.51 19.74 12.44 19.27 12.68"/>
        <path class="cls-1" d="M-85.78,471.57l.08.31.51-.15,0,.1,0,.33a1.19,1.19,0,0,1-.25.22.89.89,0,0,1-.26.12l-.21,0a.56.56,0,0,1-.33-.1.94.94,0,0,1-.36-.58.93.93,0,0,1,0-.66.61.61,0,0,1,.41-.34l.19,0a.51.51,0,0,1,.17,0,.53.53,0,0,1,.2.13l.51-.25a1.29,1.29,0,0,0-.21-.2.76.76,0,0,0-.4-.12,2.32,2.32,0,0,0-.54.1,1.68,1.68,0,0,0-.6.29,1.09,1.09,0,0,0-.32.53,1.37,1.37,0,0,0,0,.69,1.34,1.34,0,0,0,.32.59.9.9,0,0,0,.49.28.83.83,0,0,0,.22,0,1.72,1.72,0,0,0,.48-.08,1.82,1.82,0,0,0,.56-.24c.14-.1.3-.25.46-.37l-.27-.94Z" transform="translate(108.13 -458.91)"/>
        <polygon class="cls-1" points="24.89 13.05 24.84 12.34 26.05 12.26 26.03 11.95 24.82 12.04 24.77 11.42 26.09 11.33 26.06 11 24.18 11.13 24.34 13.46 26.26 13.32 26.24 12.95 24.89 13.05"/>
        <polygon class="cls-1" points="27.73 12 28.5 13.4 29.13 13.45 29.29 11.13 28.77 11.09 28.65 12.72 28.48 12.43 27.71 11.01 27.08 10.97 26.92 13.29 27.45 13.33 27.56 11.71 27.73 12"/>
        <rect class="cls-1" x="-78.86" y="471.18" width="2.33" height="0.58" transform="translate(-414.76 -161.01) rotate(-78.06)"/>
        <polygon class="cls-1" points="32.47 12.28 33.7 12.75 33.82 12.44 32.05 11.76 31.22 13.94 33.02 14.63 33.15 14.29 31.89 13.8 32.14 13.14 33.28 13.58 33.39 13.29 32.25 12.85 32.47 12.28"/>
        <path class="cls-1" d="M-71.78,473a.51.51,0,0,0-.13-.29,2,2,0,0,0-.43-.31l-1-.58-1.13,2,.5.28.45-.81.11-.06.09.05a.41.41,0,0,1,.18.19.72.72,0,0,1,0,.29l-.07.79.63.34,0-.65s0-.09,0-.17,0-.14,0-.15a.5.5,0,0,0-.11-.16l-.25-.27.35.1a.87.87,0,0,0,.26,0h0a.57.57,0,0,0,.29-.08.67.67,0,0,0,.21-.23A.64.64,0,0,0-71.78,473Zm-.62.13a.38.38,0,0,1-.16.15l-.13,0-.18,0-.13-.05-.39-.22.35-.63.4.21a.61.61,0,0,1,.27.26A.35.35,0,0,1-72.4,473.1Z" transform="translate(108.13 -458.91)"/>
        <path class="cls-1" d="M-69.66,475.81a1.18,1.18,0,0,0,.31-.88,1.22,1.22,0,0,0-.51-.81,1.32,1.32,0,0,0-.76-.32h-.13a1.18,1.18,0,0,0-.81.49,1.4,1.4,0,0,0-.31.64,1,1,0,0,0,.08.56,1.47,1.47,0,0,0,.44.52,1.41,1.41,0,0,0,.6.3h.17a.84.84,0,0,0,.38-.08A1.4,1.4,0,0,0-69.66,475.81Zm-.92,0-.17,0a.64.64,0,0,1-.39-.15.58.58,0,0,1-.23-.46.89.89,0,0,1,.26-.58,1,1,0,0,1,.52-.38h.11a.62.62,0,0,1,.38.14.62.62,0,0,1,.24.45.9.9,0,0,1-.24.57A1.27,1.27,0,0,1-70.58,475.83Z" transform="translate(108.13 -458.91)"/>
        <path class="cls-1" d="M-69.59,476.75a.94.94,0,0,0-.21.48,1.19,1.19,0,0,0,.35.78,1.45,1.45,0,0,0,.43.38.8.8,0,0,0,.36.09h.07a.67.67,0,0,0,.38-.15.7.7,0,0,0,.19-.27.65.65,0,0,0,0-.37,3,3,0,0,0-.28-.69.62.62,0,0,1-.1-.31l0-.16,0,0a.29.29,0,0,1,.19-.05h0a.41.41,0,0,1,.24.16.49.49,0,0,1,.13.32.4.4,0,0,1-.09.24l.36.4a.59.59,0,0,0,.16-.44,1.22,1.22,0,0,0-.31-.63,1.62,1.62,0,0,0-.43-.39.67.67,0,0,0-.35-.08h0a.56.56,0,0,0-.31.12.52.52,0,0,0-.2.4,1.65,1.65,0,0,0,.22.72,1,1,0,0,1,.14.45.31.31,0,0,1-.12.26.37.37,0,0,1-.24.06h0a.46.46,0,0,1-.29-.19.53.53,0,0,1-.12-.45.64.64,0,0,1,.12-.23Z" transform="translate(108.13 -458.91)"/>
        <path class="cls-1" d="M-67.4,481.31a1.85,1.85,0,0,0,.25.37.79.79,0,0,0,.29.2.81.81,0,0,0,.35.07h.08a1.74,1.74,0,0,0,.55-.18,2,2,0,0,0,.39-.24,1,1,0,0,0,.26-.33.69.69,0,0,0,.08-.38,1.23,1.23,0,0,0-.14-.5l-.44-1-2.12,1Zm1.58-1.27.12.27a.62.62,0,0,1,0,.54.91.91,0,0,1-.49.41l-.25.1a.71.71,0,0,1-.24,0,.48.48,0,0,1-.29-.09.93.93,0,0,1-.22-.33l-.13-.27Z" transform="translate(108.13 -458.91)"/>
        <polygon class="cls-1" points="41.85 25.85 42.2 25.76 41.87 24.45 42.56 24.28 42.86 25.46 43.16 25.39 42.86 24.2 43.46 24.05 43.77 25.33 44.1 25.25 43.64 23.41 41.38 23.98 41.85 25.85"/>
        <polygon class="cls-1" points="42.06 28.28 42.47 28.24 42.37 27.02 44.27 26.86 44.22 26.28 41.9 26.49 42.06 28.28"/>
        <path class="cls-1" d="M-66.14,489l-.09.58.93.14-.08.53a1,1,0,0,0,.09.66.65.65,0,0,0,.49.27l.15,0h0a.56.56,0,0,0,.36-.12.81.81,0,0,0,.26-.53l.18-1.18Zm1.86,1.22a.5.5,0,0,1-.17.35.46.46,0,0,1-.29.06.36.36,0,0,1-.26-.17.61.61,0,0,1,0-.4l.05-.29.76.12Z" transform="translate(108.13 -458.91)"/>
        <polygon class="cls-1" points="40.91 34.43 41.26 34.55 41.7 33.27 42.37 33.5 41.98 34.66 42.27 34.76 42.66 33.6 43.24 33.8 42.81 35.05 43.13 35.16 43.74 33.37 41.54 32.61 40.91 34.43"/>
        <path class="cls-1" d="M-67.78,494.44l.81.45.06.11,0,.09a.52.52,0,0,1-.2.19.78.78,0,0,1-.27,0l-.8-.06-.35.62.68,0,.15,0,.15,0a.59.59,0,0,0,.16-.12l.27-.24-.1.35a.66.66,0,0,0,0,.26.54.54,0,0,0,.08.28.61.61,0,0,0,.23.22.64.64,0,0,0,.31.09l.16,0a.52.52,0,0,0,.18-.1,2.12,2.12,0,0,0,.31-.44l.58-1.05-2-1.13Zm1.09.72.15,0,.53.29-.22.39a.54.54,0,0,1-.22.26l-.14,0a.32.32,0,0,1-.18-.06.29.29,0,0,1-.15-.16.33.33,0,0,1,0-.22.87.87,0,0,1,.08-.22Z" transform="translate(108.13 -458.91)"/>
        <path class="cls-1" d="M-68.5,496.66a.78.78,0,0,0-.29,0h0a.8.8,0,0,0-.3.06.89.89,0,0,0-.27.2,2.38,2.38,0,0,0-.27.29,1.31,1.31,0,0,0-.26.45.81.81,0,0,0,0,.32.7.7,0,0,0,.12.35,1,1,0,0,0,.26.3l1.1.88.36-.44-1.13-.91a.58.58,0,0,1-.22-.37.54.54,0,0,1,.14-.39.54.54,0,0,1,.41-.22.56.56,0,0,1,.35.14l1.12.91.37-.44-1.1-.89A1.62,1.62,0,0,0-68.5,496.66Z" transform="translate(108.13 -458.91)"/>
        <path class="cls-1" d="M-86,502.7a1.56,1.56,0,0,1-.58.12l-.11.34a2,2,0,0,0,.28,0A2,2,0,0,0-86,503l.2-.07-.53,1.72.49.15.69-2.29-.35-.15A1.14,1.14,0,0,1-86,502.7Z" transform="translate(108.13 -458.91)"/>
        <path class="cls-1" d="M-82.36,503.13a1.12,1.12,0,0,0-.55-.17H-83a1,1,0,0,0-.35.06.76.76,0,0,0-.31.25.77.77,0,0,0-.14.4.73.73,0,0,0,.16.56.7.7,0,0,0,.54.25l.21,0a1.14,1.14,0,0,0,.24-.15l.21-.18,0,.28a1.86,1.86,0,0,1-.17.57.48.48,0,0,1-.21.17l-.16,0a.38.38,0,0,1-.23-.11.38.38,0,0,1-.08-.18l-.49,0a.85.85,0,0,0,.1.19.68.68,0,0,0,.24.2,1.29,1.29,0,0,0,.43.1h.15a.84.84,0,0,0,.59-.22,1.35,1.35,0,0,0,.35-.91,1.76,1.76,0,0,0-.07-.72A.78.78,0,0,0-82.36,503.13Zm-.29,1a.44.44,0,0,1-.34.12h0a.39.39,0,0,1-.3-.18.61.61,0,0,1-.09-.4.55.55,0,0,1,.15-.37.38.38,0,0,1,.28-.12h0a.5.5,0,0,1,.31.18.59.59,0,0,1,.1.41A.55.55,0,0,1-82.65,504.14Z" transform="translate(108.13 -458.91)"/>
        <path class="cls-1" d="M-79.45,503.83l-.18,0-.15.05a.72.72,0,0,0-.21.19l-.19.22V504a1.57,1.57,0,0,1,.07-.58.4.4,0,0,1,.36-.26.44.44,0,0,1,.21.07.4.4,0,0,1,.12.16l.47-.1a1.09,1.09,0,0,0-.13-.17.72.72,0,0,0-.27-.16.93.93,0,0,0-.29,0h-.15a.94.94,0,0,0-.7.35,1.38,1.38,0,0,0-.17.95,1.59,1.59,0,0,0,.18.7.9.9,0,0,0,.36.34,1,1,0,0,0,.4.07h.17a1,1,0,0,0,.47-.13.7.7,0,0,0,.26-.3.81.81,0,0,0,.07-.41A.81.81,0,0,0-79,504,.72.72,0,0,0-79.45,503.83Zm.15,1.15a.44.44,0,0,1-.36.17.48.48,0,0,1-.28-.13.55.55,0,0,1-.16-.37.56.56,0,0,1,.09-.4.46.46,0,0,1,.33-.17h0a.38.38,0,0,1,.28.12.58.58,0,0,1,.16.39A.54.54,0,0,1-79.3,505Z" transform="translate(108.13 -458.91)"/>
        <path class="cls-1" d="M-76.74,504.43l.12-.22.12-.2.22-.28a1.61,1.61,0,0,0,.33-.55.64.64,0,0,0,0-.41.61.61,0,0,0-.19-.29.65.65,0,0,0-.4-.14,1.84,1.84,0,0,0-.47.08,1.21,1.21,0,0,0-.47.22.61.61,0,0,0-.2.28,1.12,1.12,0,0,0,0,.33l.49-.1a.47.47,0,0,1,0-.28.37.37,0,0,1,.25-.19l.12,0a.43.43,0,0,1,.19,0,.34.34,0,0,1,.18.24.45.45,0,0,1,0,.3,2.19,2.19,0,0,1-.3.47,2.84,2.84,0,0,0-.47.79,1.24,1.24,0,0,0-.06.46l1.82-.52-.1-.35Z" transform="translate(108.13 -458.91)"/>
      </g>
      <path class="cls-1" d="M-79.44,511.66l-5.1-.05-.44-4.29a19.86,19.86,0,0,1-3.84-1.12l-2.88,3.22-4.4-2.58,1.76-4a20.33,20.33,0,0,1-2.84-2.95l-4.12,1.34-2.52-4.43,3.53-2.57a20.32,20.32,0,0,1-1-4.14l-4.25-.95.1-5.1,4.35-.41a19.41,19.41,0,0,1,1.24-4.08l-3.16-3,2.68-4.34,3.94,1.86a20.21,20.21,0,0,1,2.83-2.64l-1.29-4.14,4.48-2.45,2.49,3.52a19.72,19.72,0,0,1,3.79-.9l.91-4.21,5.1.07.43,4.27a19.77,19.77,0,0,1,3.77,1.07l2.84-3.18,4.41,2.56L-68.35,472a20.28,20.28,0,0,1,2.89,3l4-1.33,2.53,4.43-3.43,2.51a19.89,19.89,0,0,1,1,4.07l4.14.88,0,5.1-4.22.45a20,20,0,0,1-1.25,4.21l3.11,2.88-2.64,4.36-3.87-1.78A20.06,20.06,0,0,1-69,503.49l1.29,4.06L-72.17,510l-2.49-3.48a19.94,19.94,0,0,1-3.88.93Zm-4.77-.41,4.48.05.89-4.15.12,0a19.37,19.37,0,0,0,4.06-1l.13-.05,2.47,3.44,3.91-2.17-1.28-4,.11-.08a20.35,20.35,0,0,0,3.06-2.88l.09-.11,3.83,1.77,2.32-3.83-3.09-2.85,0-.12a19.42,19.42,0,0,0,1.3-4.39l0-.14,4.17-.44,0-4.48-4.1-.86v-.13a20.06,20.06,0,0,0-1.07-4.25l0-.13,3.39-2.48-2.22-3.89-4,1.32-.08-.1a19.68,19.68,0,0,0-3-3.1l-.1-.09,1.69-3.87L-71,466l-2.81,3.16-.12-.05A20,20,0,0,0-77.85,468l-.13,0-.43-4.22-4.48-.06-.9,4.16-.13,0a19.48,19.48,0,0,0-4,1l-.13,0-2.46-3.48-3.93,2.15,1.28,4.1-.11.07a19.94,19.94,0,0,0-3,2.77l-.1.11-3.89-1.84-2.35,3.81,3.13,3,0,.12a19.7,19.7,0,0,0-1.3,4.25l0,.13-4.29.41-.08,4.47,4.2.95,0,.13a19.45,19.45,0,0,0,1,4.32l0,.12-3.48,2.54,2.21,3.89,4.09-1.33.08.11a20.06,20.06,0,0,0,3,3.08l.11.09-1.74,3.93,3.86,2.26,2.85-3.18.12.05a20.31,20.31,0,0,0,4,1.17l.13,0Z" transform="translate(108.13 -458.91)"/>
    </g>
    <path class="cls-1" d="M66.64,486.85q0-6.18,0-12.34a.45.45,0,0,1,.25-.46c2.93-1.64,5.84-3.3,8.76-5l10.94-6.21,2.17-1.24a.38.38,0,0,1,.43,0l7.14,4.06,9.45,5.37,5.29,3c.18.1.19.23.19.4q0,12.25,0,24.52a.72.72,0,0,1-.42.74c-3.06,1.72-6.1,3.45-9.15,5.19L89.18,512a.39.39,0,0,1-.45,0c-3.76-2.15-7.52-4.28-11.29-6.42l-10.59-6a.37.37,0,0,1-.22-.37Q66.65,493,66.64,486.85Zm18.51,8.48H69.76c-.17,0-.17.07-.17.19a13.19,13.19,0,0,1,0,1.54,1.06,1.06,0,0,0,.69,1.19c3,1.64,5.88,3.32,8.82,5l9.67,5.49a.33.33,0,0,0,.38,0l5.94-3.38,8.42-4.77c.16-.09.16-.16.08-.31q-1.36-2.36-2.7-4.73a.4.4,0,0,0-.41-.23H85.15Zm23.17-19.23a.38.38,0,0,0-.22-.38l-2.74-1.54-11.44-6.51c-.16-.09-.21-.06-.3.09q-1.38,2.31-2.78,4.62a.28.28,0,0,0,0,.34q2.66,4.54,5.3,9.08l6.38,10.9,3.58,6.14c.09.15.14.18.3.09.55-.33,1.11-.65,1.67-.95a.42.42,0,0,0,.24-.41c0-3.58,0-7.15,0-10.73S108.31,479.68,108.32,476.1ZM69.58,492.32c0,.19.08.2.22.2h5.3a.33.33,0,0,0,.34-.2c.63-1.1,1.26-2.2,1.9-3.29q2.66-4.61,5.33-9.21l4.08-7q1.92-3.34,3.86-6.68c.12-.2.08-.28-.11-.37q-.69-.37-1.38-.78a.29.29,0,0,0-.34,0c-1.79,1-3.58,2-5.37,3.06l-8.75,5-4.89,2.78a.29.29,0,0,0-.19.28q0,4.08,0,8.15T69.58,492.32Zm16.83-12.09-7.35,12c0,.07-.13.14-.09.22s.15,0,.23,0H98.27a.49.49,0,0,0,.26,0L89,476Z" transform="translate(108.13 -458.91)"/>
    <rect class="cls-1" x="61.44" y="0.86" width="1.72" height="53.42" rx="0.65"/>
    <g>
      <g>
        <path class="cls-1" d="M-30.52,476.38a4,4,0,0,1-2.13-.51,3.08,3.08,0,0,1-1.22-1.38,5.24,5.24,0,0,1-.45-2c0-.4,0-.82,0-1.26s0-.88,0-1.29a5.25,5.25,0,0,1,.45-2,3,3,0,0,1,1.22-1.38,4,4,0,0,1,2.13-.5,4.72,4.72,0,0,1,1.73.28,3.3,3.3,0,0,1,1.17.76,3.19,3.19,0,0,1,.67,1,3.21,3.21,0,0,1,.25,1.05.23.23,0,0,1-.08.21.35.35,0,0,1-.22.08h-.29a.37.37,0,0,1-.2-.07.33.33,0,0,1-.11-.23,2.57,2.57,0,0,0-1-1.75,3.44,3.44,0,0,0-1.89-.47,2.86,2.86,0,0,0-2.07.73,3.36,3.36,0,0,0-.83,2.36q0,1.17,0,2.4a3.34,3.34,0,0,0,.83,2.36,2.87,2.87,0,0,0,2.07.74,3.44,3.44,0,0,0,1.89-.48,2.55,2.55,0,0,0,1-1.74.34.34,0,0,1,.11-.24.36.36,0,0,1,.2-.06H-27a.3.3,0,0,1,.22.08.22.22,0,0,1,.08.2,3.09,3.09,0,0,1-.25,1.05,3.23,3.23,0,0,1-.67,1,3.28,3.28,0,0,1-1.17.75A4.71,4.71,0,0,1-30.52,476.38Z" transform="translate(108.13 -458.91)"/>
        <path class="cls-1" d="M-21.95,476.38a3.25,3.25,0,0,1-1.72-.43,2.75,2.75,0,0,1-1.06-1.18,3.91,3.91,0,0,1-.4-1.66c0-.14,0-.34,0-.6s0-.46,0-.6a3.91,3.91,0,0,1,.4-1.67,2.78,2.78,0,0,1,1.06-1.17,3.25,3.25,0,0,1,1.72-.43,3.31,3.31,0,0,1,1.73.43,2.92,2.92,0,0,1,1.06,1.17,4.06,4.06,0,0,1,.39,1.67c0,.14,0,.34,0,.6s0,.46,0,.6a4.05,4.05,0,0,1-.39,1.66A2.88,2.88,0,0,1-20.22,476,3.31,3.31,0,0,1-21.95,476.38Zm0-.84a2.17,2.17,0,0,0,1.63-.64,2.71,2.71,0,0,0,.68-1.86c0-.14,0-.32,0-.53s0-.39,0-.53a2.72,2.72,0,0,0-.68-1.87,2.21,2.21,0,0,0-1.63-.64,2.21,2.21,0,0,0-1.63.64,2.71,2.71,0,0,0-.67,1.87c0,.14,0,.32,0,.53s0,.39,0,.53a2.7,2.7,0,0,0,.67,1.86A2.17,2.17,0,0,0-21.95,475.54Z" transform="translate(108.13 -458.91)"/>
        <path class="cls-1" d="M-16.47,476.23a.36.36,0,0,1-.23-.08.36.36,0,0,1-.08-.23v-9.54a.36.36,0,0,1,.08-.23.36.36,0,0,1,.23-.08h.25a.36.36,0,0,1,.23.08.36.36,0,0,1,.08.23v9.54a.36.36,0,0,1-.08.23.36.36,0,0,1-.23.08Z" transform="translate(108.13 -458.91)"/>
        <path class="cls-1" d="M-10.81,476.38a2.85,2.85,0,0,1-2.21-.91,4,4,0,0,1-.93-2.39c0-.14,0-.33,0-.57s0-.43,0-.57a4.41,4.41,0,0,1,.46-1.72,2.86,2.86,0,0,1,1.07-1.16,3,3,0,0,1,1.61-.42,3.08,3.08,0,0,1,1.7.45A2.82,2.82,0,0,1-8,470.36a4.79,4.79,0,0,1,.38,2v.21a.3.3,0,0,1-.09.23.32.32,0,0,1-.24.09h-5.09V473a3,3,0,0,0,.3,1.22,2.4,2.4,0,0,0,.77.95,2,2,0,0,0,1.19.36,2.52,2.52,0,0,0,1-.18,2.6,2.6,0,0,0,.65-.41,1.77,1.77,0,0,0,.32-.34.74.74,0,0,1,.2-.22.63.63,0,0,1,.23,0h.23a.34.34,0,0,1,.22.07.25.25,0,0,1,.08.21,1.15,1.15,0,0,1-.22.5,3,3,0,0,1-.59.58,3.37,3.37,0,0,1-.93.47A3.79,3.79,0,0,1-10.81,476.38Zm-2.26-4.31h4.55V472a3,3,0,0,0-.27-1.29,2.25,2.25,0,0,0-.79-.91,2.22,2.22,0,0,0-1.23-.34,2.22,2.22,0,0,0-1.23.34,2.2,2.2,0,0,0-.77.91,3,3,0,0,0-.26,1.29Z" transform="translate(108.13 -458.91)"/>
        <path class="cls-1" d="M-3,479.38a4,4,0,0,1-1.5-.24,2.57,2.57,0,0,1-.9-.6,2,2,0,0,1-.45-.7,2,2,0,0,1-.14-.56.26.26,0,0,1,.08-.24.33.33,0,0,1,.23-.09h.2a.33.33,0,0,1,.2.05.34.34,0,0,1,.14.25,4,4,0,0,0,.28.53,1.59,1.59,0,0,0,.62.54,2.5,2.5,0,0,0,1.17.23,3.8,3.8,0,0,0,1.31-.2,1.45,1.45,0,0,0,.81-.71,2.91,2.91,0,0,0,.28-1.41v-1a2.75,2.75,0,0,1-.94.81,2.89,2.89,0,0,1-1.46.33,3,3,0,0,1-1.41-.31,2.53,2.53,0,0,1-.94-.8,3.35,3.35,0,0,1-.53-1.11,4.85,4.85,0,0,1-.19-1.25c0-.27,0-.53,0-.8a4.85,4.85,0,0,1,.19-1.25,3.35,3.35,0,0,1,.53-1.11,2.53,2.53,0,0,1,.94-.8A3,3,0,0,1-3,468.64a2.89,2.89,0,0,1,1.46.33,3,3,0,0,1,.94.81v-.66a.32.32,0,0,1,.09-.24.29.29,0,0,1,.23-.09h.22a.32.32,0,0,1,.24.09.32.32,0,0,1,.09.24v7A4.86,4.86,0,0,1,0,477.75a2.33,2.33,0,0,1-1,1.19A3.73,3.73,0,0,1-3,479.38Zm0-3.84a2.09,2.09,0,0,0,1.32-.38,2.36,2.36,0,0,0,.74-1A3.73,3.73,0,0,0-.65,473c0-.14,0-.31,0-.51s0-.37,0-.52a3.67,3.67,0,0,0-.26-1.16,2.36,2.36,0,0,0-.74-1A2.09,2.09,0,0,0-3,469.47a2.13,2.13,0,0,0-1.32.38,2,2,0,0,0-.71,1,4.47,4.47,0,0,0-.24,1.29c0,.27,0,.53,0,.8A4.47,4.47,0,0,0-5,474.2a2,2,0,0,0,.71,1A2.13,2.13,0,0,0-3,475.54Z" transform="translate(108.13 -458.91)"/>
        <path class="cls-1" d="M2.72,467.26a.29.29,0,0,1-.23-.09.3.3,0,0,1-.09-.23v-.54a.32.32,0,0,1,.09-.24.29.29,0,0,1,.23-.09h.54a.36.36,0,0,1,.24.09.32.32,0,0,1,.09.24v.54a.3.3,0,0,1-.09.23.36.36,0,0,1-.24.09Zm.15,9a.36.36,0,0,1-.23-.08.36.36,0,0,1-.08-.23V469.1a.36.36,0,0,1,.08-.23.36.36,0,0,1,.23-.08h.25a.36.36,0,0,1,.23.08.36.36,0,0,1,.08.23v6.82a.36.36,0,0,1-.08.23.36.36,0,0,1-.23.08Z" transform="translate(108.13 -458.91)"/>
        <path class="cls-1" d="M8.58,476.38A3.27,3.27,0,0,1,6.86,476a2.82,2.82,0,0,1-1.06-1.18,4.05,4.05,0,0,1-.39-1.66c0-.14,0-.34,0-.6s0-.46,0-.6a4.06,4.06,0,0,1,.39-1.67,2.85,2.85,0,0,1,1.06-1.17,3.27,3.27,0,0,1,1.72-.43,3.29,3.29,0,0,1,1.73.43,2.85,2.85,0,0,1,1.06,1.17,4.06,4.06,0,0,1,.39,1.67c0,.14,0,.34,0,.6s0,.46,0,.6a4.05,4.05,0,0,1-.39,1.66A2.82,2.82,0,0,1,10.31,476,3.29,3.29,0,0,1,8.58,476.38Zm0-.84a2.19,2.19,0,0,0,1.64-.64,2.7,2.7,0,0,0,.67-1.86c0-.14,0-.32,0-.53s0-.39,0-.53a2.71,2.71,0,0,0-.67-1.87,2.23,2.23,0,0,0-1.64-.64,2.22,2.22,0,0,0-1.63.64A2.71,2.71,0,0,0,6.28,472c0,.14,0,.32,0,.53s0,.39,0,.53A2.7,2.7,0,0,0,7,474.9,2.18,2.18,0,0,0,8.58,475.54Z" transform="translate(108.13 -458.91)"/>
        <path class="cls-1" d="M20.12,476.38a3.06,3.06,0,0,1-1.41-.31,2.61,2.61,0,0,1-.94-.8,3.54,3.54,0,0,1-.52-1.11,5.91,5.91,0,0,1-.19-1.25c0-.14,0-.28,0-.4s0-.26,0-.4a5.91,5.91,0,0,1,.19-1.25,3.54,3.54,0,0,1,.52-1.11,2.61,2.61,0,0,1,.94-.8,3.06,3.06,0,0,1,1.41-.31,2.83,2.83,0,0,1,2.41,1.14v-3.4a.28.28,0,0,1,.31-.31h.24a.29.29,0,0,1,.32.31v9.54a.29.29,0,0,1-.32.31h-.24a.28.28,0,0,1-.31-.31v-.68a2.75,2.75,0,0,1-.94.81A3,3,0,0,1,20.12,476.38Zm.09-.84a2.11,2.11,0,0,0,1.32-.38,2.36,2.36,0,0,0,.74-1,3.25,3.25,0,0,0,.26-1.17c0-.14,0-.32,0-.55s0-.42,0-.56a2.88,2.88,0,0,0-.27-1.13,2.26,2.26,0,0,0-.75-.93,2.11,2.11,0,0,0-1.3-.38,2.14,2.14,0,0,0-1.33.38,2,2,0,0,0-.7,1,4.16,4.16,0,0,0-.25,1.29c0,.27,0,.53,0,.8a4.16,4.16,0,0,0,.25,1.29,2,2,0,0,0,.7,1A2.14,2.14,0,0,0,20.21,475.54Z" transform="translate(108.13 -458.91)"/>
        <path class="cls-1" d="M28.5,476.38a2.85,2.85,0,0,1-2.21-.91,4,4,0,0,1-.93-2.39c0-.14,0-.33,0-.57s0-.43,0-.57a4.41,4.41,0,0,1,.46-1.72,2.86,2.86,0,0,1,1.07-1.16,3,3,0,0,1,1.61-.42,3.1,3.1,0,0,1,1.7.45,2.82,2.82,0,0,1,1.08,1.27,4.79,4.79,0,0,1,.38,2v.21a.3.3,0,0,1-.09.23.34.34,0,0,1-.24.09h-5.1V473a3,3,0,0,0,.31,1.22,2.32,2.32,0,0,0,.77.95,2,2,0,0,0,1.19.36,2.52,2.52,0,0,0,1-.18,2.6,2.6,0,0,0,.65-.41,2.18,2.18,0,0,0,.32-.34.74.74,0,0,1,.2-.22.6.6,0,0,1,.23,0h.22a.37.37,0,0,1,.23.07.25.25,0,0,1,.08.21,1.08,1.08,0,0,1-.23.5,2.88,2.88,0,0,1-.58.58,3.52,3.52,0,0,1-.93.47A3.79,3.79,0,0,1,28.5,476.38Zm-2.27-4.31h4.56V472a2.84,2.84,0,0,0-.28-1.29,2.23,2.23,0,0,0-.78-.91,2.27,2.27,0,0,0-1.23-.34,2.09,2.09,0,0,0-2,1.25,3,3,0,0,0-.27,1.29Z" transform="translate(108.13 -458.91)"/>
        <path class="cls-1" d="M-33.6,493.41a.3.3,0,0,1-.23-.09.29.29,0,0,1-.09-.23V483.7a.32.32,0,0,1,.09-.23.34.34,0,0,1,.23-.08h.27a.34.34,0,0,1,.23.08.32.32,0,0,1,.09.23v9.39a.29.29,0,0,1-.09.23.3.3,0,0,1-.23.09Z" transform="translate(108.13 -458.91)"/>
        <path class="cls-1" d="M-30.19,493.41a.29.29,0,0,1-.23-.09.29.29,0,0,1-.09-.23v-6.81a.3.3,0,0,1,.09-.23.28.28,0,0,1,.23-.08h.24a.31.31,0,0,1,.23.08.34.34,0,0,1,.08.23V487a3.18,3.18,0,0,1,.94-.81,3,3,0,0,1,1.47-.32,2.91,2.91,0,0,1,1.62.42,2.67,2.67,0,0,1,1,1.15,4.07,4.07,0,0,1,.32,1.64v4.06a.29.29,0,0,1-.09.23.29.29,0,0,1-.23.09h-.24a.32.32,0,0,1-.23-.09.28.28,0,0,1-.08-.23v-4a2.71,2.71,0,0,0-.56-1.8,2,2,0,0,0-1.63-.65,2.17,2.17,0,0,0-1.64.65,2.5,2.5,0,0,0-.63,1.8v4a.32.32,0,0,1-.08.23.32.32,0,0,1-.23.09Z" transform="translate(108.13 -458.91)"/>
        <path class="cls-1" d="M-19.29,496.56a3.9,3.9,0,0,1-1.49-.24,2.48,2.48,0,0,1-.9-.6,2,2,0,0,1-.45-.7,2,2,0,0,1-.15-.57.25.25,0,0,1,.09-.23.34.34,0,0,1,.23-.1h.2a.46.46,0,0,1,.2.05.44.44,0,0,1,.14.26,3.09,3.09,0,0,0,.28.53,1.52,1.52,0,0,0,.62.54,2.48,2.48,0,0,0,1.16.23,3.82,3.82,0,0,0,1.32-.2,1.56,1.56,0,0,0,.81-.71,3,3,0,0,0,.28-1.41v-1a2.75,2.75,0,0,1-.94.81,3,3,0,0,1-1.47.32,3.06,3.06,0,0,1-1.41-.3,2.71,2.71,0,0,1-.94-.8,3.85,3.85,0,0,1-.53-1.12,5.23,5.23,0,0,1-.18-1.24c0-.27,0-.54,0-.8a5.31,5.31,0,0,1,.18-1.25,4,4,0,0,1,.53-1.12,2.71,2.71,0,0,1,.94-.8,3.06,3.06,0,0,1,1.41-.3,3,3,0,0,1,1.47.33,3.09,3.09,0,0,1,.94.8v-.66a.36.36,0,0,1,.08-.23.32.32,0,0,1,.23-.09h.23a.32.32,0,0,1,.24.09.32.32,0,0,1,.09.23v7a4.86,4.86,0,0,1-.27,1.66,2.28,2.28,0,0,1-1,1.18A3.61,3.61,0,0,1-19.29,496.56Zm0-3.84a2.12,2.12,0,0,0,1.31-.38,2.28,2.28,0,0,0,.74-1,3.55,3.55,0,0,0,.27-1.17c0-.14,0-.31,0-.51s0-.37,0-.52a3.55,3.55,0,0,0-.27-1.17,2.31,2.31,0,0,0-.74-1,2.06,2.06,0,0,0-1.31-.39,2.21,2.21,0,0,0-1.33.37,2.11,2.11,0,0,0-.7,1,4.16,4.16,0,0,0-.25,1.29c0,.26,0,.53,0,.8a4.16,4.16,0,0,0,.25,1.29,2.08,2.08,0,0,0,.7,1A2.14,2.14,0,0,0-19.27,492.72Z" transform="translate(108.13 -458.91)"/>
        <path class="cls-1" d="M-11,493.55a2.82,2.82,0,0,1-2.21-.91,3.94,3.94,0,0,1-.93-2.38c0-.14,0-.33,0-.57s0-.43,0-.58a4.36,4.36,0,0,1,.46-1.71,2.8,2.8,0,0,1,1.07-1.16,3,3,0,0,1,1.61-.42,3.1,3.1,0,0,1,1.7.45,2.82,2.82,0,0,1,1.08,1.27,4.76,4.76,0,0,1,.38,2v.21a.3.3,0,0,1-.09.23.33.33,0,0,1-.24.08h-5.1v.15a3.18,3.18,0,0,0,.3,1.22,2.5,2.5,0,0,0,.78.95,2,2,0,0,0,1.19.36,2.52,2.52,0,0,0,1-.18,2.6,2.6,0,0,0,.65-.41,2.18,2.18,0,0,0,.32-.34.63.63,0,0,1,.2-.22.55.55,0,0,1,.23,0h.22a.38.38,0,0,1,.23.08.23.23,0,0,1,.07.21.93.93,0,0,1-.22.49,2.65,2.65,0,0,1-.58.58,3.53,3.53,0,0,1-.93.48A3.84,3.84,0,0,1-11,493.55Zm-2.27-4.31h4.56v-.05A2.84,2.84,0,0,0-9,487.9a2.16,2.16,0,0,0-.78-.91,2.19,2.19,0,0,0-1.23-.34,2.14,2.14,0,0,0-1.23.34,2.14,2.14,0,0,0-.77.91,3,3,0,0,0-.27,1.29Z" transform="translate(108.13 -458.91)"/>
        <path class="cls-1" d="M-5.62,493.41a.28.28,0,0,1-.22-.09.29.29,0,0,1-.09-.23v-6.81a.3.3,0,0,1,.09-.23.27.27,0,0,1,.22-.08h.25a.31.31,0,0,1,.23.08.34.34,0,0,1,.08.23V487a3.18,3.18,0,0,1,.94-.81,3,3,0,0,1,1.47-.32,2.91,2.91,0,0,1,1.62.42,2.67,2.67,0,0,1,1,1.15A4.07,4.07,0,0,1,.27,489v4.06a.29.29,0,0,1-.09.23.3.3,0,0,1-.23.09H-.29a.3.3,0,0,1-.23-.09.29.29,0,0,1-.09-.23v-4a2.71,2.71,0,0,0-.55-1.8,2.06,2.06,0,0,0-1.63-.65,2.17,2.17,0,0,0-1.64.65,2.5,2.5,0,0,0-.63,1.8v4a.32.32,0,0,1-.08.23.32.32,0,0,1-.23.09Z" transform="translate(108.13 -458.91)"/>
        <path class="cls-1" d="M2.67,484.43a.31.31,0,0,1-.23-.08.36.36,0,0,1-.08-.23v-.54a.36.36,0,0,1,.08-.24.32.32,0,0,1,.23-.09h.55a.32.32,0,0,1,.23.09.33.33,0,0,1,.1.24v.54a.33.33,0,0,1-.1.23.31.31,0,0,1-.23.08Zm.16,9a.3.3,0,0,1-.23-.09.29.29,0,0,1-.09-.23v-6.81a.3.3,0,0,1,.09-.23.3.3,0,0,1,.23-.08h.24a.28.28,0,0,1,.23.08.3.3,0,0,1,.09.23v6.81a.31.31,0,0,1-.32.32Z" transform="translate(108.13 -458.91)"/>
        <path class="cls-1" d="M8.47,493.55a2.78,2.78,0,0,1-2.2-.91,3.88,3.88,0,0,1-.94-2.38c0-.14,0-.33,0-.57s0-.43,0-.58a4.54,4.54,0,0,1,.46-1.71,2.86,2.86,0,0,1,1.07-1.16,3,3,0,0,1,1.61-.42,3.05,3.05,0,0,1,1.7.45,2.82,2.82,0,0,1,1.08,1.27,4.6,4.6,0,0,1,.38,2v.21a.3.3,0,0,1-.09.23.32.32,0,0,1-.24.08H6.21v.15a3.18,3.18,0,0,0,.3,1.22,2.47,2.47,0,0,0,.77.95,2,2,0,0,0,1.19.36,2.52,2.52,0,0,0,1-.18,2.68,2.68,0,0,0,.66-.41,2,2,0,0,0,.31-.34c.09-.12.15-.2.2-.22a.59.59,0,0,1,.23,0h.23a.35.35,0,0,1,.22.08.24.24,0,0,1,.08.21,1.13,1.13,0,0,1-.22.49,2.71,2.71,0,0,1-.59.58,3.46,3.46,0,0,1-.92.48A3.91,3.91,0,0,1,8.47,493.55Zm-2.26-4.31h4.55v-.05a3,3,0,0,0-.27-1.29A2.19,2.19,0,0,0,9.7,487a2.14,2.14,0,0,0-1.23-.34,2.09,2.09,0,0,0-1.22.34,2.16,2.16,0,0,0-.78.91,3.13,3.13,0,0,0-.26,1.29Z" transform="translate(108.13 -458.91)"/>
        <path class="cls-1" d="M13.84,493.41a.3.3,0,0,1-.23-.09.29.29,0,0,1-.09-.23v-6.8a.32.32,0,0,1,.09-.23.3.3,0,0,1,.23-.09h.23a.32.32,0,0,1,.23.09.29.29,0,0,1,.1.23V487a1.66,1.66,0,0,1,.74-.74,2.7,2.7,0,0,1,1.2-.24h.53a.3.3,0,0,1,.23.08.3.3,0,0,1,.09.23v.2a.31.31,0,0,1-.32.32h-.61a1.73,1.73,0,0,0-1.86,1.86v4.43a.26.26,0,0,1-.1.23.32.32,0,0,1-.23.09Z" transform="translate(108.13 -458.91)"/>
        <path class="cls-1" d="M21.17,493.55a3.22,3.22,0,0,1-1.73-.43A2.8,2.8,0,0,1,18.38,492a4.09,4.09,0,0,1-.39-1.66c0-.14,0-.34,0-.6s0-.46,0-.6a4.06,4.06,0,0,1,.39-1.67,2.92,2.92,0,0,1,1.06-1.17,3.31,3.31,0,0,1,1.73-.43,3.27,3.27,0,0,1,1.72.43A2.78,2.78,0,0,1,24,487.42a3.91,3.91,0,0,1,.4,1.67c0,.14,0,.34,0,.6s0,.46,0,.6A3.94,3.94,0,0,1,24,492a2.67,2.67,0,0,1-1.06,1.17A3.18,3.18,0,0,1,21.17,493.55Zm0-.83a2.17,2.17,0,0,0,1.63-.64,2.7,2.7,0,0,0,.67-1.86c0-.15,0-.32,0-.53s0-.39,0-.53a2.69,2.69,0,0,0-.67-1.87,2.4,2.4,0,0,0-3.26,0,2.7,2.7,0,0,0-.68,1.87c0,.14,0,.32,0,.53s0,.38,0,.53a2.71,2.71,0,0,0,.68,1.86A2.17,2.17,0,0,0,21.17,492.72Z" transform="translate(108.13 -458.91)"/>
        <path class="cls-1" d="M28.68,493.55a3.55,3.55,0,0,1-1.28-.2,2.92,2.92,0,0,1-.88-.48,2.13,2.13,0,0,1-.51-.55,1.17,1.17,0,0,1-.18-.41.25.25,0,0,1,.1-.24.42.42,0,0,1,.22-.08h.21a.33.33,0,0,1,.15,0,.48.48,0,0,1,.17.16,3.67,3.67,0,0,0,.43.46,1.62,1.62,0,0,0,.62.35,2.87,2.87,0,0,0,.95.13,2.76,2.76,0,0,0,1.42-.33,1.06,1.06,0,0,0,.56-1,.94.94,0,0,0-.22-.64,1.73,1.73,0,0,0-.76-.43,11,11,0,0,0-1.43-.39,4.64,4.64,0,0,1-1.38-.52,1.57,1.57,0,0,1-.65-.69,2.19,2.19,0,0,1-.17-.85,1.87,1.87,0,0,1,.28-1,2.2,2.2,0,0,1,.86-.79,2.87,2.87,0,0,1,1.42-.31,3.28,3.28,0,0,1,1.2.19,2.6,2.6,0,0,1,.81.45,2.12,2.12,0,0,1,.46.52,1.11,1.11,0,0,1,.17.42.28.28,0,0,1-.09.23.38.38,0,0,1-.23.08h-.21a.29.29,0,0,1-.19,0,.53.53,0,0,1-.13-.13,2.38,2.38,0,0,0-.34-.43,1.59,1.59,0,0,0-.54-.33,2.78,2.78,0,0,0-.91-.12,2,2,0,0,0-1.27.35,1.14,1.14,0,0,0-.42.9.94.94,0,0,0,.17.55,1.49,1.49,0,0,0,.65.43,10.43,10.43,0,0,0,1.37.41,5.19,5.19,0,0,1,1.45.49,1.89,1.89,0,0,1,.65,2.7,2.36,2.36,0,0,1-1,.78A3.83,3.83,0,0,1,28.68,493.55Z" transform="translate(108.13 -458.91)"/>
        <path class="cls-1" d="M-31.41,510.73a3.06,3.06,0,0,1-1.41-.3,2.62,2.62,0,0,1-.94-.8,3.48,3.48,0,0,1-.52-1.12,5.25,5.25,0,0,1-.19-1.24c0-.15,0-.28,0-.4s0-.26,0-.41a5.25,5.25,0,0,1,.19-1.24,3.48,3.48,0,0,1,.52-1.12,2.62,2.62,0,0,1,.94-.8,3.06,3.06,0,0,1,1.41-.3,3,3,0,0,1,1.47.33,3.17,3.17,0,0,1,.93.8v-3.39a.3.3,0,0,1,.09-.23.3.3,0,0,1,.23-.09h.24a.3.3,0,0,1,.23.09.3.3,0,0,1,.09.23v9.53a.3.3,0,0,1-.09.23.3.3,0,0,1-.23.09h-.24a.3.3,0,0,1-.23-.09.3.3,0,0,1-.09-.23v-.67a3.06,3.06,0,0,1-.93.81A3.08,3.08,0,0,1-31.41,510.73Zm.08-.83a2.07,2.07,0,0,0,1.32-.39,2.35,2.35,0,0,0,.75-1,3.28,3.28,0,0,0,.25-1.17c0-.14,0-.33,0-.56s0-.41,0-.56a2.9,2.9,0,0,0-.26-1.13,2.42,2.42,0,0,0-.75-.93,2.21,2.21,0,0,0-1.31-.37,2.2,2.2,0,0,0-1.32.37,2.13,2.13,0,0,0-.71,1,4.47,4.47,0,0,0-.24,1.28q0,.41,0,.81a4.47,4.47,0,0,0,.24,1.28,2.08,2.08,0,0,0,.71,1A2.13,2.13,0,0,0-31.33,509.9Z" transform="translate(108.13 -458.91)"/>
        <path class="cls-1" d="M-23,510.73a2.79,2.79,0,0,1-2.2-.91,3.82,3.82,0,0,1-.93-2.38c0-.14,0-.34,0-.57s0-.43,0-.58a4.32,4.32,0,0,1,.46-1.71,2.77,2.77,0,0,1,1.06-1.16A3,3,0,0,1-23,503a3.2,3.2,0,0,1,1.71.44,3,3,0,0,1,1.08,1.28,4.74,4.74,0,0,1,.38,2v.22a.29.29,0,0,1-.1.23.31.31,0,0,1-.23.08h-5.1v.15a3.22,3.22,0,0,0,.3,1.22,2.41,2.41,0,0,0,.78,1,1.94,1.94,0,0,0,1.18.36,2.43,2.43,0,0,0,1-.19,2.34,2.34,0,0,0,.65-.4A1.63,1.63,0,0,0-21,509a.91.91,0,0,1,.2-.22.47.47,0,0,1,.23,0h.23a.33.33,0,0,1,.22.08.21.21,0,0,1,.08.21,1,1,0,0,1-.22.49,2.5,2.5,0,0,1-.59.58,3.18,3.18,0,0,1-.92.47A3.59,3.59,0,0,1-23,510.73Zm-2.26-4.31h4.55v-.05a3,3,0,0,0-.27-1.29,2.12,2.12,0,0,0-.79-.91,2.14,2.14,0,0,0-1.23-.34,2.13,2.13,0,0,0-1.22.34,2.08,2.08,0,0,0-.77.91,3,3,0,0,0-.27,1.29Z" transform="translate(108.13 -458.91)"/>
        <path class="cls-1" d="M-17.66,510.59a.28.28,0,0,1-.22-.09.3.3,0,0,1-.09-.23v-9.53a.3.3,0,0,1,.09-.23.28.28,0,0,1,.22-.09h.25a.32.32,0,0,1,.23.09.3.3,0,0,1,.08.23v9.53a.3.3,0,0,1-.08.23.32.32,0,0,1-.23.09Z" transform="translate(108.13 -458.91)"/>
        <path class="cls-1" d="M-10.57,510.59a.32.32,0,0,1-.23-.09.3.3,0,0,1-.08-.23V500.9a.33.33,0,0,1,.08-.25.36.36,0,0,1,.23-.08h3.48a4.22,4.22,0,0,1,1.74.33,2.59,2.59,0,0,1,1.14,1,3,3,0,0,1,.41,1.63,3,3,0,0,1-.41,1.63,2.59,2.59,0,0,1-1.14,1,4.22,4.22,0,0,1-1.74.33H-10v3.78a.3.3,0,0,1-.09.23.31.31,0,0,1-.24.09Zm.59-5h2.82a2.71,2.71,0,0,0,1.85-.54,2,2,0,0,0,.61-1.56A2,2,0,0,0-5.31,502a2.71,2.71,0,0,0-1.85-.54H-10Z" transform="translate(108.13 -458.91)"/>
        <path class="cls-1" d="M.58,510.73a2.79,2.79,0,0,1-2.2-.91,3.82,3.82,0,0,1-.93-2.38c0-.14,0-.34,0-.57s0-.43,0-.58a4.32,4.32,0,0,1,.46-1.71A2.77,2.77,0,0,1-1,503.42,3,3,0,0,1,.58,503a3.2,3.2,0,0,1,1.71.44,3,3,0,0,1,1.08,1.28,4.74,4.74,0,0,1,.38,2v.22a.33.33,0,0,1-.1.23.31.31,0,0,1-.23.08h-5.1v.15a3.22,3.22,0,0,0,.3,1.22,2.47,2.47,0,0,0,.77,1,2,2,0,0,0,1.19.36,2.43,2.43,0,0,0,1-.19,2.49,2.49,0,0,0,.65-.4,2,2,0,0,0,.31-.34c.09-.12.15-.2.2-.22a.47.47,0,0,1,.23,0h.23a.33.33,0,0,1,.22.08.23.23,0,0,1,.08.21,1,1,0,0,1-.22.49,2.5,2.5,0,0,1-.59.58,3.18,3.18,0,0,1-.92.47A3.59,3.59,0,0,1,.58,510.73Zm-2.26-4.31H2.87v-.05a3,3,0,0,0-.27-1.29,2.12,2.12,0,0,0-.79-.91,2.14,2.14,0,0,0-1.23-.34,2.13,2.13,0,0,0-1.22.34,2.08,2.08,0,0,0-.77.91,3,3,0,0,0-.27,1.29Z" transform="translate(108.13 -458.91)"/>
        <path class="cls-1" d="M6,510.59a.32.32,0,0,1-.23-.09.34.34,0,0,1-.08-.23v-6.8a.36.36,0,0,1,.08-.23.29.29,0,0,1,.23-.1h.23a.31.31,0,0,1,.24.1.32.32,0,0,1,.09.23v.66a1.66,1.66,0,0,1,.74-.74,2.74,2.74,0,0,1,1.21-.25H9a.28.28,0,0,1,.22.09.3.3,0,0,1,.09.23v.2a.32.32,0,0,1-.09.23A.27.27,0,0,1,9,504H8.37a1.74,1.74,0,0,0-1.86,1.86v4.44a.3.3,0,0,1-.09.23.34.34,0,0,1-.24.09Z" transform="translate(108.13 -458.91)"/>
        <path class="cls-1" d="M13.41,510.73a2.85,2.85,0,0,1-1.61-.42,2.55,2.55,0,0,1-1-1.15,4.28,4.28,0,0,1-.3-1.64v-4.06a.3.3,0,0,1,.08-.23.32.32,0,0,1,.23-.09h.24a.29.29,0,0,1,.23.09.3.3,0,0,1,.09.23v4c0,1.63.71,2.45,2.13,2.45a2.15,2.15,0,0,0,1.63-.65,2.51,2.51,0,0,0,.62-1.8v-4a.3.3,0,0,1,.09-.23.28.28,0,0,1,.22-.09h.25a.32.32,0,0,1,.23.09.34.34,0,0,1,.08.23v6.81a.34.34,0,0,1-.08.23.32.32,0,0,1-.23.09h-.25a.28.28,0,0,1-.22-.09.3.3,0,0,1-.09-.23v-.67a3.42,3.42,0,0,1-.92.82A2.92,2.92,0,0,1,13.41,510.73Zm0-8.66c-.15,0-.22-.08-.22-.23a.21.21,0,0,1,.07-.18l1-1.19a.65.65,0,0,1,.22-.2.63.63,0,0,1,.31-.06h.59a.24.24,0,0,1,.27.27.21.21,0,0,1-.07.17L14,501.93a.57.57,0,0,1-.21.12l-.23,0Z" transform="translate(108.13 -458.91)"/>
      </g>
      <g>
        <path class="cls-4" d="M-30.52,476.38a4,4,0,0,1-2.13-.51,3.08,3.08,0,0,1-1.22-1.38,5.24,5.24,0,0,1-.45-2c0-.4,0-.82,0-1.26s0-.88,0-1.29a5.25,5.25,0,0,1,.45-2,3,3,0,0,1,1.22-1.38,4,4,0,0,1,2.13-.5,4.72,4.72,0,0,1,1.73.28,3.3,3.3,0,0,1,1.17.76,3.19,3.19,0,0,1,.67,1,3.21,3.21,0,0,1,.25,1.05.23.23,0,0,1-.08.21.35.35,0,0,1-.22.08h-.29a.37.37,0,0,1-.2-.07.33.33,0,0,1-.11-.23,2.57,2.57,0,0,0-1-1.75,3.44,3.44,0,0,0-1.89-.47,2.86,2.86,0,0,0-2.07.73,3.36,3.36,0,0,0-.83,2.36q0,1.17,0,2.4a3.34,3.34,0,0,0,.83,2.36,2.87,2.87,0,0,0,2.07.74,3.44,3.44,0,0,0,1.89-.48,2.55,2.55,0,0,0,1-1.74.34.34,0,0,1,.11-.24.36.36,0,0,1,.2-.06H-27a.3.3,0,0,1,.22.08.22.22,0,0,1,.08.2,3.09,3.09,0,0,1-.25,1.05,3.23,3.23,0,0,1-.67,1,3.28,3.28,0,0,1-1.17.75A4.71,4.71,0,0,1-30.52,476.38Z" transform="translate(108.13 -458.91)"/>
        <path class="cls-4" d="M-21.95,476.38a3.25,3.25,0,0,1-1.72-.43,2.75,2.75,0,0,1-1.06-1.18,3.91,3.91,0,0,1-.4-1.66c0-.14,0-.34,0-.6s0-.46,0-.6a3.91,3.91,0,0,1,.4-1.67,2.78,2.78,0,0,1,1.06-1.17,3.25,3.25,0,0,1,1.72-.43,3.31,3.31,0,0,1,1.73.43,2.92,2.92,0,0,1,1.06,1.17,4.06,4.06,0,0,1,.39,1.67c0,.14,0,.34,0,.6s0,.46,0,.6a4.05,4.05,0,0,1-.39,1.66A2.88,2.88,0,0,1-20.22,476,3.31,3.31,0,0,1-21.95,476.38Zm0-.84a2.17,2.17,0,0,0,1.63-.64,2.71,2.71,0,0,0,.68-1.86c0-.14,0-.32,0-.53s0-.39,0-.53a2.72,2.72,0,0,0-.68-1.87,2.21,2.21,0,0,0-1.63-.64,2.21,2.21,0,0,0-1.63.64,2.71,2.71,0,0,0-.67,1.87c0,.14,0,.32,0,.53s0,.39,0,.53a2.7,2.7,0,0,0,.67,1.86A2.17,2.17,0,0,0-21.95,475.54Z" transform="translate(108.13 -458.91)"/>
        <path class="cls-4" d="M-16.47,476.23a.36.36,0,0,1-.23-.08.36.36,0,0,1-.08-.23v-9.54a.36.36,0,0,1,.08-.23.36.36,0,0,1,.23-.08h.25a.36.36,0,0,1,.23.08.36.36,0,0,1,.08.23v9.54a.36.36,0,0,1-.08.23.36.36,0,0,1-.23.08Z" transform="translate(108.13 -458.91)"/>
        <path class="cls-4" d="M-10.81,476.38a2.85,2.85,0,0,1-2.21-.91,4,4,0,0,1-.93-2.39c0-.14,0-.33,0-.57s0-.43,0-.57a4.41,4.41,0,0,1,.46-1.72,2.86,2.86,0,0,1,1.07-1.16,3,3,0,0,1,1.61-.42,3.08,3.08,0,0,1,1.7.45A2.82,2.82,0,0,1-8,470.36a4.79,4.79,0,0,1,.38,2v.21a.3.3,0,0,1-.09.23.32.32,0,0,1-.24.09h-5.09V473a3,3,0,0,0,.3,1.22,2.4,2.4,0,0,0,.77.95,2,2,0,0,0,1.19.36,2.52,2.52,0,0,0,1-.18,2.6,2.6,0,0,0,.65-.41,1.77,1.77,0,0,0,.32-.34.74.74,0,0,1,.2-.22.63.63,0,0,1,.23,0h.23a.34.34,0,0,1,.22.07.25.25,0,0,1,.08.21,1.15,1.15,0,0,1-.22.5,3,3,0,0,1-.59.58,3.37,3.37,0,0,1-.93.47A3.79,3.79,0,0,1-10.81,476.38Zm-2.26-4.31h4.55V472a3,3,0,0,0-.27-1.29,2.25,2.25,0,0,0-.79-.91,2.22,2.22,0,0,0-1.23-.34,2.22,2.22,0,0,0-1.23.34,2.2,2.2,0,0,0-.77.91,3,3,0,0,0-.26,1.29Z" transform="translate(108.13 -458.91)"/>
        <path class="cls-4" d="M-3,479.38a4,4,0,0,1-1.5-.24,2.57,2.57,0,0,1-.9-.6,2,2,0,0,1-.45-.7,2,2,0,0,1-.14-.56.26.26,0,0,1,.08-.24.33.33,0,0,1,.23-.09h.2a.33.33,0,0,1,.2.05.34.34,0,0,1,.14.25,4,4,0,0,0,.28.53,1.59,1.59,0,0,0,.62.54,2.5,2.5,0,0,0,1.17.23,3.8,3.8,0,0,0,1.31-.2,1.45,1.45,0,0,0,.81-.71,2.91,2.91,0,0,0,.28-1.41v-1a2.75,2.75,0,0,1-.94.81,2.89,2.89,0,0,1-1.46.33,3,3,0,0,1-1.41-.31,2.53,2.53,0,0,1-.94-.8,3.35,3.35,0,0,1-.53-1.11,4.85,4.85,0,0,1-.19-1.25c0-.27,0-.53,0-.8a4.85,4.85,0,0,1,.19-1.25,3.35,3.35,0,0,1,.53-1.11,2.53,2.53,0,0,1,.94-.8A3,3,0,0,1-3,468.64a2.89,2.89,0,0,1,1.46.33,3,3,0,0,1,.94.81v-.66a.32.32,0,0,1,.09-.24.29.29,0,0,1,.23-.09h.22a.32.32,0,0,1,.24.09.32.32,0,0,1,.09.24v7A4.86,4.86,0,0,1,0,477.75a2.33,2.33,0,0,1-1,1.19A3.73,3.73,0,0,1-3,479.38Zm0-3.84a2.09,2.09,0,0,0,1.32-.38,2.36,2.36,0,0,0,.74-1A3.73,3.73,0,0,0-.65,473c0-.14,0-.31,0-.51s0-.37,0-.52a3.67,3.67,0,0,0-.26-1.16,2.36,2.36,0,0,0-.74-1A2.09,2.09,0,0,0-3,469.47a2.13,2.13,0,0,0-1.32.38,2,2,0,0,0-.71,1,4.47,4.47,0,0,0-.24,1.29c0,.27,0,.53,0,.8A4.47,4.47,0,0,0-5,474.2a2,2,0,0,0,.71,1A2.13,2.13,0,0,0-3,475.54Z" transform="translate(108.13 -458.91)"/>
        <path class="cls-4" d="M2.72,467.26a.29.29,0,0,1-.23-.09.3.3,0,0,1-.09-.23v-.54a.32.32,0,0,1,.09-.24.29.29,0,0,1,.23-.09h.54a.36.36,0,0,1,.24.09.32.32,0,0,1,.09.24v.54a.3.3,0,0,1-.09.23.36.36,0,0,1-.24.09Zm.15,9a.36.36,0,0,1-.23-.08.36.36,0,0,1-.08-.23V469.1a.36.36,0,0,1,.08-.23.36.36,0,0,1,.23-.08h.25a.36.36,0,0,1,.23.08.36.36,0,0,1,.08.23v6.82a.36.36,0,0,1-.08.23.36.36,0,0,1-.23.08Z" transform="translate(108.13 -458.91)"/>
        <path class="cls-4" d="M8.58,476.38A3.27,3.27,0,0,1,6.86,476a2.82,2.82,0,0,1-1.06-1.18,4.05,4.05,0,0,1-.39-1.66c0-.14,0-.34,0-.6s0-.46,0-.6a4.06,4.06,0,0,1,.39-1.67,2.85,2.85,0,0,1,1.06-1.17,3.27,3.27,0,0,1,1.72-.43,3.29,3.29,0,0,1,1.73.43,2.85,2.85,0,0,1,1.06,1.17,4.06,4.06,0,0,1,.39,1.67c0,.14,0,.34,0,.6s0,.46,0,.6a4.05,4.05,0,0,1-.39,1.66A2.82,2.82,0,0,1,10.31,476,3.29,3.29,0,0,1,8.58,476.38Zm0-.84a2.19,2.19,0,0,0,1.64-.64,2.7,2.7,0,0,0,.67-1.86c0-.14,0-.32,0-.53s0-.39,0-.53a2.71,2.71,0,0,0-.67-1.87,2.23,2.23,0,0,0-1.64-.64,2.22,2.22,0,0,0-1.63.64A2.71,2.71,0,0,0,6.28,472c0,.14,0,.32,0,.53s0,.39,0,.53A2.7,2.7,0,0,0,7,474.9,2.18,2.18,0,0,0,8.58,475.54Z" transform="translate(108.13 -458.91)"/>
        <path class="cls-4" d="M20.12,476.38a3.06,3.06,0,0,1-1.41-.31,2.61,2.61,0,0,1-.94-.8,3.54,3.54,0,0,1-.52-1.11,5.91,5.91,0,0,1-.19-1.25c0-.14,0-.28,0-.4s0-.26,0-.4a5.91,5.91,0,0,1,.19-1.25,3.54,3.54,0,0,1,.52-1.11,2.61,2.61,0,0,1,.94-.8,3.06,3.06,0,0,1,1.41-.31,2.83,2.83,0,0,1,2.41,1.14v-3.4a.28.28,0,0,1,.31-.31h.24a.29.29,0,0,1,.32.31v9.54a.29.29,0,0,1-.32.31h-.24a.28.28,0,0,1-.31-.31v-.68a2.75,2.75,0,0,1-.94.81A3,3,0,0,1,20.12,476.38Zm.09-.84a2.11,2.11,0,0,0,1.32-.38,2.36,2.36,0,0,0,.74-1,3.25,3.25,0,0,0,.26-1.17c0-.14,0-.32,0-.55s0-.42,0-.56a2.88,2.88,0,0,0-.27-1.13,2.26,2.26,0,0,0-.75-.93,2.11,2.11,0,0,0-1.3-.38,2.14,2.14,0,0,0-1.33.38,2,2,0,0,0-.7,1,4.16,4.16,0,0,0-.25,1.29c0,.27,0,.53,0,.8a4.16,4.16,0,0,0,.25,1.29,2,2,0,0,0,.7,1A2.14,2.14,0,0,0,20.21,475.54Z" transform="translate(108.13 -458.91)"/>
        <path class="cls-4" d="M28.5,476.38a2.85,2.85,0,0,1-2.21-.91,4,4,0,0,1-.93-2.39c0-.14,0-.33,0-.57s0-.43,0-.57a4.41,4.41,0,0,1,.46-1.72,2.86,2.86,0,0,1,1.07-1.16,3,3,0,0,1,1.61-.42,3.1,3.1,0,0,1,1.7.45,2.82,2.82,0,0,1,1.08,1.27,4.79,4.79,0,0,1,.38,2v.21a.3.3,0,0,1-.09.23.34.34,0,0,1-.24.09h-5.1V473a3,3,0,0,0,.31,1.22,2.32,2.32,0,0,0,.77.95,2,2,0,0,0,1.19.36,2.52,2.52,0,0,0,1-.18,2.6,2.6,0,0,0,.65-.41,2.18,2.18,0,0,0,.32-.34.74.74,0,0,1,.2-.22.6.6,0,0,1,.23,0h.22a.37.37,0,0,1,.23.07.25.25,0,0,1,.08.21,1.08,1.08,0,0,1-.23.5,2.88,2.88,0,0,1-.58.58,3.52,3.52,0,0,1-.93.47A3.79,3.79,0,0,1,28.5,476.38Zm-2.27-4.31h4.56V472a2.84,2.84,0,0,0-.28-1.29,2.23,2.23,0,0,0-.78-.91,2.27,2.27,0,0,0-1.23-.34,2.09,2.09,0,0,0-2,1.25,3,3,0,0,0-.27,1.29Z" transform="translate(108.13 -458.91)"/>
        <path class="cls-4" d="M-33.6,493.41a.3.3,0,0,1-.23-.09.29.29,0,0,1-.09-.23V483.7a.32.32,0,0,1,.09-.23.34.34,0,0,1,.23-.08h.27a.34.34,0,0,1,.23.08.32.32,0,0,1,.09.23v9.39a.29.29,0,0,1-.09.23.3.3,0,0,1-.23.09Z" transform="translate(108.13 -458.91)"/>
        <path class="cls-4" d="M-30.19,493.41a.29.29,0,0,1-.23-.09.29.29,0,0,1-.09-.23v-6.81a.3.3,0,0,1,.09-.23.28.28,0,0,1,.23-.08h.24a.31.31,0,0,1,.23.08.34.34,0,0,1,.08.23V487a3.18,3.18,0,0,1,.94-.81,3,3,0,0,1,1.47-.32,2.91,2.91,0,0,1,1.62.42,2.67,2.67,0,0,1,1,1.15,4.07,4.07,0,0,1,.32,1.64v4.06a.29.29,0,0,1-.09.23.29.29,0,0,1-.23.09h-.24a.32.32,0,0,1-.23-.09.28.28,0,0,1-.08-.23v-4a2.71,2.71,0,0,0-.56-1.8,2,2,0,0,0-1.63-.65,2.17,2.17,0,0,0-1.64.65,2.5,2.5,0,0,0-.63,1.8v4a.32.32,0,0,1-.08.23.32.32,0,0,1-.23.09Z" transform="translate(108.13 -458.91)"/>
        <path class="cls-4" d="M-19.29,496.56a3.9,3.9,0,0,1-1.49-.24,2.48,2.48,0,0,1-.9-.6,2,2,0,0,1-.45-.7,2,2,0,0,1-.15-.57.25.25,0,0,1,.09-.23.34.34,0,0,1,.23-.1h.2a.46.46,0,0,1,.2.05.44.44,0,0,1,.14.26,3.09,3.09,0,0,0,.28.53,1.52,1.52,0,0,0,.62.54,2.48,2.48,0,0,0,1.16.23,3.82,3.82,0,0,0,1.32-.2,1.56,1.56,0,0,0,.81-.71,3,3,0,0,0,.28-1.41v-1a2.75,2.75,0,0,1-.94.81,3,3,0,0,1-1.47.32,3.06,3.06,0,0,1-1.41-.3,2.71,2.71,0,0,1-.94-.8,3.85,3.85,0,0,1-.53-1.12,5.23,5.23,0,0,1-.18-1.24c0-.27,0-.54,0-.8a5.31,5.31,0,0,1,.18-1.25,4,4,0,0,1,.53-1.12,2.71,2.71,0,0,1,.94-.8,3.06,3.06,0,0,1,1.41-.3,3,3,0,0,1,1.47.33,3.09,3.09,0,0,1,.94.8v-.66a.36.36,0,0,1,.08-.23.32.32,0,0,1,.23-.09h.23a.32.32,0,0,1,.24.09.32.32,0,0,1,.09.23v7a4.86,4.86,0,0,1-.27,1.66,2.28,2.28,0,0,1-1,1.18A3.61,3.61,0,0,1-19.29,496.56Zm0-3.84a2.12,2.12,0,0,0,1.31-.38,2.28,2.28,0,0,0,.74-1,3.55,3.55,0,0,0,.27-1.17c0-.14,0-.31,0-.51s0-.37,0-.52a3.55,3.55,0,0,0-.27-1.17,2.31,2.31,0,0,0-.74-1,2.06,2.06,0,0,0-1.31-.39,2.21,2.21,0,0,0-1.33.37,2.11,2.11,0,0,0-.7,1,4.16,4.16,0,0,0-.25,1.29c0,.26,0,.53,0,.8a4.16,4.16,0,0,0,.25,1.29,2.08,2.08,0,0,0,.7,1A2.14,2.14,0,0,0-19.27,492.72Z" transform="translate(108.13 -458.91)"/>
        <path class="cls-4" d="M-11,493.55a2.82,2.82,0,0,1-2.21-.91,3.94,3.94,0,0,1-.93-2.38c0-.14,0-.33,0-.57s0-.43,0-.58a4.36,4.36,0,0,1,.46-1.71,2.8,2.8,0,0,1,1.07-1.16,3,3,0,0,1,1.61-.42,3.1,3.1,0,0,1,1.7.45,2.82,2.82,0,0,1,1.08,1.27,4.76,4.76,0,0,1,.38,2v.21a.3.3,0,0,1-.09.23.33.33,0,0,1-.24.08h-5.1v.15a3.18,3.18,0,0,0,.3,1.22,2.5,2.5,0,0,0,.78.95,2,2,0,0,0,1.19.36,2.52,2.52,0,0,0,1-.18,2.6,2.6,0,0,0,.65-.41,2.18,2.18,0,0,0,.32-.34.63.63,0,0,1,.2-.22.55.55,0,0,1,.23,0h.22a.38.38,0,0,1,.23.08.23.23,0,0,1,.07.21.93.93,0,0,1-.22.49,2.65,2.65,0,0,1-.58.58,3.53,3.53,0,0,1-.93.48A3.84,3.84,0,0,1-11,493.55Zm-2.27-4.31h4.56v-.05A2.84,2.84,0,0,0-9,487.9a2.16,2.16,0,0,0-.78-.91,2.19,2.19,0,0,0-1.23-.34,2.14,2.14,0,0,0-1.23.34,2.14,2.14,0,0,0-.77.91,3,3,0,0,0-.27,1.29Z" transform="translate(108.13 -458.91)"/>
        <path class="cls-4" d="M-5.62,493.41a.28.28,0,0,1-.22-.09.29.29,0,0,1-.09-.23v-6.81a.3.3,0,0,1,.09-.23.27.27,0,0,1,.22-.08h.25a.31.31,0,0,1,.23.08.34.34,0,0,1,.08.23V487a3.18,3.18,0,0,1,.94-.81,3,3,0,0,1,1.47-.32,2.91,2.91,0,0,1,1.62.42,2.67,2.67,0,0,1,1,1.15A4.07,4.07,0,0,1,.27,489v4.06a.29.29,0,0,1-.09.23.3.3,0,0,1-.23.09H-.29a.3.3,0,0,1-.23-.09.29.29,0,0,1-.09-.23v-4a2.71,2.71,0,0,0-.55-1.8,2.06,2.06,0,0,0-1.63-.65,2.17,2.17,0,0,0-1.64.65,2.5,2.5,0,0,0-.63,1.8v4a.32.32,0,0,1-.08.23.32.32,0,0,1-.23.09Z" transform="translate(108.13 -458.91)"/>
        <path class="cls-4" d="M2.67,484.43a.31.31,0,0,1-.23-.08.36.36,0,0,1-.08-.23v-.54a.36.36,0,0,1,.08-.24.32.32,0,0,1,.23-.09h.55a.32.32,0,0,1,.23.09.33.33,0,0,1,.1.24v.54a.33.33,0,0,1-.1.23.31.31,0,0,1-.23.08Zm.16,9a.3.3,0,0,1-.23-.09.29.29,0,0,1-.09-.23v-6.81a.3.3,0,0,1,.09-.23.3.3,0,0,1,.23-.08h.24a.28.28,0,0,1,.23.08.3.3,0,0,1,.09.23v6.81a.31.31,0,0,1-.32.32Z" transform="translate(108.13 -458.91)"/>
        <path class="cls-4" d="M8.47,493.55a2.78,2.78,0,0,1-2.2-.91,3.88,3.88,0,0,1-.94-2.38c0-.14,0-.33,0-.57s0-.43,0-.58a4.54,4.54,0,0,1,.46-1.71,2.86,2.86,0,0,1,1.07-1.16,3,3,0,0,1,1.61-.42,3.05,3.05,0,0,1,1.7.45,2.82,2.82,0,0,1,1.08,1.27,4.6,4.6,0,0,1,.38,2v.21a.3.3,0,0,1-.09.23.32.32,0,0,1-.24.08H6.21v.15a3.18,3.18,0,0,0,.3,1.22,2.47,2.47,0,0,0,.77.95,2,2,0,0,0,1.19.36,2.52,2.52,0,0,0,1-.18,2.68,2.68,0,0,0,.66-.41,2,2,0,0,0,.31-.34c.09-.12.15-.2.2-.22a.59.59,0,0,1,.23,0h.23a.35.35,0,0,1,.22.08.24.24,0,0,1,.08.21,1.13,1.13,0,0,1-.22.49,2.71,2.71,0,0,1-.59.58,3.46,3.46,0,0,1-.92.48A3.91,3.91,0,0,1,8.47,493.55Zm-2.26-4.31h4.55v-.05a3,3,0,0,0-.27-1.29A2.19,2.19,0,0,0,9.7,487a2.14,2.14,0,0,0-1.23-.34,2.09,2.09,0,0,0-1.22.34,2.16,2.16,0,0,0-.78.91,3.13,3.13,0,0,0-.26,1.29Z" transform="translate(108.13 -458.91)"/>
        <path class="cls-4" d="M13.84,493.41a.3.3,0,0,1-.23-.09.29.29,0,0,1-.09-.23v-6.8a.32.32,0,0,1,.09-.23.3.3,0,0,1,.23-.09h.23a.32.32,0,0,1,.23.09.29.29,0,0,1,.1.23V487a1.66,1.66,0,0,1,.74-.74,2.7,2.7,0,0,1,1.2-.24h.53a.3.3,0,0,1,.23.08.3.3,0,0,1,.09.23v.2a.31.31,0,0,1-.32.32h-.61a1.73,1.73,0,0,0-1.86,1.86v4.43a.26.26,0,0,1-.1.23.32.32,0,0,1-.23.09Z" transform="translate(108.13 -458.91)"/>
        <path class="cls-4" d="M21.17,493.55a3.22,3.22,0,0,1-1.73-.43A2.8,2.8,0,0,1,18.38,492a4.09,4.09,0,0,1-.39-1.66c0-.14,0-.34,0-.6s0-.46,0-.6a4.06,4.06,0,0,1,.39-1.67,2.92,2.92,0,0,1,1.06-1.17,3.31,3.31,0,0,1,1.73-.43,3.27,3.27,0,0,1,1.72.43A2.78,2.78,0,0,1,24,487.42a3.91,3.91,0,0,1,.4,1.67c0,.14,0,.34,0,.6s0,.46,0,.6A3.94,3.94,0,0,1,24,492a2.67,2.67,0,0,1-1.06,1.17A3.18,3.18,0,0,1,21.17,493.55Zm0-.83a2.17,2.17,0,0,0,1.63-.64,2.7,2.7,0,0,0,.67-1.86c0-.15,0-.32,0-.53s0-.39,0-.53a2.69,2.69,0,0,0-.67-1.87,2.4,2.4,0,0,0-3.26,0,2.7,2.7,0,0,0-.68,1.87c0,.14,0,.32,0,.53s0,.38,0,.53a2.71,2.71,0,0,0,.68,1.86A2.17,2.17,0,0,0,21.17,492.72Z" transform="translate(108.13 -458.91)"/>
        <path class="cls-4" d="M28.68,493.55a3.55,3.55,0,0,1-1.28-.2,2.92,2.92,0,0,1-.88-.48,2.13,2.13,0,0,1-.51-.55,1.17,1.17,0,0,1-.18-.41.25.25,0,0,1,.1-.24.42.42,0,0,1,.22-.08h.21a.33.33,0,0,1,.15,0,.48.48,0,0,1,.17.16,3.67,3.67,0,0,0,.43.46,1.62,1.62,0,0,0,.62.35,2.87,2.87,0,0,0,.95.13,2.76,2.76,0,0,0,1.42-.33,1.06,1.06,0,0,0,.56-1,.94.94,0,0,0-.22-.64,1.73,1.73,0,0,0-.76-.43,11,11,0,0,0-1.43-.39,4.64,4.64,0,0,1-1.38-.52,1.57,1.57,0,0,1-.65-.69,2.19,2.19,0,0,1-.17-.85,1.87,1.87,0,0,1,.28-1,2.2,2.2,0,0,1,.86-.79,2.87,2.87,0,0,1,1.42-.31,3.28,3.28,0,0,1,1.2.19,2.6,2.6,0,0,1,.81.45,2.12,2.12,0,0,1,.46.52,1.11,1.11,0,0,1,.17.42.28.28,0,0,1-.09.23.38.38,0,0,1-.23.08h-.21a.29.29,0,0,1-.19,0,.53.53,0,0,1-.13-.13,2.38,2.38,0,0,0-.34-.43,1.59,1.59,0,0,0-.54-.33,2.78,2.78,0,0,0-.91-.12,2,2,0,0,0-1.27.35,1.14,1.14,0,0,0-.42.9.94.94,0,0,0,.17.55,1.49,1.49,0,0,0,.65.43,10.43,10.43,0,0,0,1.37.41,5.19,5.19,0,0,1,1.45.49,1.89,1.89,0,0,1,.65,2.7,2.36,2.36,0,0,1-1,.78A3.83,3.83,0,0,1,28.68,493.55Z" transform="translate(108.13 -458.91)"/>
        <path class="cls-4" d="M-31.41,510.73a3.06,3.06,0,0,1-1.41-.3,2.62,2.62,0,0,1-.94-.8,3.48,3.48,0,0,1-.52-1.12,5.25,5.25,0,0,1-.19-1.24c0-.15,0-.28,0-.4s0-.26,0-.41a5.25,5.25,0,0,1,.19-1.24,3.48,3.48,0,0,1,.52-1.12,2.62,2.62,0,0,1,.94-.8,3.06,3.06,0,0,1,1.41-.3,3,3,0,0,1,1.47.33,3.17,3.17,0,0,1,.93.8v-3.39a.3.3,0,0,1,.09-.23.3.3,0,0,1,.23-.09h.24a.3.3,0,0,1,.23.09.3.3,0,0,1,.09.23v9.53a.3.3,0,0,1-.09.23.3.3,0,0,1-.23.09h-.24a.3.3,0,0,1-.23-.09.3.3,0,0,1-.09-.23v-.67a3.06,3.06,0,0,1-.93.81A3.08,3.08,0,0,1-31.41,510.73Zm.08-.83a2.07,2.07,0,0,0,1.32-.39,2.35,2.35,0,0,0,.75-1,3.28,3.28,0,0,0,.25-1.17c0-.14,0-.33,0-.56s0-.41,0-.56a2.9,2.9,0,0,0-.26-1.13,2.42,2.42,0,0,0-.75-.93,2.21,2.21,0,0,0-1.31-.37,2.2,2.2,0,0,0-1.32.37,2.13,2.13,0,0,0-.71,1,4.47,4.47,0,0,0-.24,1.28q0,.41,0,.81a4.47,4.47,0,0,0,.24,1.28,2.08,2.08,0,0,0,.71,1A2.13,2.13,0,0,0-31.33,509.9Z" transform="translate(108.13 -458.91)"/>
        <path class="cls-4" d="M-23,510.73a2.79,2.79,0,0,1-2.2-.91,3.82,3.82,0,0,1-.93-2.38c0-.14,0-.34,0-.57s0-.43,0-.58a4.32,4.32,0,0,1,.46-1.71,2.77,2.77,0,0,1,1.06-1.16A3,3,0,0,1-23,503a3.2,3.2,0,0,1,1.71.44,3,3,0,0,1,1.08,1.28,4.74,4.74,0,0,1,.38,2v.22a.29.29,0,0,1-.1.23.31.31,0,0,1-.23.08h-5.1v.15a3.22,3.22,0,0,0,.3,1.22,2.41,2.41,0,0,0,.78,1,1.94,1.94,0,0,0,1.18.36,2.43,2.43,0,0,0,1-.19,2.34,2.34,0,0,0,.65-.4A1.63,1.63,0,0,0-21,509a.91.91,0,0,1,.2-.22.47.47,0,0,1,.23,0h.23a.33.33,0,0,1,.22.08.21.21,0,0,1,.08.21,1,1,0,0,1-.22.49,2.5,2.5,0,0,1-.59.58,3.18,3.18,0,0,1-.92.47A3.59,3.59,0,0,1-23,510.73Zm-2.26-4.31h4.55v-.05a3,3,0,0,0-.27-1.29,2.12,2.12,0,0,0-.79-.91,2.14,2.14,0,0,0-1.23-.34,2.13,2.13,0,0,0-1.22.34,2.08,2.08,0,0,0-.77.91,3,3,0,0,0-.27,1.29Z" transform="translate(108.13 -458.91)"/>
        <path class="cls-4" d="M-17.66,510.59a.28.28,0,0,1-.22-.09.3.3,0,0,1-.09-.23v-9.53a.3.3,0,0,1,.09-.23.28.28,0,0,1,.22-.09h.25a.32.32,0,0,1,.23.09.3.3,0,0,1,.08.23v9.53a.3.3,0,0,1-.08.23.32.32,0,0,1-.23.09Z" transform="translate(108.13 -458.91)"/>
        <path class="cls-4" d="M-10.57,510.59a.32.32,0,0,1-.23-.09.3.3,0,0,1-.08-.23V500.9a.33.33,0,0,1,.08-.25.36.36,0,0,1,.23-.08h3.48a4.22,4.22,0,0,1,1.74.33,2.59,2.59,0,0,1,1.14,1,3,3,0,0,1,.41,1.63,3,3,0,0,1-.41,1.63,2.59,2.59,0,0,1-1.14,1,4.22,4.22,0,0,1-1.74.33H-10v3.78a.3.3,0,0,1-.09.23.31.31,0,0,1-.24.09Zm.59-5h2.82a2.71,2.71,0,0,0,1.85-.54,2,2,0,0,0,.61-1.56A2,2,0,0,0-5.31,502a2.71,2.71,0,0,0-1.85-.54H-10Z" transform="translate(108.13 -458.91)"/>
        <path class="cls-4" d="M.58,510.73a2.79,2.79,0,0,1-2.2-.91,3.82,3.82,0,0,1-.93-2.38c0-.14,0-.34,0-.57s0-.43,0-.58a4.32,4.32,0,0,1,.46-1.71A2.77,2.77,0,0,1-1,503.42,3,3,0,0,1,.58,503a3.2,3.2,0,0,1,1.71.44,3,3,0,0,1,1.08,1.28,4.74,4.74,0,0,1,.38,2v.22a.33.33,0,0,1-.1.23.31.31,0,0,1-.23.08h-5.1v.15a3.22,3.22,0,0,0,.3,1.22,2.47,2.47,0,0,0,.77,1,2,2,0,0,0,1.19.36,2.43,2.43,0,0,0,1-.19,2.49,2.49,0,0,0,.65-.4,2,2,0,0,0,.31-.34c.09-.12.15-.2.2-.22a.47.47,0,0,1,.23,0h.23a.33.33,0,0,1,.22.08.23.23,0,0,1,.08.21,1,1,0,0,1-.22.49,2.5,2.5,0,0,1-.59.58,3.18,3.18,0,0,1-.92.47A3.59,3.59,0,0,1,.58,510.73Zm-2.26-4.31H2.87v-.05a3,3,0,0,0-.27-1.29,2.12,2.12,0,0,0-.79-.91,2.14,2.14,0,0,0-1.23-.34,2.13,2.13,0,0,0-1.22.34,2.08,2.08,0,0,0-.77.91,3,3,0,0,0-.27,1.29Z" transform="translate(108.13 -458.91)"/>
        <path class="cls-4" d="M6,510.59a.32.32,0,0,1-.23-.09.34.34,0,0,1-.08-.23v-6.8a.36.36,0,0,1,.08-.23.29.29,0,0,1,.23-.1h.23a.31.31,0,0,1,.24.1.32.32,0,0,1,.09.23v.66a1.66,1.66,0,0,1,.74-.74,2.74,2.74,0,0,1,1.21-.25H9a.28.28,0,0,1,.22.09.3.3,0,0,1,.09.23v.2a.32.32,0,0,1-.09.23A.27.27,0,0,1,9,504H8.37a1.74,1.74,0,0,0-1.86,1.86v4.44a.3.3,0,0,1-.09.23.34.34,0,0,1-.24.09Z" transform="translate(108.13 -458.91)"/>
        <path class="cls-4" d="M13.41,510.73a2.85,2.85,0,0,1-1.61-.42,2.55,2.55,0,0,1-1-1.15,4.28,4.28,0,0,1-.3-1.64v-4.06a.3.3,0,0,1,.08-.23.32.32,0,0,1,.23-.09h.24a.29.29,0,0,1,.23.09.3.3,0,0,1,.09.23v4c0,1.63.71,2.45,2.13,2.45a2.15,2.15,0,0,0,1.63-.65,2.51,2.51,0,0,0,.62-1.8v-4a.3.3,0,0,1,.09-.23.28.28,0,0,1,.22-.09h.25a.32.32,0,0,1,.23.09.34.34,0,0,1,.08.23v6.81a.34.34,0,0,1-.08.23.32.32,0,0,1-.23.09h-.25a.28.28,0,0,1-.22-.09.3.3,0,0,1-.09-.23v-.67a3.42,3.42,0,0,1-.92.82A2.92,2.92,0,0,1,13.41,510.73Zm0-8.66c-.15,0-.22-.08-.22-.23a.21.21,0,0,1,.07-.18l1-1.19a.65.65,0,0,1,.22-.2.63.63,0,0,1,.31-.06h.59a.24.24,0,0,1,.27.27.21.21,0,0,1-.07.17L14,501.93a.57.57,0,0,1-.21.12l-.23,0Z" transform="translate(108.13 -458.91)"/>
      </g>
    </g>
    <rect class="cls-1" x="236.36" width="1.72" height="53.42" rx="0.65"/>
    <g>
      <g>
        <path class="cls-1" d="M144.39,475.52a3.94,3.94,0,0,1-2.12-.51,3.16,3.16,0,0,1-1.23-1.38,5.23,5.23,0,0,1-.44-2c0-.39,0-.81,0-1.26s0-.88,0-1.29a5.24,5.24,0,0,1,.44-2,3.05,3.05,0,0,1,1.23-1.38,4,4,0,0,1,2.12-.5,4.44,4.44,0,0,1,1.73.29,3.28,3.28,0,0,1,1.17.75,3,3,0,0,1,.67,1,3.21,3.21,0,0,1,.25,1.05.21.21,0,0,1-.08.21.33.33,0,0,1-.22.08h-.28a.27.27,0,0,1-.2-.07.34.34,0,0,1-.12-.23,2.57,2.57,0,0,0-1-1.75,3.45,3.45,0,0,0-1.9-.47,2.86,2.86,0,0,0-2.07.73,3.36,3.36,0,0,0-.82,2.36q0,1.17,0,2.4a3.34,3.34,0,0,0,.82,2.36,2.87,2.87,0,0,0,2.07.74,3.46,3.46,0,0,0,1.9-.48,2.54,2.54,0,0,0,1-1.74.34.34,0,0,1,.12-.24.32.32,0,0,1,.2-.06h.28a.29.29,0,0,1,.22.08.2.2,0,0,1,.08.2,3.2,3.2,0,0,1-.25,1.06,3.14,3.14,0,0,1-.67,1,3.28,3.28,0,0,1-1.17.75A4.63,4.63,0,0,1,144.39,475.52Z" transform="translate(108.13 -458.91)"/>
        <path class="cls-1" d="M153,475.52a3.29,3.29,0,0,1-1.73-.43,2.88,2.88,0,0,1-1.06-1.18,4.05,4.05,0,0,1-.39-1.66c0-.14,0-.34,0-.6s0-.46,0-.6a4.06,4.06,0,0,1,.39-1.67,2.92,2.92,0,0,1,1.06-1.17,3.75,3.75,0,0,1,3.45,0,2.85,2.85,0,0,1,1.06,1.17,4.06,4.06,0,0,1,.39,1.67c0,.14,0,.34,0,.6s0,.46,0,.6a4.05,4.05,0,0,1-.39,1.66,2.82,2.82,0,0,1-1.06,1.18A3.27,3.27,0,0,1,153,475.52Zm0-.84a2.18,2.18,0,0,0,1.63-.64,2.7,2.7,0,0,0,.67-1.86c0-.14,0-.32,0-.53s0-.39,0-.53a2.71,2.71,0,0,0-.67-1.87,2.44,2.44,0,0,0-3.27,0,2.76,2.76,0,0,0-.67,1.87c0,.14,0,.32,0,.53s0,.39,0,.53a2.75,2.75,0,0,0,.67,1.86A2.19,2.19,0,0,0,153,474.68Z" transform="translate(108.13 -458.91)"/>
        <path class="cls-1" d="M158.45,475.37a.34.34,0,0,1-.23-.08.32.32,0,0,1-.09-.23v-9.54a.32.32,0,0,1,.09-.23.34.34,0,0,1,.23-.08h.24a.34.34,0,0,1,.23.08.32.32,0,0,1,.09.23v9.54a.32.32,0,0,1-.09.23.34.34,0,0,1-.23.08Z" transform="translate(108.13 -458.91)"/>
        <path class="cls-1" d="M164.1,475.52a2.83,2.83,0,0,1-2.2-.91,3.85,3.85,0,0,1-.93-2.39c0-.14,0-.33,0-.57s0-.43,0-.57a4.41,4.41,0,0,1,.46-1.72,2.84,2.84,0,0,1,1.06-1.16,3,3,0,0,1,1.61-.41,3.11,3.11,0,0,1,1.71.44,3,3,0,0,1,1.08,1.27,4.79,4.79,0,0,1,.38,2v.21a.26.26,0,0,1-.1.23.32.32,0,0,1-.23.09h-5.1v.14a3.27,3.27,0,0,0,.3,1.23,2.38,2.38,0,0,0,.78.94,1.94,1.94,0,0,0,1.18.36,2.6,2.6,0,0,0,1-.18,2.34,2.34,0,0,0,.65-.41,2,2,0,0,0,.31-.34,1.18,1.18,0,0,1,.2-.22.67.67,0,0,1,.23,0h.23a.29.29,0,0,1,.22.08.2.2,0,0,1,.08.2,1,1,0,0,1-.22.5,2.71,2.71,0,0,1-.59.58,3.18,3.18,0,0,1-.92.47A3.86,3.86,0,0,1,164.1,475.52Zm-2.26-4.31h4.55v-.06a3,3,0,0,0-.27-1.29,2.18,2.18,0,0,0-.79-.91,2.44,2.44,0,0,0-2.45,0,2.13,2.13,0,0,0-.77.91,3,3,0,0,0-.27,1.29Z" transform="translate(108.13 -458.91)"/>
        <path class="cls-1" d="M171.93,478.52a3.9,3.9,0,0,1-1.49-.24,2.36,2.36,0,0,1-.9-.6,2.06,2.06,0,0,1-.46-.7,2.37,2.37,0,0,1-.14-.56.26.26,0,0,1,.09-.24.32.32,0,0,1,.23-.09h.2a.35.35,0,0,1,.2.05.43.43,0,0,1,.14.25,3.09,3.09,0,0,0,.28.53,1.55,1.55,0,0,0,.61.54,2.56,2.56,0,0,0,1.17.23,3.82,3.82,0,0,0,1.32-.2,1.52,1.52,0,0,0,.81-.71,3,3,0,0,0,.28-1.41v-1a2.85,2.85,0,0,1-.94.81,3.4,3.4,0,0,1-2.88,0,2.53,2.53,0,0,1-.94-.8,3.56,3.56,0,0,1-.53-1.11,5.31,5.31,0,0,1-.18-1.25c0-.27,0-.53,0-.8A5.31,5.31,0,0,1,169,470a3.56,3.56,0,0,1,.53-1.11,2.53,2.53,0,0,1,.94-.8,3.06,3.06,0,0,1,1.41-.3,3,3,0,0,1,1.47.32,3.1,3.1,0,0,1,.94.81v-.66a.29.29,0,0,1,.31-.33h.23a.34.34,0,0,1,.24.09.32.32,0,0,1,.09.24v7a4.86,4.86,0,0,1-.27,1.66,2.35,2.35,0,0,1-1,1.19A3.71,3.71,0,0,1,171.93,478.52Zm0-3.84a2.06,2.06,0,0,0,1.31-.38,2.28,2.28,0,0,0,.74-1,3.44,3.44,0,0,0,.27-1.16c0-.15,0-.32,0-.52s0-.37,0-.52A3.44,3.44,0,0,0,174,470a2.28,2.28,0,0,0-.74-1,2.06,2.06,0,0,0-1.31-.38,2.14,2.14,0,0,0-1.33.37,2.1,2.1,0,0,0-.71,1,4.47,4.47,0,0,0-.24,1.29c0,.27,0,.53,0,.8a4.47,4.47,0,0,0,.24,1.29,2.1,2.1,0,0,0,.71,1A2.14,2.14,0,0,0,172,474.68Z" transform="translate(108.13 -458.91)"/>
        <path class="cls-1" d="M177.63,466.4a.32.32,0,0,1-.23-.09.3.3,0,0,1-.08-.23v-.54a.29.29,0,0,1,.31-.33h.54a.31.31,0,0,1,.33.33v.54a.3.3,0,0,1-.09.23.32.32,0,0,1-.24.09Zm.16,9a.34.34,0,0,1-.23-.08.32.32,0,0,1-.09-.23v-6.82a.32.32,0,0,1,.09-.23.34.34,0,0,1,.23-.08H178a.34.34,0,0,1,.23.08.32.32,0,0,1,.09.23v6.82a.32.32,0,0,1-.09.23.34.34,0,0,1-.23.08Z" transform="translate(108.13 -458.91)"/>
        <path class="cls-1" d="M183.5,475.52a3.31,3.31,0,0,1-1.73-.43,2.79,2.79,0,0,1-1.05-1.18,3.91,3.91,0,0,1-.4-1.66c0-.14,0-.34,0-.6s0-.46,0-.6a3.91,3.91,0,0,1,.4-1.67,2.83,2.83,0,0,1,1.05-1.17,3.31,3.31,0,0,1,1.73-.42,3.25,3.25,0,0,1,1.72.42,2.78,2.78,0,0,1,1.06,1.17,3.91,3.91,0,0,1,.4,1.67c0,.14,0,.34,0,.6s0,.46,0,.6a3.91,3.91,0,0,1-.4,1.66,2.75,2.75,0,0,1-1.06,1.18A3.25,3.25,0,0,1,183.5,475.52Zm0-.84a2.17,2.17,0,0,0,1.63-.64,2.66,2.66,0,0,0,.67-1.86c0-.14,0-.32,0-.53s0-.39,0-.53a2.67,2.67,0,0,0-.67-1.87,2.42,2.42,0,0,0-3.26,0,2.67,2.67,0,0,0-.67,1.87c0,.14,0,.32,0,.53s0,.39,0,.53a2.66,2.66,0,0,0,.67,1.86A2.17,2.17,0,0,0,183.5,474.68Z" transform="translate(108.13 -458.91)"/>
        <path class="cls-1" d="M195,475.52a2.88,2.88,0,0,1-1.41-.31,2.53,2.53,0,0,1-.94-.8,3.33,3.33,0,0,1-.52-1.11,5.92,5.92,0,0,1-.2-1.25c0-.14,0-.28,0-.4s0-.26,0-.4a5.92,5.92,0,0,1,.2-1.25,3.33,3.33,0,0,1,.52-1.11,2.53,2.53,0,0,1,.94-.8,3,3,0,0,1,1.41-.3,2.9,2.9,0,0,1,1.46.32,3,3,0,0,1,.94.81v-3.4a.29.29,0,0,1,.32-.31H198a.34.34,0,0,1,.23.08.32.32,0,0,1,.09.23v9.54a.32.32,0,0,1-.09.23.34.34,0,0,1-.23.08h-.24a.29.29,0,0,1-.32-.31v-.68a2.75,2.75,0,0,1-.94.81A2.89,2.89,0,0,1,195,475.52Zm.08-.84a2.07,2.07,0,0,0,1.32-.38,2.36,2.36,0,0,0,.74-1,3,3,0,0,0,.26-1.16c0-.15,0-.33,0-.56s0-.42,0-.56a3,3,0,0,0-.26-1.13,2.42,2.42,0,0,0-.75-.93,2.52,2.52,0,0,0-2.63,0,2,2,0,0,0-.71,1,4.47,4.47,0,0,0-.24,1.29c0,.27,0,.53,0,.8a4.47,4.47,0,0,0,.24,1.29,2,2,0,0,0,.71,1A2.13,2.13,0,0,0,195.12,474.68Z" transform="translate(108.13 -458.91)"/>
        <path class="cls-1" d="M203.41,475.52a2.83,2.83,0,0,1-2.2-.91,3.85,3.85,0,0,1-.93-2.39c0-.14,0-.33,0-.57s0-.43,0-.57a4.41,4.41,0,0,1,.45-1.72,2.93,2.93,0,0,1,1.07-1.16,3,3,0,0,1,1.61-.41,3.11,3.11,0,0,1,1.71.44,3,3,0,0,1,1.08,1.27,4.79,4.79,0,0,1,.38,2v.21a.29.29,0,0,1-.1.23.32.32,0,0,1-.23.09h-5.1v.14a3.27,3.27,0,0,0,.3,1.23,2.44,2.44,0,0,0,.77.94,2,2,0,0,0,1.19.36,2.6,2.6,0,0,0,1-.18,2.5,2.5,0,0,0,.65-.41,2,2,0,0,0,.31-.34.91.91,0,0,1,.2-.22.67.67,0,0,1,.23,0h.23a.29.29,0,0,1,.22.08.22.22,0,0,1,.08.2,1,1,0,0,1-.22.5,3,3,0,0,1-.59.58,3.18,3.18,0,0,1-.92.47A3.86,3.86,0,0,1,203.41,475.52Zm-2.26-4.31h4.55v-.06a3,3,0,0,0-.27-1.29,2.18,2.18,0,0,0-.79-.91,2.22,2.22,0,0,0-1.23-.33,2.18,2.18,0,0,0-1.22.33,2.13,2.13,0,0,0-.77.91,3,3,0,0,0-.27,1.29Z" transform="translate(108.13 -458.91)"/>
        <path class="cls-1" d="M140.28,492.55a.28.28,0,0,1-.2-.09.28.28,0,0,1-.08-.2.44.44,0,0,1,0-.15l3.62-9.29a.53.53,0,0,1,.15-.22.4.4,0,0,1,.26-.07h.49a.4.4,0,0,1,.26.07.4.4,0,0,1,.15.22l3.63,9.29a.89.89,0,0,1,0,.15.24.24,0,0,1-.08.2.28.28,0,0,1-.2.09H148a.29.29,0,0,1-.21-.08.53.53,0,0,1-.1-.14l-.89-2.29h-5.07l-.89,2.29a.25.25,0,0,1-.09.14.29.29,0,0,1-.22.08Zm1.84-3.36h4.38l-2.19-5.64Z" transform="translate(108.13 -458.91)"/>
        <path class="cls-1" d="M150.43,492.55a.32.32,0,0,1-.23-.09.31.31,0,0,1-.08-.22v-6.8a.36.36,0,0,1,.08-.24.32.32,0,0,1,.23-.09h.23a.31.31,0,0,1,.33.33v.65a1.63,1.63,0,0,1,.75-.74,2.67,2.67,0,0,1,1.2-.24h.53a.31.31,0,0,1,.23.08.36.36,0,0,1,.08.23v.2a.34.34,0,0,1-.08.23.32.32,0,0,1-.23.09h-.62A1.73,1.73,0,0,0,151,487.8v4.44a.28.28,0,0,1-.09.22.32.32,0,0,1-.24.09Z" transform="translate(108.13 -458.91)"/>
        <path class="cls-1" d="M160.34,495.27a.3.3,0,0,1-.23-.09A.28.28,0,0,1,160,495v-3.4a2.92,2.92,0,0,1-.93.8,3,3,0,0,1-1.47.33,3.19,3.19,0,0,1-1.41-.29,2.68,2.68,0,0,1-.94-.78,3.32,3.32,0,0,1-.52-1.09,5.09,5.09,0,0,1-.19-1.23c0-.14,0-.3,0-.47s0-.33,0-.47a5.25,5.25,0,0,1,.19-1.24,3.18,3.18,0,0,1,.52-1.08,2.48,2.48,0,0,1,.94-.78,3.06,3.06,0,0,1,1.41-.3,3,3,0,0,1,1.47.33,2.8,2.8,0,0,1,.93.8v-.67a.32.32,0,0,1,.09-.23.3.3,0,0,1,.23-.08h.24a.3.3,0,0,1,.23.08.32.32,0,0,1,.09.23V495a.28.28,0,0,1-.09.22.3.3,0,0,1-.23.09Zm-2.63-3.41a2.13,2.13,0,0,0,1.3-.37,2.42,2.42,0,0,0,.75-.93,2.86,2.86,0,0,0,.26-1.13c0-.14,0-.33,0-.56s0-.41,0-.56a3.18,3.18,0,0,0-.25-1.16,2.38,2.38,0,0,0-.75-1,2.06,2.06,0,0,0-1.31-.39,2.14,2.14,0,0,0-1.33.38,2.05,2.05,0,0,0-.71,1,4.47,4.47,0,0,0-.24,1.29c0,.26,0,.53,0,.8a4.47,4.47,0,0,0,.24,1.29,2.1,2.1,0,0,0,.71,1A2.14,2.14,0,0,0,157.71,491.86Z" transform="translate(108.13 -458.91)"/>
        <path class="cls-1" d="M166,492.69a2.85,2.85,0,0,1-1.61-.42,2.48,2.48,0,0,1-.94-1.15,4.08,4.08,0,0,1-.31-1.63v-4.07a.36.36,0,0,1,.08-.23.31.31,0,0,1,.23-.08h.25a.31.31,0,0,1,.23.08.36.36,0,0,1,.08.23v4c0,1.63.71,2.44,2.13,2.44a2.13,2.13,0,0,0,1.64-.65,2.49,2.49,0,0,0,.61-1.79v-4a.32.32,0,0,1,.09-.23.28.28,0,0,1,.23-.08H169a.3.3,0,0,1,.23.08.32.32,0,0,1,.09.23v6.82a.28.28,0,0,1-.09.22.3.3,0,0,1-.23.09h-.24a.29.29,0,0,1-.23-.09.28.28,0,0,1-.09-.22v-.68a3.13,3.13,0,0,1-.92.82A2.92,2.92,0,0,1,166,492.69Z" transform="translate(108.13 -458.91)"/>
        <path class="cls-1" d="M171.76,483.57a.28.28,0,0,1-.31-.31v-.54a.29.29,0,0,1,.31-.33h.55a.32.32,0,0,1,.23.09.32.32,0,0,1,.09.24v.54a.32.32,0,0,1-.09.23.31.31,0,0,1-.23.08Zm.16,9a.3.3,0,0,1-.23-.09.28.28,0,0,1-.09-.22v-6.82a.32.32,0,0,1,.09-.23.3.3,0,0,1,.23-.08h.24a.3.3,0,0,1,.23.08.32.32,0,0,1,.09.23v6.82a.28.28,0,0,1-.09.22.3.3,0,0,1-.23.09Z" transform="translate(108.13 -458.91)"/>
        <path class="cls-1" d="M177.3,492.55a1.91,1.91,0,0,1-1.17-.31,1.61,1.61,0,0,1-.6-.86,3.91,3.91,0,0,1-.18-1.22v-4.22h-1.11a.31.31,0,0,1-.32-.32v-.2a.32.32,0,0,1,.09-.23.3.3,0,0,1,.23-.08h1.11V482.7a.32.32,0,0,1,.09-.23.34.34,0,0,1,.23-.08h.24a.34.34,0,0,1,.23.08.32.32,0,0,1,.09.23v2.41H178a.3.3,0,0,1,.23.08.32.32,0,0,1,.09.23v.2a.31.31,0,0,1-.32.32h-1.77v4.16a2.34,2.34,0,0,0,.25,1.19.94.94,0,0,0,.89.43h.78a.32.32,0,0,1,.23.09.31.31,0,0,1,.08.22v.21a.31.31,0,0,1-.08.22.32.32,0,0,1-.23.09Z" transform="translate(108.13 -458.91)"/>
        <path class="cls-1" d="M182.7,492.69a2.82,2.82,0,0,1-2.21-.91,3.94,3.94,0,0,1-.93-2.38c0-.14,0-.33,0-.57s0-.43,0-.58a4.36,4.36,0,0,1,.46-1.71,2.86,2.86,0,0,1,1.07-1.16,3,3,0,0,1,1.61-.42,3.08,3.08,0,0,1,1.7.45,2.82,2.82,0,0,1,1.08,1.27,4.76,4.76,0,0,1,.38,2v.21a.3.3,0,0,1-.09.23.32.32,0,0,1-.24.09h-5.09v.14a3,3,0,0,0,.3,1.22,2.47,2.47,0,0,0,.77.95,2,2,0,0,0,1.19.36,2.52,2.52,0,0,0,1-.18,2.6,2.6,0,0,0,.65-.41,1.77,1.77,0,0,0,.32-.34.63.63,0,0,1,.2-.22.59.59,0,0,1,.23,0h.23a.35.35,0,0,1,.22.08.25.25,0,0,1,.08.21,1.12,1.12,0,0,1-.23.5,2.62,2.62,0,0,1-.58.57,3.25,3.25,0,0,1-.93.48A3.8,3.8,0,0,1,182.7,492.69Zm-2.26-4.31H185v-.05a3,3,0,0,0-.27-1.29,2.19,2.19,0,0,0-.79-.91,2.27,2.27,0,0,0-1.23-.34,2.22,2.22,0,0,0-1.23.34,2.14,2.14,0,0,0-.77.91,3,3,0,0,0-.26,1.29Z" transform="translate(108.13 -458.91)"/>
        <path class="cls-1" d="M190.57,492.69a3.42,3.42,0,0,1-1.7-.39,2.52,2.52,0,0,1-1.07-1.14,4.27,4.27,0,0,1-.39-1.76c0-.14,0-.33,0-.57s0-.43,0-.58a4.27,4.27,0,0,1,.39-1.76,2.54,2.54,0,0,1,1.07-1.13,3.32,3.32,0,0,1,1.7-.4,3.67,3.67,0,0,1,1.31.21,2.78,2.78,0,0,1,.91.54,2.34,2.34,0,0,1,.54.74,1.81,1.81,0,0,1,.2.79.25.25,0,0,1-.08.23.32.32,0,0,1-.23.08H193a.29.29,0,0,1-.21-.06.64.64,0,0,1-.13-.24,2.11,2.11,0,0,0-.83-1.13,2.34,2.34,0,0,0-1.28-.33,2.26,2.26,0,0,0-1.61.6,2.68,2.68,0,0,0-.68,1.94,8.34,8.34,0,0,0,0,1,2.7,2.7,0,0,0,.68,1.94,2.25,2.25,0,0,0,1.61.59,2.43,2.43,0,0,0,1.28-.32,2.1,2.1,0,0,0,.83-1.14.66.66,0,0,1,.13-.23.25.25,0,0,1,.21-.07h.2a.33.33,0,0,1,.23.09.24.24,0,0,1,.08.23,2,2,0,0,1-.12.63,2.27,2.27,0,0,1-.36.61,2.41,2.41,0,0,1-.57.53,3,3,0,0,1-.83.37A4,4,0,0,1,190.57,492.69Z" transform="translate(108.13 -458.91)"/>
        <path class="cls-1" d="M197.93,492.55a1.91,1.91,0,0,1-1.17-.31,1.69,1.69,0,0,1-.61-.86,4.23,4.23,0,0,1-.17-1.22v-4.22h-1.11a.29.29,0,0,1-.23-.09.3.3,0,0,1-.09-.23v-.2a.32.32,0,0,1,.09-.23.28.28,0,0,1,.23-.08H196V482.7a.32.32,0,0,1,.09-.23.34.34,0,0,1,.23-.08h.24a.34.34,0,0,1,.23.08.32.32,0,0,1,.09.23v2.41h1.77a.3.3,0,0,1,.23.08.32.32,0,0,1,.09.23v.2a.31.31,0,0,1-.32.32h-1.77v4.16a2.34,2.34,0,0,0,.25,1.19.93.93,0,0,0,.89.43h.77a.29.29,0,0,1,.23.09.28.28,0,0,1,.09.22v.21a.28.28,0,0,1-.09.22.29.29,0,0,1-.23.09Z" transform="translate(108.13 -458.91)"/>
        <path class="cls-1" d="M203.4,492.69a3.19,3.19,0,0,1-1.73-.43,2.8,2.8,0,0,1-1.06-1.17,4.09,4.09,0,0,1-.39-1.66c0-.14,0-.34,0-.6s0-.46,0-.6a4.06,4.06,0,0,1,.39-1.67,2.92,2.92,0,0,1,1.06-1.17,3.68,3.68,0,0,1,3.45,0,2.85,2.85,0,0,1,1.06,1.17,4.07,4.07,0,0,1,.4,1.67c0,.14,0,.34,0,.6s0,.46,0,.6a4.1,4.1,0,0,1-.4,1.66,2.73,2.73,0,0,1-1.06,1.17A3.18,3.18,0,0,1,203.4,492.69Zm0-.83a2.17,2.17,0,0,0,1.63-.64,2.7,2.7,0,0,0,.67-1.86c0-.15,0-.32,0-.53s0-.39,0-.53a2.69,2.69,0,0,0-.67-1.87,2.4,2.4,0,0,0-3.26,0,2.7,2.7,0,0,0-.68,1.87c0,.14,0,.32,0,.53s0,.38,0,.53a2.71,2.71,0,0,0,.68,1.86A2.17,2.17,0,0,0,203.4,491.86Z" transform="translate(108.13 -458.91)"/>
        <path class="cls-1" d="M210.91,492.69a3.55,3.55,0,0,1-1.28-.2,2.92,2.92,0,0,1-.88-.48,2.13,2.13,0,0,1-.51-.55,1.17,1.17,0,0,1-.18-.41.24.24,0,0,1,.11-.24.37.37,0,0,1,.21-.08h.21a.33.33,0,0,1,.15,0,.48.48,0,0,1,.17.16,3.09,3.09,0,0,0,.43.46,1.62,1.62,0,0,0,.62.35,2.87,2.87,0,0,0,.95.13,2.74,2.74,0,0,0,1.42-.33,1.06,1.06,0,0,0,.56-1,.94.94,0,0,0-.22-.64,1.74,1.74,0,0,0-.75-.43,11.68,11.68,0,0,0-1.44-.39,4.38,4.38,0,0,1-1.38-.52,1.63,1.63,0,0,1-.65-.69,2.19,2.19,0,0,1-.17-.85,1.8,1.8,0,0,1,.29-1,2.17,2.17,0,0,1,.85-.79,3,3,0,0,1,1.42-.31,3.51,3.51,0,0,1,1.2.19,2.6,2.6,0,0,1,.81.45,2.12,2.12,0,0,1,.46.52,1.11,1.11,0,0,1,.17.42.25.25,0,0,1-.09.23.38.38,0,0,1-.23.08H213a.29.29,0,0,1-.19-.05.53.53,0,0,1-.13-.13,2,2,0,0,0-.34-.43,1.44,1.44,0,0,0-.54-.32,2.51,2.51,0,0,0-.91-.13,2,2,0,0,0-1.27.35,1.14,1.14,0,0,0-.42.9.94.94,0,0,0,.17.55,1.49,1.49,0,0,0,.65.43,10.43,10.43,0,0,0,1.37.41,5.53,5.53,0,0,1,1.45.49,1.9,1.9,0,0,1,.75.7,1.87,1.87,0,0,1,.22.94,1.94,1.94,0,0,1-.32,1.06,2.3,2.3,0,0,1-1,.78A3.83,3.83,0,0,1,210.91,492.69Z" transform="translate(108.13 -458.91)"/>
        <path class="cls-1" d="M143.5,509.87a3.06,3.06,0,0,1-1.41-.3,2.59,2.59,0,0,1-.93-.8,3.4,3.4,0,0,1-.53-1.12,5.81,5.81,0,0,1-.19-1.24c0-.15,0-.28,0-.4s0-.26,0-.4a5.91,5.91,0,0,1,.19-1.25,3.5,3.5,0,0,1,.53-1.12,2.59,2.59,0,0,1,.93-.8,3.06,3.06,0,0,1,1.41-.3,2.93,2.93,0,0,1,1.47.33,3.09,3.09,0,0,1,.94.8v-3.39a.3.3,0,0,1,.09-.23.28.28,0,0,1,.22-.09h.25a.32.32,0,0,1,.23.09.34.34,0,0,1,.08.23v9.53a.34.34,0,0,1-.08.23.32.32,0,0,1-.23.09h-.25a.28.28,0,0,1-.22-.09.3.3,0,0,1-.09-.23v-.67a2.86,2.86,0,0,1-.94.81A3,3,0,0,1,143.5,509.87Zm.09-.83a2.17,2.17,0,0,0,1.32-.38,2.36,2.36,0,0,0,.74-1,3.3,3.3,0,0,0,.26-1.17c0-.14,0-.33,0-.56s0-.41,0-.55a2.92,2.92,0,0,0-.27-1.14,2.25,2.25,0,0,0-.75-.93,2.5,2.5,0,0,0-2.62,0,2.06,2.06,0,0,0-.71,1,4.16,4.16,0,0,0-.25,1.29c0,.26,0,.53,0,.8a4.22,4.22,0,0,0,.25,1.29,2,2,0,0,0,.71,1A2.11,2.11,0,0,0,143.59,509Z" transform="translate(108.13 -458.91)"/>
        <path class="cls-1" d="M151.88,509.87a2.82,2.82,0,0,1-2.21-.91,3.94,3.94,0,0,1-.93-2.38c0-.14,0-.33,0-.57s0-.43,0-.58a4.36,4.36,0,0,1,.46-1.71,2.8,2.8,0,0,1,1.07-1.16,3,3,0,0,1,1.61-.42,3.16,3.16,0,0,1,1.7.44,2.9,2.9,0,0,1,1.08,1.28,4.59,4.59,0,0,1,.38,2v.22a.3.3,0,0,1-.09.23.32.32,0,0,1-.24.08h-5.09v.15a3.22,3.22,0,0,0,.3,1.22,2.47,2.47,0,0,0,.77.95,2,2,0,0,0,1.19.36,2.52,2.52,0,0,0,1-.18,2.6,2.6,0,0,0,.65-.41,1.77,1.77,0,0,0,.32-.34.63.63,0,0,1,.2-.22.59.59,0,0,1,.23,0h.23a.35.35,0,0,1,.22.08.23.23,0,0,1,.08.21,1.13,1.13,0,0,1-.22.49,2.71,2.71,0,0,1-.59.58,3.38,3.38,0,0,1-.93.48A3.8,3.8,0,0,1,151.88,509.87Zm-2.26-4.31h4.55v-.05a3,3,0,0,0-.27-1.29,2.19,2.19,0,0,0-.79-.91,2.39,2.39,0,0,0-2.46,0,2.21,2.21,0,0,0-.77.91,3.13,3.13,0,0,0-.26,1.29Z" transform="translate(108.13 -458.91)"/>
        <path class="cls-1" d="M157.26,509.73a.32.32,0,0,1-.23-.09.3.3,0,0,1-.08-.23v-9.53a.3.3,0,0,1,.08-.23.32.32,0,0,1,.23-.09h.24a.29.29,0,0,1,.23.09.3.3,0,0,1,.09.23v9.53a.3.3,0,0,1-.09.23.29.29,0,0,1-.23.09Z" transform="translate(108.13 -458.91)"/>
        <path class="cls-1" d="M164.35,509.73a.29.29,0,0,1-.23-.09.3.3,0,0,1-.09-.23V500a.33.33,0,0,1,.09-.25.32.32,0,0,1,.23-.08h3.47a4.22,4.22,0,0,1,1.74.33,2.56,2.56,0,0,1,1.15,1,3.45,3.45,0,0,1,0,3.26,2.56,2.56,0,0,1-1.15,1,4.22,4.22,0,0,1-1.74.33h-2.89v3.78a.34.34,0,0,1-.08.23.33.33,0,0,1-.25.09Zm.58-5h2.82a2.75,2.75,0,0,0,1.86-.55,2.33,2.33,0,0,0,0-3.12,2.75,2.75,0,0,0-1.86-.54h-2.82Z" transform="translate(108.13 -458.91)"/>
        <path class="cls-1" d="M175.5,509.87a2.82,2.82,0,0,1-2.21-.91,3.94,3.94,0,0,1-.93-2.38c0-.14,0-.33,0-.57s0-.43,0-.58a4.36,4.36,0,0,1,.46-1.71,2.8,2.8,0,0,1,1.07-1.16,3,3,0,0,1,1.61-.42,3.16,3.16,0,0,1,1.7.44,2.9,2.9,0,0,1,1.08,1.28,4.74,4.74,0,0,1,.38,2v.22a.3.3,0,0,1-.09.23.32.32,0,0,1-.24.08h-5.09v.15a2.89,2.89,0,0,0,.3,1.22,2.47,2.47,0,0,0,.77.95,2,2,0,0,0,1.19.36,2.52,2.52,0,0,0,1-.18,2.6,2.6,0,0,0,.65-.41,2.18,2.18,0,0,0,.32-.34.63.63,0,0,1,.2-.22.59.59,0,0,1,.23,0h.23a.35.35,0,0,1,.22.08.23.23,0,0,1,.08.21,1.05,1.05,0,0,1-.23.49,2.44,2.44,0,0,1-.58.58,3.53,3.53,0,0,1-.93.48A3.8,3.8,0,0,1,175.5,509.87Zm-2.26-4.31h4.55v-.05a3,3,0,0,0-.27-1.29,2.26,2.26,0,0,0-.79-.91,2.19,2.19,0,0,0-1.23-.34,2.09,2.09,0,0,0-2,1.25,3,3,0,0,0-.26,1.29Z" transform="translate(108.13 -458.91)"/>
        <path class="cls-1" d="M180.87,509.73a.29.29,0,0,1-.23-.09.3.3,0,0,1-.09-.23v-6.8a.32.32,0,0,1,.09-.23.29.29,0,0,1,.23-.09h.22a.32.32,0,0,1,.24.09.32.32,0,0,1,.09.23v.66a1.68,1.68,0,0,1,.75-.74,2.67,2.67,0,0,1,1.2-.24h.53a.3.3,0,0,1,.23.08.3.3,0,0,1,.09.23v.2a.31.31,0,0,1-.32.32h-.61a1.74,1.74,0,0,0-1.87,1.86v4.43a.3.3,0,0,1-.09.23.32.32,0,0,1-.24.09Z" transform="translate(108.13 -458.91)"/>
        <path class="cls-1" d="M188.32,509.87a2.88,2.88,0,0,1-1.61-.42,2.53,2.53,0,0,1-.94-1.15,4.08,4.08,0,0,1-.31-1.63V502.6a.3.3,0,0,1,.09-.23.28.28,0,0,1,.23-.08H186a.31.31,0,0,1,.23.08.3.3,0,0,1,.08.23v4c0,1.64.71,2.45,2.14,2.45a2.16,2.16,0,0,0,1.63-.65,2.5,2.5,0,0,0,.61-1.8v-4a.3.3,0,0,1,.09-.23.3.3,0,0,1,.23-.08h.24a.3.3,0,0,1,.23.08.3.3,0,0,1,.09.23v6.81a.31.31,0,0,1-.32.32H191a.31.31,0,0,1-.32-.32v-.67a3,3,0,0,1-.92.82A2.92,2.92,0,0,1,188.32,509.87Zm0-8.66a.21.21,0,0,1-.23-.23.23.23,0,0,1,.07-.18l1-1.19a.93.93,0,0,1,.21-.2.67.67,0,0,1,.32-.06h.59a.24.24,0,0,1,.27.27.24.24,0,0,1-.07.17l-1.56,1.28a.78.78,0,0,1-.21.12l-.24,0Z" transform="translate(108.13 -458.91)"/>
      </g>
      <g>
        <path class="cls-4" d="M144.39,475.52a3.94,3.94,0,0,1-2.12-.51,3.16,3.16,0,0,1-1.23-1.38,5.23,5.23,0,0,1-.44-2c0-.39,0-.81,0-1.26s0-.88,0-1.29a5.24,5.24,0,0,1,.44-2,3.05,3.05,0,0,1,1.23-1.38,4,4,0,0,1,2.12-.5,4.44,4.44,0,0,1,1.73.29,3.28,3.28,0,0,1,1.17.75,3,3,0,0,1,.67,1,3.21,3.21,0,0,1,.25,1.05.21.21,0,0,1-.08.21.33.33,0,0,1-.22.08h-.28a.27.27,0,0,1-.2-.07.34.34,0,0,1-.12-.23,2.57,2.57,0,0,0-1-1.75,3.45,3.45,0,0,0-1.9-.47,2.86,2.86,0,0,0-2.07.73,3.36,3.36,0,0,0-.82,2.36q0,1.17,0,2.4a3.34,3.34,0,0,0,.82,2.36,2.87,2.87,0,0,0,2.07.74,3.46,3.46,0,0,0,1.9-.48,2.54,2.54,0,0,0,1-1.74.34.34,0,0,1,.12-.24.32.32,0,0,1,.2-.06h.28a.29.29,0,0,1,.22.08.2.2,0,0,1,.08.2,3.2,3.2,0,0,1-.25,1.06,3.14,3.14,0,0,1-.67,1,3.28,3.28,0,0,1-1.17.75A4.63,4.63,0,0,1,144.39,475.52Z" transform="translate(108.13 -458.91)"/>
        <path class="cls-4" d="M153,475.52a3.29,3.29,0,0,1-1.73-.43,2.88,2.88,0,0,1-1.06-1.18,4.05,4.05,0,0,1-.39-1.66c0-.14,0-.34,0-.6s0-.46,0-.6a4.06,4.06,0,0,1,.39-1.67,2.92,2.92,0,0,1,1.06-1.17,3.75,3.75,0,0,1,3.45,0,2.85,2.85,0,0,1,1.06,1.17,4.06,4.06,0,0,1,.39,1.67c0,.14,0,.34,0,.6s0,.46,0,.6a4.05,4.05,0,0,1-.39,1.66,2.82,2.82,0,0,1-1.06,1.18A3.27,3.27,0,0,1,153,475.52Zm0-.84a2.18,2.18,0,0,0,1.63-.64,2.7,2.7,0,0,0,.67-1.86c0-.14,0-.32,0-.53s0-.39,0-.53a2.71,2.71,0,0,0-.67-1.87,2.44,2.44,0,0,0-3.27,0,2.76,2.76,0,0,0-.67,1.87c0,.14,0,.32,0,.53s0,.39,0,.53a2.75,2.75,0,0,0,.67,1.86A2.19,2.19,0,0,0,153,474.68Z" transform="translate(108.13 -458.91)"/>
        <path class="cls-4" d="M158.45,475.37a.34.34,0,0,1-.23-.08.32.32,0,0,1-.09-.23v-9.54a.32.32,0,0,1,.09-.23.34.34,0,0,1,.23-.08h.24a.34.34,0,0,1,.23.08.32.32,0,0,1,.09.23v9.54a.32.32,0,0,1-.09.23.34.34,0,0,1-.23.08Z" transform="translate(108.13 -458.91)"/>
        <path class="cls-4" d="M164.1,475.52a2.83,2.83,0,0,1-2.2-.91,3.85,3.85,0,0,1-.93-2.39c0-.14,0-.33,0-.57s0-.43,0-.57a4.41,4.41,0,0,1,.46-1.72,2.84,2.84,0,0,1,1.06-1.16,3,3,0,0,1,1.61-.41,3.11,3.11,0,0,1,1.71.44,3,3,0,0,1,1.08,1.27,4.79,4.79,0,0,1,.38,2v.21a.26.26,0,0,1-.1.23.32.32,0,0,1-.23.09h-5.1v.14a3.27,3.27,0,0,0,.3,1.23,2.38,2.38,0,0,0,.78.94,1.94,1.94,0,0,0,1.18.36,2.6,2.6,0,0,0,1-.18,2.34,2.34,0,0,0,.65-.41,2,2,0,0,0,.31-.34,1.18,1.18,0,0,1,.2-.22.67.67,0,0,1,.23,0h.23a.29.29,0,0,1,.22.08.2.2,0,0,1,.08.2,1,1,0,0,1-.22.5,2.71,2.71,0,0,1-.59.58,3.18,3.18,0,0,1-.92.47A3.86,3.86,0,0,1,164.1,475.52Zm-2.26-4.31h4.55v-.06a3,3,0,0,0-.27-1.29,2.18,2.18,0,0,0-.79-.91,2.44,2.44,0,0,0-2.45,0,2.13,2.13,0,0,0-.77.91,3,3,0,0,0-.27,1.29Z" transform="translate(108.13 -458.91)"/>
        <path class="cls-4" d="M171.93,478.52a3.9,3.9,0,0,1-1.49-.24,2.36,2.36,0,0,1-.9-.6,2.06,2.06,0,0,1-.46-.7,2.37,2.37,0,0,1-.14-.56.26.26,0,0,1,.09-.24.32.32,0,0,1,.23-.09h.2a.35.35,0,0,1,.2.05.43.43,0,0,1,.14.25,3.09,3.09,0,0,0,.28.53,1.55,1.55,0,0,0,.61.54,2.56,2.56,0,0,0,1.17.23,3.82,3.82,0,0,0,1.32-.2,1.52,1.52,0,0,0,.81-.71,3,3,0,0,0,.28-1.41v-1a2.85,2.85,0,0,1-.94.81,3.4,3.4,0,0,1-2.88,0,2.53,2.53,0,0,1-.94-.8,3.56,3.56,0,0,1-.53-1.11,5.31,5.31,0,0,1-.18-1.25c0-.27,0-.53,0-.8A5.31,5.31,0,0,1,169,470a3.56,3.56,0,0,1,.53-1.11,2.53,2.53,0,0,1,.94-.8,3.06,3.06,0,0,1,1.41-.3,3,3,0,0,1,1.47.32,3.1,3.1,0,0,1,.94.81v-.66a.29.29,0,0,1,.31-.33h.23a.34.34,0,0,1,.24.09.32.32,0,0,1,.09.24v7a4.86,4.86,0,0,1-.27,1.66,2.35,2.35,0,0,1-1,1.19A3.71,3.71,0,0,1,171.93,478.52Zm0-3.84a2.06,2.06,0,0,0,1.31-.38,2.28,2.28,0,0,0,.74-1,3.44,3.44,0,0,0,.27-1.16c0-.15,0-.32,0-.52s0-.37,0-.52A3.44,3.44,0,0,0,174,470a2.28,2.28,0,0,0-.74-1,2.06,2.06,0,0,0-1.31-.38,2.14,2.14,0,0,0-1.33.37,2.1,2.1,0,0,0-.71,1,4.47,4.47,0,0,0-.24,1.29c0,.27,0,.53,0,.8a4.47,4.47,0,0,0,.24,1.29,2.1,2.1,0,0,0,.71,1A2.14,2.14,0,0,0,172,474.68Z" transform="translate(108.13 -458.91)"/>
        <path class="cls-4" d="M177.63,466.4a.32.32,0,0,1-.23-.09.3.3,0,0,1-.08-.23v-.54a.29.29,0,0,1,.31-.33h.54a.31.31,0,0,1,.33.33v.54a.3.3,0,0,1-.09.23.32.32,0,0,1-.24.09Zm.16,9a.34.34,0,0,1-.23-.08.32.32,0,0,1-.09-.23v-6.82a.32.32,0,0,1,.09-.23.34.34,0,0,1,.23-.08H178a.34.34,0,0,1,.23.08.32.32,0,0,1,.09.23v6.82a.32.32,0,0,1-.09.23.34.34,0,0,1-.23.08Z" transform="translate(108.13 -458.91)"/>
        <path class="cls-4" d="M183.5,475.52a3.31,3.31,0,0,1-1.73-.43,2.79,2.79,0,0,1-1.05-1.18,3.91,3.91,0,0,1-.4-1.66c0-.14,0-.34,0-.6s0-.46,0-.6a3.91,3.91,0,0,1,.4-1.67,2.83,2.83,0,0,1,1.05-1.17,3.31,3.31,0,0,1,1.73-.42,3.25,3.25,0,0,1,1.72.42,2.78,2.78,0,0,1,1.06,1.17,3.91,3.91,0,0,1,.4,1.67c0,.14,0,.34,0,.6s0,.46,0,.6a3.91,3.91,0,0,1-.4,1.66,2.75,2.75,0,0,1-1.06,1.18A3.25,3.25,0,0,1,183.5,475.52Zm0-.84a2.17,2.17,0,0,0,1.63-.64,2.66,2.66,0,0,0,.67-1.86c0-.14,0-.32,0-.53s0-.39,0-.53a2.67,2.67,0,0,0-.67-1.87,2.42,2.42,0,0,0-3.26,0,2.67,2.67,0,0,0-.67,1.87c0,.14,0,.32,0,.53s0,.39,0,.53a2.66,2.66,0,0,0,.67,1.86A2.17,2.17,0,0,0,183.5,474.68Z" transform="translate(108.13 -458.91)"/>
        <path class="cls-4" d="M195,475.52a2.88,2.88,0,0,1-1.41-.31,2.53,2.53,0,0,1-.94-.8,3.33,3.33,0,0,1-.52-1.11,5.92,5.92,0,0,1-.2-1.25c0-.14,0-.28,0-.4s0-.26,0-.4a5.92,5.92,0,0,1,.2-1.25,3.33,3.33,0,0,1,.52-1.11,2.53,2.53,0,0,1,.94-.8,3,3,0,0,1,1.41-.3,2.9,2.9,0,0,1,1.46.32,3,3,0,0,1,.94.81v-3.4a.29.29,0,0,1,.32-.31H198a.34.34,0,0,1,.23.08.32.32,0,0,1,.09.23v9.54a.32.32,0,0,1-.09.23.34.34,0,0,1-.23.08h-.24a.29.29,0,0,1-.32-.31v-.68a2.75,2.75,0,0,1-.94.81A2.89,2.89,0,0,1,195,475.52Zm.08-.84a2.07,2.07,0,0,0,1.32-.38,2.36,2.36,0,0,0,.74-1,3,3,0,0,0,.26-1.16c0-.15,0-.33,0-.56s0-.42,0-.56a3,3,0,0,0-.26-1.13,2.42,2.42,0,0,0-.75-.93,2.52,2.52,0,0,0-2.63,0,2,2,0,0,0-.71,1,4.47,4.47,0,0,0-.24,1.29c0,.27,0,.53,0,.8a4.47,4.47,0,0,0,.24,1.29,2,2,0,0,0,.71,1A2.13,2.13,0,0,0,195.12,474.68Z" transform="translate(108.13 -458.91)"/>
        <path class="cls-4" d="M203.41,475.52a2.83,2.83,0,0,1-2.2-.91,3.85,3.85,0,0,1-.93-2.39c0-.14,0-.33,0-.57s0-.43,0-.57a4.41,4.41,0,0,1,.45-1.72,2.93,2.93,0,0,1,1.07-1.16,3,3,0,0,1,1.61-.41,3.11,3.11,0,0,1,1.71.44,3,3,0,0,1,1.08,1.27,4.79,4.79,0,0,1,.38,2v.21a.29.29,0,0,1-.1.23.32.32,0,0,1-.23.09h-5.1v.14a3.27,3.27,0,0,0,.3,1.23,2.44,2.44,0,0,0,.77.94,2,2,0,0,0,1.19.36,2.6,2.6,0,0,0,1-.18,2.5,2.5,0,0,0,.65-.41,2,2,0,0,0,.31-.34.91.91,0,0,1,.2-.22.67.67,0,0,1,.23,0h.23a.29.29,0,0,1,.22.08.22.22,0,0,1,.08.2,1,1,0,0,1-.22.5,3,3,0,0,1-.59.58,3.18,3.18,0,0,1-.92.47A3.86,3.86,0,0,1,203.41,475.52Zm-2.26-4.31h4.55v-.06a3,3,0,0,0-.27-1.29,2.18,2.18,0,0,0-.79-.91,2.22,2.22,0,0,0-1.23-.33,2.18,2.18,0,0,0-1.22.33,2.13,2.13,0,0,0-.77.91,3,3,0,0,0-.27,1.29Z" transform="translate(108.13 -458.91)"/>
        <path class="cls-4" d="M140.28,492.55a.28.28,0,0,1-.2-.09.28.28,0,0,1-.08-.2.44.44,0,0,1,0-.15l3.62-9.29a.53.53,0,0,1,.15-.22.4.4,0,0,1,.26-.07h.49a.4.4,0,0,1,.26.07.4.4,0,0,1,.15.22l3.63,9.29a.89.89,0,0,1,0,.15.24.24,0,0,1-.08.2.28.28,0,0,1-.2.09H148a.29.29,0,0,1-.21-.08.53.53,0,0,1-.1-.14l-.89-2.29h-5.07l-.89,2.29a.25.25,0,0,1-.09.14.29.29,0,0,1-.22.08Zm1.84-3.36h4.38l-2.19-5.64Z" transform="translate(108.13 -458.91)"/>
        <path class="cls-4" d="M150.43,492.55a.32.32,0,0,1-.23-.09.31.31,0,0,1-.08-.22v-6.8a.36.36,0,0,1,.08-.24.32.32,0,0,1,.23-.09h.23a.31.31,0,0,1,.33.33v.65a1.63,1.63,0,0,1,.75-.74,2.67,2.67,0,0,1,1.2-.24h.53a.31.31,0,0,1,.23.08.36.36,0,0,1,.08.23v.2a.34.34,0,0,1-.08.23.32.32,0,0,1-.23.09h-.62A1.73,1.73,0,0,0,151,487.8v4.44a.28.28,0,0,1-.09.22.32.32,0,0,1-.24.09Z" transform="translate(108.13 -458.91)"/>
        <path class="cls-4" d="M160.34,495.27a.3.3,0,0,1-.23-.09A.28.28,0,0,1,160,495v-3.4a2.92,2.92,0,0,1-.93.8,3,3,0,0,1-1.47.33,3.19,3.19,0,0,1-1.41-.29,2.68,2.68,0,0,1-.94-.78,3.32,3.32,0,0,1-.52-1.09,5.09,5.09,0,0,1-.19-1.23c0-.14,0-.3,0-.47s0-.33,0-.47a5.25,5.25,0,0,1,.19-1.24,3.18,3.18,0,0,1,.52-1.08,2.48,2.48,0,0,1,.94-.78,3.06,3.06,0,0,1,1.41-.3,3,3,0,0,1,1.47.33,2.8,2.8,0,0,1,.93.8v-.67a.32.32,0,0,1,.09-.23.3.3,0,0,1,.23-.08h.24a.3.3,0,0,1,.23.08.32.32,0,0,1,.09.23V495a.28.28,0,0,1-.09.22.3.3,0,0,1-.23.09Zm-2.63-3.41a2.13,2.13,0,0,0,1.3-.37,2.42,2.42,0,0,0,.75-.93,2.86,2.86,0,0,0,.26-1.13c0-.14,0-.33,0-.56s0-.41,0-.56a3.18,3.18,0,0,0-.25-1.16,2.38,2.38,0,0,0-.75-1,2.06,2.06,0,0,0-1.31-.39,2.14,2.14,0,0,0-1.33.38,2.05,2.05,0,0,0-.71,1,4.47,4.47,0,0,0-.24,1.29c0,.26,0,.53,0,.8a4.47,4.47,0,0,0,.24,1.29,2.1,2.1,0,0,0,.71,1A2.14,2.14,0,0,0,157.71,491.86Z" transform="translate(108.13 -458.91)"/>
        <path class="cls-4" d="M166,492.69a2.85,2.85,0,0,1-1.61-.42,2.48,2.48,0,0,1-.94-1.15,4.08,4.08,0,0,1-.31-1.63v-4.07a.36.36,0,0,1,.08-.23.31.31,0,0,1,.23-.08h.25a.31.31,0,0,1,.23.08.36.36,0,0,1,.08.23v4c0,1.63.71,2.44,2.13,2.44a2.13,2.13,0,0,0,1.64-.65,2.49,2.49,0,0,0,.61-1.79v-4a.32.32,0,0,1,.09-.23.28.28,0,0,1,.23-.08H169a.3.3,0,0,1,.23.08.32.32,0,0,1,.09.23v6.82a.28.28,0,0,1-.09.22.3.3,0,0,1-.23.09h-.24a.29.29,0,0,1-.23-.09.28.28,0,0,1-.09-.22v-.68a3.13,3.13,0,0,1-.92.82A2.92,2.92,0,0,1,166,492.69Z" transform="translate(108.13 -458.91)"/>
        <path class="cls-4" d="M171.76,483.57a.28.28,0,0,1-.31-.31v-.54a.29.29,0,0,1,.31-.33h.55a.32.32,0,0,1,.23.09.32.32,0,0,1,.09.24v.54a.32.32,0,0,1-.09.23.31.31,0,0,1-.23.08Zm.16,9a.3.3,0,0,1-.23-.09.28.28,0,0,1-.09-.22v-6.82a.32.32,0,0,1,.09-.23.3.3,0,0,1,.23-.08h.24a.3.3,0,0,1,.23.08.32.32,0,0,1,.09.23v6.82a.28.28,0,0,1-.09.22.3.3,0,0,1-.23.09Z" transform="translate(108.13 -458.91)"/>
        <path class="cls-4" d="M177.3,492.55a1.91,1.91,0,0,1-1.17-.31,1.61,1.61,0,0,1-.6-.86,3.91,3.91,0,0,1-.18-1.22v-4.22h-1.11a.31.31,0,0,1-.32-.32v-.2a.32.32,0,0,1,.09-.23.3.3,0,0,1,.23-.08h1.11V482.7a.32.32,0,0,1,.09-.23.34.34,0,0,1,.23-.08h.24a.34.34,0,0,1,.23.08.32.32,0,0,1,.09.23v2.41H178a.3.3,0,0,1,.23.08.32.32,0,0,1,.09.23v.2a.31.31,0,0,1-.32.32h-1.77v4.16a2.34,2.34,0,0,0,.25,1.19.94.94,0,0,0,.89.43h.78a.32.32,0,0,1,.23.09.31.31,0,0,1,.08.22v.21a.31.31,0,0,1-.08.22.32.32,0,0,1-.23.09Z" transform="translate(108.13 -458.91)"/>
        <path class="cls-4" d="M182.7,492.69a2.82,2.82,0,0,1-2.21-.91,3.94,3.94,0,0,1-.93-2.38c0-.14,0-.33,0-.57s0-.43,0-.58a4.36,4.36,0,0,1,.46-1.71,2.86,2.86,0,0,1,1.07-1.16,3,3,0,0,1,1.61-.42,3.08,3.08,0,0,1,1.7.45,2.82,2.82,0,0,1,1.08,1.27,4.76,4.76,0,0,1,.38,2v.21a.3.3,0,0,1-.09.23.32.32,0,0,1-.24.09h-5.09v.14a3,3,0,0,0,.3,1.22,2.47,2.47,0,0,0,.77.95,2,2,0,0,0,1.19.36,2.52,2.52,0,0,0,1-.18,2.6,2.6,0,0,0,.65-.41,1.77,1.77,0,0,0,.32-.34.63.63,0,0,1,.2-.22.59.59,0,0,1,.23,0h.23a.35.35,0,0,1,.22.08.25.25,0,0,1,.08.21,1.12,1.12,0,0,1-.23.5,2.62,2.62,0,0,1-.58.57,3.25,3.25,0,0,1-.93.48A3.8,3.8,0,0,1,182.7,492.69Zm-2.26-4.31H185v-.05a3,3,0,0,0-.27-1.29,2.19,2.19,0,0,0-.79-.91,2.27,2.27,0,0,0-1.23-.34,2.22,2.22,0,0,0-1.23.34,2.14,2.14,0,0,0-.77.91,3,3,0,0,0-.26,1.29Z" transform="translate(108.13 -458.91)"/>
        <path class="cls-4" d="M190.57,492.69a3.42,3.42,0,0,1-1.7-.39,2.52,2.52,0,0,1-1.07-1.14,4.27,4.27,0,0,1-.39-1.76c0-.14,0-.33,0-.57s0-.43,0-.58a4.27,4.27,0,0,1,.39-1.76,2.54,2.54,0,0,1,1.07-1.13,3.32,3.32,0,0,1,1.7-.4,3.67,3.67,0,0,1,1.31.21,2.78,2.78,0,0,1,.91.54,2.34,2.34,0,0,1,.54.74,1.81,1.81,0,0,1,.2.79.25.25,0,0,1-.08.23.32.32,0,0,1-.23.08H193a.29.29,0,0,1-.21-.06.64.64,0,0,1-.13-.24,2.11,2.11,0,0,0-.83-1.13,2.34,2.34,0,0,0-1.28-.33,2.26,2.26,0,0,0-1.61.6,2.68,2.68,0,0,0-.68,1.94,8.34,8.34,0,0,0,0,1,2.7,2.7,0,0,0,.68,1.94,2.25,2.25,0,0,0,1.61.59,2.43,2.43,0,0,0,1.28-.32,2.1,2.1,0,0,0,.83-1.14.66.66,0,0,1,.13-.23.25.25,0,0,1,.21-.07h.2a.33.33,0,0,1,.23.09.24.24,0,0,1,.08.23,2,2,0,0,1-.12.63,2.27,2.27,0,0,1-.36.61,2.41,2.41,0,0,1-.57.53,3,3,0,0,1-.83.37A4,4,0,0,1,190.57,492.69Z" transform="translate(108.13 -458.91)"/>
        <path class="cls-4" d="M197.93,492.55a1.91,1.91,0,0,1-1.17-.31,1.69,1.69,0,0,1-.61-.86,4.23,4.23,0,0,1-.17-1.22v-4.22h-1.11a.29.29,0,0,1-.23-.09.3.3,0,0,1-.09-.23v-.2a.32.32,0,0,1,.09-.23.28.28,0,0,1,.23-.08H196V482.7a.32.32,0,0,1,.09-.23.34.34,0,0,1,.23-.08h.24a.34.34,0,0,1,.23.08.32.32,0,0,1,.09.23v2.41h1.77a.3.3,0,0,1,.23.08.32.32,0,0,1,.09.23v.2a.31.31,0,0,1-.32.32h-1.77v4.16a2.34,2.34,0,0,0,.25,1.19.93.93,0,0,0,.89.43h.77a.29.29,0,0,1,.23.09.28.28,0,0,1,.09.22v.21a.28.28,0,0,1-.09.22.29.29,0,0,1-.23.09Z" transform="translate(108.13 -458.91)"/>
        <path class="cls-4" d="M203.4,492.69a3.19,3.19,0,0,1-1.73-.43,2.8,2.8,0,0,1-1.06-1.17,4.09,4.09,0,0,1-.39-1.66c0-.14,0-.34,0-.6s0-.46,0-.6a4.06,4.06,0,0,1,.39-1.67,2.92,2.92,0,0,1,1.06-1.17,3.68,3.68,0,0,1,3.45,0,2.85,2.85,0,0,1,1.06,1.17,4.07,4.07,0,0,1,.4,1.67c0,.14,0,.34,0,.6s0,.46,0,.6a4.1,4.1,0,0,1-.4,1.66,2.73,2.73,0,0,1-1.06,1.17A3.18,3.18,0,0,1,203.4,492.69Zm0-.83a2.17,2.17,0,0,0,1.63-.64,2.7,2.7,0,0,0,.67-1.86c0-.15,0-.32,0-.53s0-.39,0-.53a2.69,2.69,0,0,0-.67-1.87,2.4,2.4,0,0,0-3.26,0,2.7,2.7,0,0,0-.68,1.87c0,.14,0,.32,0,.53s0,.38,0,.53a2.71,2.71,0,0,0,.68,1.86A2.17,2.17,0,0,0,203.4,491.86Z" transform="translate(108.13 -458.91)"/>
        <path class="cls-4" d="M210.91,492.69a3.55,3.55,0,0,1-1.28-.2,2.92,2.92,0,0,1-.88-.48,2.13,2.13,0,0,1-.51-.55,1.17,1.17,0,0,1-.18-.41.24.24,0,0,1,.11-.24.37.37,0,0,1,.21-.08h.21a.33.33,0,0,1,.15,0,.48.48,0,0,1,.17.16,3.09,3.09,0,0,0,.43.46,1.62,1.62,0,0,0,.62.35,2.87,2.87,0,0,0,.95.13,2.74,2.74,0,0,0,1.42-.33,1.06,1.06,0,0,0,.56-1,.94.94,0,0,0-.22-.64,1.74,1.74,0,0,0-.75-.43,11.68,11.68,0,0,0-1.44-.39,4.38,4.38,0,0,1-1.38-.52,1.63,1.63,0,0,1-.65-.69,2.19,2.19,0,0,1-.17-.85,1.8,1.8,0,0,1,.29-1,2.17,2.17,0,0,1,.85-.79,3,3,0,0,1,1.42-.31,3.51,3.51,0,0,1,1.2.19,2.6,2.6,0,0,1,.81.45,2.12,2.12,0,0,1,.46.52,1.11,1.11,0,0,1,.17.42.25.25,0,0,1-.09.23.38.38,0,0,1-.23.08H213a.29.29,0,0,1-.19-.05.53.53,0,0,1-.13-.13,2,2,0,0,0-.34-.43,1.44,1.44,0,0,0-.54-.32,2.51,2.51,0,0,0-.91-.13,2,2,0,0,0-1.27.35,1.14,1.14,0,0,0-.42.9.94.94,0,0,0,.17.55,1.49,1.49,0,0,0,.65.43,10.43,10.43,0,0,0,1.37.41,5.53,5.53,0,0,1,1.45.49,1.9,1.9,0,0,1,.75.7,1.87,1.87,0,0,1,.22.94,1.94,1.94,0,0,1-.32,1.06,2.3,2.3,0,0,1-1,.78A3.83,3.83,0,0,1,210.91,492.69Z" transform="translate(108.13 -458.91)"/>
        <path class="cls-4" d="M143.5,509.87a3.06,3.06,0,0,1-1.41-.3,2.59,2.59,0,0,1-.93-.8,3.4,3.4,0,0,1-.53-1.12,5.81,5.81,0,0,1-.19-1.24c0-.15,0-.28,0-.4s0-.26,0-.4a5.91,5.91,0,0,1,.19-1.25,3.5,3.5,0,0,1,.53-1.12,2.59,2.59,0,0,1,.93-.8,3.06,3.06,0,0,1,1.41-.3,2.93,2.93,0,0,1,1.47.33,3.09,3.09,0,0,1,.94.8v-3.39a.3.3,0,0,1,.09-.23.28.28,0,0,1,.22-.09h.25a.32.32,0,0,1,.23.09.34.34,0,0,1,.08.23v9.53a.34.34,0,0,1-.08.23.32.32,0,0,1-.23.09h-.25a.28.28,0,0,1-.22-.09.3.3,0,0,1-.09-.23v-.67a2.86,2.86,0,0,1-.94.81A3,3,0,0,1,143.5,509.87Zm.09-.83a2.17,2.17,0,0,0,1.32-.38,2.36,2.36,0,0,0,.74-1,3.3,3.3,0,0,0,.26-1.17c0-.14,0-.33,0-.56s0-.41,0-.55a2.92,2.92,0,0,0-.27-1.14,2.25,2.25,0,0,0-.75-.93,2.5,2.5,0,0,0-2.62,0,2.06,2.06,0,0,0-.71,1,4.16,4.16,0,0,0-.25,1.29c0,.26,0,.53,0,.8a4.22,4.22,0,0,0,.25,1.29,2,2,0,0,0,.71,1A2.11,2.11,0,0,0,143.59,509Z" transform="translate(108.13 -458.91)"/>
        <path class="cls-4" d="M151.88,509.87a2.82,2.82,0,0,1-2.21-.91,3.94,3.94,0,0,1-.93-2.38c0-.14,0-.33,0-.57s0-.43,0-.58a4.36,4.36,0,0,1,.46-1.71,2.8,2.8,0,0,1,1.07-1.16,3,3,0,0,1,1.61-.42,3.16,3.16,0,0,1,1.7.44,2.9,2.9,0,0,1,1.08,1.28,4.59,4.59,0,0,1,.38,2v.22a.3.3,0,0,1-.09.23.32.32,0,0,1-.24.08h-5.09v.15a3.22,3.22,0,0,0,.3,1.22,2.47,2.47,0,0,0,.77.95,2,2,0,0,0,1.19.36,2.52,2.52,0,0,0,1-.18,2.6,2.6,0,0,0,.65-.41,1.77,1.77,0,0,0,.32-.34.63.63,0,0,1,.2-.22.59.59,0,0,1,.23,0h.23a.35.35,0,0,1,.22.08.23.23,0,0,1,.08.21,1.13,1.13,0,0,1-.22.49,2.71,2.71,0,0,1-.59.58,3.38,3.38,0,0,1-.93.48A3.8,3.8,0,0,1,151.88,509.87Zm-2.26-4.31h4.55v-.05a3,3,0,0,0-.27-1.29,2.19,2.19,0,0,0-.79-.91,2.39,2.39,0,0,0-2.46,0,2.21,2.21,0,0,0-.77.91,3.13,3.13,0,0,0-.26,1.29Z" transform="translate(108.13 -458.91)"/>
        <path class="cls-4" d="M157.26,509.73a.32.32,0,0,1-.23-.09.3.3,0,0,1-.08-.23v-9.53a.3.3,0,0,1,.08-.23.32.32,0,0,1,.23-.09h.24a.29.29,0,0,1,.23.09.3.3,0,0,1,.09.23v9.53a.3.3,0,0,1-.09.23.29.29,0,0,1-.23.09Z" transform="translate(108.13 -458.91)"/>
        <path class="cls-4" d="M164.35,509.73a.29.29,0,0,1-.23-.09.3.3,0,0,1-.09-.23V500a.33.33,0,0,1,.09-.25.32.32,0,0,1,.23-.08h3.47a4.22,4.22,0,0,1,1.74.33,2.56,2.56,0,0,1,1.15,1,3.45,3.45,0,0,1,0,3.26,2.56,2.56,0,0,1-1.15,1,4.22,4.22,0,0,1-1.74.33h-2.89v3.78a.34.34,0,0,1-.08.23.33.33,0,0,1-.25.09Zm.58-5h2.82a2.75,2.75,0,0,0,1.86-.55,2.33,2.33,0,0,0,0-3.12,2.75,2.75,0,0,0-1.86-.54h-2.82Z" transform="translate(108.13 -458.91)"/>
        <path class="cls-4" d="M175.5,509.87a2.82,2.82,0,0,1-2.21-.91,3.94,3.94,0,0,1-.93-2.38c0-.14,0-.33,0-.57s0-.43,0-.58a4.36,4.36,0,0,1,.46-1.71,2.8,2.8,0,0,1,1.07-1.16,3,3,0,0,1,1.61-.42,3.16,3.16,0,0,1,1.7.44,2.9,2.9,0,0,1,1.08,1.28,4.74,4.74,0,0,1,.38,2v.22a.3.3,0,0,1-.09.23.32.32,0,0,1-.24.08h-5.09v.15a2.89,2.89,0,0,0,.3,1.22,2.47,2.47,0,0,0,.77.95,2,2,0,0,0,1.19.36,2.52,2.52,0,0,0,1-.18,2.6,2.6,0,0,0,.65-.41,2.18,2.18,0,0,0,.32-.34.63.63,0,0,1,.2-.22.59.59,0,0,1,.23,0h.23a.35.35,0,0,1,.22.08.23.23,0,0,1,.08.21,1.05,1.05,0,0,1-.23.49,2.44,2.44,0,0,1-.58.58,3.53,3.53,0,0,1-.93.48A3.8,3.8,0,0,1,175.5,509.87Zm-2.26-4.31h4.55v-.05a3,3,0,0,0-.27-1.29,2.26,2.26,0,0,0-.79-.91,2.19,2.19,0,0,0-1.23-.34,2.09,2.09,0,0,0-2,1.25,3,3,0,0,0-.26,1.29Z" transform="translate(108.13 -458.91)"/>
        <path class="cls-4" d="M180.87,509.73a.29.29,0,0,1-.23-.09.3.3,0,0,1-.09-.23v-6.8a.32.32,0,0,1,.09-.23.29.29,0,0,1,.23-.09h.22a.32.32,0,0,1,.24.09.32.32,0,0,1,.09.23v.66a1.68,1.68,0,0,1,.75-.74,2.67,2.67,0,0,1,1.2-.24h.53a.3.3,0,0,1,.23.08.3.3,0,0,1,.09.23v.2a.31.31,0,0,1-.32.32h-.61a1.74,1.74,0,0,0-1.87,1.86v4.43a.3.3,0,0,1-.09.23.32.32,0,0,1-.24.09Z" transform="translate(108.13 -458.91)"/>
        <path class="cls-4" d="M188.32,509.87a2.88,2.88,0,0,1-1.61-.42,2.53,2.53,0,0,1-.94-1.15,4.08,4.08,0,0,1-.31-1.63V502.6a.3.3,0,0,1,.09-.23.28.28,0,0,1,.23-.08H186a.31.31,0,0,1,.23.08.3.3,0,0,1,.08.23v4c0,1.64.71,2.45,2.14,2.45a2.16,2.16,0,0,0,1.63-.65,2.5,2.5,0,0,0,.61-1.8v-4a.3.3,0,0,1,.09-.23.3.3,0,0,1,.23-.08h.24a.3.3,0,0,1,.23.08.3.3,0,0,1,.09.23v6.81a.31.31,0,0,1-.32.32H191a.31.31,0,0,1-.32-.32v-.67a3,3,0,0,1-.92.82A2.92,2.92,0,0,1,188.32,509.87Zm0-8.66a.21.21,0,0,1-.23-.23.23.23,0,0,1,.07-.18l1-1.19a.93.93,0,0,1,.21-.2.67.67,0,0,1,.32-.06h.59a.24.24,0,0,1,.27.27.24.24,0,0,1-.07.17l-1.56,1.28a.78.78,0,0,1-.21.12l-.24,0Z" transform="translate(108.13 -458.91)"/>
      </g>
    </g>
  </g>
</svg>
