<svg id="Capa_1" data-name="Capa 1" xmlns="http://www.w3.org/2000/svg" width="15.7mm" height="11.15mm" viewBox="0 0 44.5 31.6">
  <defs>
    <style>
      .cls-1 {
        fill: #fff;
      }
    </style>
  </defs>
  <path class="cls-1" d="M201.32,301.06h-2.65v-2a.93.93,0,0,0-.56-.86c-5.59-2.38-12.47-1.37-18.11,2.63-5.64-4-12.52-5-18.11-2.63a.93.93,0,0,0-.56.86v2h-2.65a.93.93,0,0,0-.93.92v25.63a.93.93,0,0,0,.93.92h42.64a.93.93,0,0,0,.93-.92V302A.93.93,0,0,0,201.32,301.06Zm-41.71,25.62V302.91h1.72v21.78a.91.91,0,0,0,.41.77,1,1,0,0,0,.88.08,16.47,16.47,0,0,1,14.24,1.14Zm19.46-.85a20.22,20.22,0,0,0-10.78-3.27,16.59,16.59,0,0,0-5.11.79V302h0v-2.28c4.95-1.85,10.94-.81,15.89,2.76Zm1.86-23.38c4.95-3.57,10.95-4.61,15.89-2.76V302h0v21.37a19,19,0,0,0-15.89,2.48Zm19.46,24.23H183.14a16.47,16.47,0,0,1,14.24-1.14,1,1,0,0,0,.88-.08.91.91,0,0,0,.41-.77V302.91h1.72v23.77Z" transform="translate(-157.75 -296.94)"/>
</svg>
