<svg id="Capa_1" data-name="Capa 1" xmlns="http://www.w3.org/2000/svg" width="5.64mm" height="4.14mm" viewBox="0 0 15.98 11.74">
  <defs>
    <style>
      .cls-1 {
        fill: #fff;
      }
    </style>
  </defs>
  <g>
    <path class="cls-1" d="M357.3,315H345.06a1.88,1.88,0,0,0-1.87,1.88v8a1.88,1.88,0,0,0,1.87,1.88H357.3a1.88,1.88,0,0,0,1.87-1.88v-8A1.88,1.88,0,0,0,357.3,315Zm.62,9.86a.63.63,0,0,1-.62.63H345.06a.63.63,0,0,1-.62-.63v-8a.63.63,0,0,1,.62-.63H357.3a.63.63,0,0,1,.62.63Z" transform="translate(-343.19 -314.95)"/>
    <polygon class="cls-1" points="14.63 0.78 7.99 5.71 1.35 0.78 0.61 1.78 7.99 7.27 15.37 1.78 14.63 0.78"/>
  </g>
</svg>
