<svg id="Capa_1" data-name="Capa 1" xmlns="http://www.w3.org/2000/svg" width="2.47mm" height="4.94mm" viewBox="0 0 7.01 13.99">
  <defs>
    <style>
      .cls-1 {
        fill: #fff;
        fill-rule: evenodd;
      }
    </style>
  </defs>
  <path class="cls-1" d="M295.12,475c.42,0,.84,0,1.25,0h.17v-2.25c-.22,0-.45-.06-.68-.07-.43,0-.86,0-1.28,0a3,3,0,0,0-1.81.58,2.87,2.87,0,0,0-1.09,1.88,7.91,7.91,0,0,0-.07,1c0,.51,0,1,0,1.52v.19h-2.07v2.52h2v6.33h2.52v-6.32h2.05c.1-.84.21-1.67.31-2.53h-2.38s0-1.25,0-1.79A.91.91,0,0,1,295.12,475Z" transform="translate(-289.54 -472.59)"/>
</svg>
