<svg id="Capa_1" data-name="Capa 1" xmlns="http://www.w3.org/2000/svg" width="2.55mm" height="5.09mm" viewBox="0 0 7.23 14.43">
  <defs>
    <style>
      .cls-1 {
        fill: #131313;
        fill-rule: evenodd;
      }
    </style>
  </defs>
  <path class="cls-1" d="M100.79,460.76h1.46v-2.32c-.23,0-.46-.06-.71-.07-.44,0-.88-.05-1.32,0a3.22,3.22,0,0,0-1.86.6,2.92,2.92,0,0,0-1.12,1.94,8.42,8.42,0,0,0-.08,1c0,.52,0,1.05,0,1.57v.19H95v2.6h2.12v6.53h2.59v-6.52h2.12c.11-.86.21-1.72.32-2.61H99.72s0-1.29,0-1.85C99.77,461,100.2,460.79,100.79,460.76Z" transform="translate(-95.03 -458.33)"/>
</svg>
