<svg id="Capa_1" data-name="Capa 1" xmlns="http://www.w3.org/2000/svg" width="4.69mm" height="4.89mm" viewBox="0 0 13.31 13.87">
  <defs>
    <style>
      .cls-1 {
        fill: #fff;
      }
    </style>
  </defs>
  <path class="cls-1" d="M298.43,474.9a3.61,3.61,0,0,0-3.51-3.41,47.61,47.61,0,0,0-6.58.08,3.41,3.41,0,0,0-2.88,2.69,39.77,39.77,0,0,0-.07,7.79,3.45,3.45,0,0,0,2.67,3,38.55,38.55,0,0,0,7.37.05,3.44,3.44,0,0,0,2.91-2.78A44.28,44.28,0,0,0,298.43,474.9Zm-1.22,6.93a2.29,2.29,0,0,1-2.12,2.09,38.24,38.24,0,0,1-6.86-.1,2.26,2.26,0,0,1-1.66-2,48,48,0,0,1,0-7,2.29,2.29,0,0,1,2.11-2.08,44.73,44.73,0,0,1,6.55,0,2.3,2.3,0,0,1,2,2.21A51.78,51.78,0,0,1,297.21,481.83Zm-5.32-7a3.56,3.56,0,1,0,3.41,3.56A3.48,3.48,0,0,0,291.89,474.79Zm0,5.86a2.3,2.3,0,1,1,2.23-2.29A2.25,2.25,0,0,1,291.86,480.65Zm4.37-6a.81.81,0,0,1-.8.83.84.84,0,1,1,.8-.83Z" transform="translate(-285.23 -471.42)"/>
</svg>
