<svg id="Capa_1" data-name="Capa 1" xmlns="http://www.w3.org/2000/svg" width="4.69mm" height="4.89mm" viewBox="0 0 13.31 13.87">
  <defs>
    <style>
      .cls-1 {
        fill: #131313;
      }
    </style>
  </defs>
  <path class="cls-1" d="M113.33,462.69a3.78,3.78,0,0,0-1.08-2.37,3.62,3.62,0,0,0-2.44-1,46.17,46.17,0,0,0-6.58.07,3.42,3.42,0,0,0-2.88,2.7,40.47,40.47,0,0,0-.07,7.78,3.46,3.46,0,0,0,2.67,3,37.75,37.75,0,0,0,7.37.05,3.41,3.41,0,0,0,2.91-2.77A45.51,45.51,0,0,0,113.33,462.69Zm-1.23,6.93a2.29,2.29,0,0,1-2.12,2.09,36.48,36.48,0,0,1-6.86-.1,2.22,2.22,0,0,1-1.65-1.95,48,48,0,0,1,0-7,2.29,2.29,0,0,1,2.11-2.09,44.72,44.72,0,0,1,6.55,0,2.31,2.31,0,0,1,2,2.21A51.64,51.64,0,0,1,112.1,469.62Zm-5.32-7a3.56,3.56,0,1,0,3.41,3.56A3.47,3.47,0,0,0,106.78,462.59Zm0,5.85a2.3,2.3,0,1,1,2.23-2.29A2.26,2.26,0,0,1,106.76,468.44Zm4.36-6a.8.8,0,0,1-.8.83.82.82,0,0,1-.8-.83.8.8,0,1,1,1.6,0Z" transform="translate(-100.13 -459.21)"/>
</svg>
