<svg id="Capa_1" data-name="Capa 1" xmlns="http://www.w3.org/2000/svg" width="4.71mm" height="4.9mm" viewBox="0 0 13.36 13.9">
  <defs>
    <style>
      .cls-1 {
        fill: #fff;
      }
    </style>
  </defs>
  <g>
    <path class="cls-1" d="M285.43,476h2.77v9.28h-2.77Zm1.39-4.62a1.68,1.68,0,1,1-1.61,1.68,1.64,1.64,0,0,1,1.61-1.68" transform="translate(-285.21 -471.4)"/>
    <path class="cls-1" d="M289.94,476h2.66v1.27h0a2.9,2.9,0,0,1,2.62-1.5c2.81,0,3.32,1.92,3.32,4.42v5.09h-2.76v-4.51c0-1.08,0-2.46-1.44-2.46s-1.66,1.17-1.66,2.38v4.59h-2.77Z" transform="translate(-285.21 -471.4)"/>
  </g>
</svg>
