<svg id="Capa_1" data-name="Capa 1" xmlns="http://www.w3.org/2000/svg" width="4.19mm" height="4.92mm" viewBox="0 0 11.89 13.93">
  <defs>
    <style>
      .cls-1 {
        fill: #fff;
        fill-rule: evenodd;
      }
    </style>
  </defs>
  <path class="cls-1" d="M295.61,471.37h0a3.39,3.39,0,0,0,3.28,3.47v2.37a5.73,5.73,0,0,1-3.29-1.17v4.61a4.33,4.33,0,0,1-3.31,4.55,4.66,4.66,0,0,1-2.08-.07c-5.31-1.59-3.55-9.46,1.78-8.62v2.54a2,2,0,0,0-2.35,2.82,2,2,0,0,0,3.49-.23,4.28,4.28,0,0,0,.13-1.13v-9.15Z" transform="translate(-287 -471.37)"/>
</svg>
