<svg id="Capa_1" data-name="Capa 1" xmlns="http://www.w3.org/2000/svg" width="4.66mm" height="5.46mm" viewBox="0 0 13.2 15.48">
  <defs>
    <style>
      .cls-1 {
        fill: #131313;
        fill-rule: evenodd;
      }
    </style>
  </defs>
  <path class="cls-1" d="M225.16,317.74h0a3.76,3.76,0,0,0,3.65,3.85v2.64a6.32,6.32,0,0,1-3.65-1.3v5.13a4.81,4.81,0,0,1-3.68,5.05,5.26,5.26,0,0,1-2.31-.08c-5.9-1.77-3.94-10.51,2-9.58v2.83c-2.44-.36-3.26,1.67-2.61,3.13a2.18,2.18,0,0,0,3.88-.26,5.19,5.19,0,0,0,.14-1.25V317.74Z" transform="translate(-215.61 -317.74)"/>
</svg>
