<svg id="Capa_1" data-name="Capa 1" xmlns="http://www.w3.org/2000/svg" width="5.95mm" height="4.88mm" viewBox="0 0 16.87 13.83">
  <defs>
    <style>
      .cls-1 {
        fill: #fff;
      }
    </style>
  </defs>
  <path class="cls-1" d="M299.84,471.44a.57.57,0,0,0-.18,0l-15.85,6a.51.51,0,0,0,0,1l3.68,1.24,2.21,4.44h0a.23.23,0,0,0,.21.14.25.25,0,0,0,.16-.06l2.07-1.76-2.32-1.76L290,483l-1.66-3.45,8.85-5.31-7.37,6.45,5.74,4.36a1.06,1.06,0,0,0,.63.21,1,1,0,0,0,1-.79l3.1-12.41A.5.5,0,0,0,299.84,471.44Z" transform="translate(-283.48 -471.44)"/>
</svg>
