<svg id="Capa_1" data-name="Capa 1" xmlns="http://www.w3.org/2000/svg" width="6.1mm" height="5mm" viewBox="0 0 17.3 14.18">
  <defs>
    <style>
      .cls-1 {
        fill: #131313;
      }
    </style>
  </defs>
  <path class="cls-1" d="M229.19,318.41l-.19,0-16.24,6.18a.52.52,0,0,0,0,1l3.77,1.28,2.27,4.54h0a.26.26,0,0,0,.22.14.27.27,0,0,0,.16-.06l2.12-1.81-2.37-1.8.18,2.37-1.7-3.54,9.08-5.45L219,327.91l5.88,4.46a1.07,1.07,0,0,0,1.69-.59l3.18-12.72A.53.53,0,0,0,229.19,318.41Z" transform="translate(-212.42 -318.41)"/>
</svg>
