<svg id="Capa_1" data-name="Capa 1" xmlns="http://www.w3.org/2000/svg" width="4.88mm" height="4.9mm" viewBox="0 0 13.82 13.9">
  <defs>
    <style>
      .cls-1 {
        fill: #fff;
        fill-rule: evenodd;
      }
    </style>
  </defs>
  <g>
    <path class="cls-1" d="M285.33,485.65c.07-.3.14-.56.21-.82.23-.83.46-1.67.68-2.5a.64.64,0,0,0,0-.41,6.9,6.9,0,1,1,3,2.9.7.7,0,0,0-.43,0C286.91,485.24,285.69,485.58,285.33,485.65Zm1.6-1.58,1.95-.51a.56.56,0,0,1,.47.06,5.65,5.65,0,0,0,3.81.73,5.76,5.76,0,1,0-5.93-2.92,1.23,1.23,0,0,1,.13,1.1C287.19,483,287.08,483.52,286.93,484.07Z" transform="translate(-285.33 -471.75)"/>
    <path class="cls-1" d="M294.06,482c-1.35,0-3.49-1.11-5-3.66a2.07,2.07,0,0,1,.32-2.65,1,1,0,0,1,.88-.13c.08,0,.15.13.19.21.2.45.39.89.56,1.35.09.24-.08.46-.42.87a.28.28,0,0,0-.05.39,4.62,4.62,0,0,0,2.39,2.05.28.28,0,0,0,.36-.1c.55-.67.61-.86.9-.73,1.39.67,1.5.7,1.51.86A1.51,1.51,0,0,1,294.06,482Z" transform="translate(-285.33 -471.75)"/>
  </g>
</svg>
