<svg id="Capa_1" data-name="Capa 1" xmlns="http://www.w3.org/2000/svg" width="5mm" height="5.02mm" viewBox="0 0 14.17 14.24">
  <defs>
    <style>
      .cls-1 {
        fill: #131313;
        fill-rule: evenodd;
      }
    </style>
  </defs>
  <g>
    <path class="cls-1" d="M214.31,333l.22-.84c.24-.86.48-1.71.7-2.57a.64.64,0,0,0,0-.41,7.05,7.05,0,1,1,3.05,3,.74.74,0,0,0-.44-.05C215.93,332.55,214.69,332.91,214.31,333Zm1.65-1.62,2-.53a.58.58,0,0,1,.48.07,5.82,5.82,0,0,0,3.91.74,5.9,5.9,0,1,0-6.08-3,1.21,1.21,0,0,1,.13,1.12C216.22,330.27,216.11,330.79,216,331.36Z" transform="translate(-214.31 -318.74)"/>
    <path class="cls-1" d="M223.26,329.19c-1.38-.05-3.58-1.14-5.08-3.75a2.12,2.12,0,0,1,.32-2.72,1,1,0,0,1,.91-.13c.08,0,.16.13.19.21.2.46.4.92.58,1.38.09.25-.08.48-.44.89a.31.31,0,0,0-.05.4,4.86,4.86,0,0,0,2.45,2.11.31.31,0,0,0,.38-.1c.56-.69.62-.89.91-.75,1.43.68,1.54.71,1.55.87A1.55,1.55,0,0,1,223.26,329.19Z" transform="translate(-214.31 -318.74)"/>
  </g>
</svg>
