<svg id="Capa_1" data-name="Capa 1" xmlns="http://www.w3.org/2000/svg" width="6.49mm" height="4.74mm" viewBox="0 0 18.4 13.44">
  <defs>
    <style>
      .cls-1 {
        fill: #fff;
        fill-rule: evenodd;
      }
    </style>
  </defs>
  <path class="cls-1" d="M284.64,484.67a2.19,2.19,0,0,1-1.41-1.43c-.61-1.76-.79-9.09.39-10.54a2.26,2.26,0,0,1,1.53-.85c3.18-.35,13-.3,14.12.12a2.24,2.24,0,0,1,1.38,1.39c.67,1.82.7,8.41-.09,10.16a2.17,2.17,0,0,1-1,1C298.39,485.21,286.2,485.2,284.64,484.67Zm5.05-3.44,5.71-3.09L289.69,475Z" transform="translate(-282.75 -471.62)"/>
</svg>
