<svg id="Capa_1" data-name="Capa 1" xmlns="http://www.w3.org/2000/svg" width="5.05mm" height="3.69mm" viewBox="0 0 14.31 10.46">
  <defs>
    <style>
      .cls-1 {
        fill: #131313;
        fill-rule: evenodd;
      }
    </style>
  </defs>
  <path class="cls-1" d="M215.4,330.41a1.69,1.69,0,0,1-1.1-1.11c-.47-1.36-.61-7.07.3-8.19a1.79,1.79,0,0,1,1.2-.67c2.47-.27,10.1-.23,11,.1a1.75,1.75,0,0,1,1.08,1.08c.52,1.41.53,6.54-.07,7.9a1.8,1.8,0,0,1-.78.81C226.09,330.83,216.61,330.83,215.4,330.41Zm3.92-2.67,4.45-2.41-4.45-2.41Z" transform="translate(-213.93 -320.26)"/>
</svg>
